<svg fill="none" height="94" viewBox="-10 7 170 80" width="156" xmlns="http://www.w3.org/2000/svg">
  <mask fill="black" height="33" id="path-1-outside-1_118:640" width="118" x="35.7934"
        y="32.4834">
    <path
      d="M36.7934 46.8964C36.7934 44.8512 37.2542 43.0165 38.1758 41.3924C39.0975 39.7482 40.3497 38.465 41.9325 37.5426C43.5354 36.6203 45.3086 36.1591 47.252 36.1591C49.5361 36.1591 51.5297 36.7105 53.2327 37.8133C54.9358 38.9161 56.178 40.4801 56.9594 42.5052H53.6835C53.1025 41.242 52.261 40.2695 51.159 39.5878C50.0771 38.9061 48.7748 38.5652 47.252 38.5652C45.7894 38.5652 44.4771 38.9061 43.315 39.5878C42.1529 40.2695 41.2413 41.242 40.5801 42.5052C39.919 43.7484 39.5884 45.2121 39.5884 46.8964C39.5884 48.5606 39.919 50.0243 40.5801 51.2876C41.2413 52.5307 42.1529 53.4932 43.315 54.1749C44.4771 54.8566 45.7894 55.1975 47.252 55.1975C48.7748 55.1975 50.0771 54.8666 51.159 54.205C52.261 53.5232 53.1025 52.5508 53.6835 51.2876H56.9594C56.178 53.2926 54.9358 54.8466 53.2327 55.9494C51.5297 57.0322 49.5361 57.5735 47.252 57.5735C45.3086 57.5735 43.5354 57.1224 41.9325 56.2201C40.3497 55.2977 39.0975 54.0245 38.1758 52.4004C37.2542 50.7763 36.7934 48.9416 36.7934 46.8964Z"/>
    <path
      d="M61.247 47.4389C61.247 45.7546 61.5876 44.2808 62.2688 43.0176C62.95 41.7344 63.8817 40.7418 65.0638 40.0401C66.2659 39.3383 67.5983 38.9874 69.0609 38.9874C70.5035 38.9874 71.7557 39.2982 72.8176 39.9198C73.8795 40.5413 74.671 41.3233 75.1919 42.2657V39.2581H77.9568V55.74H75.1919V52.6722C74.6509 53.6346 73.8395 54.4367 72.7575 55.0783C71.6956 55.6999 70.4534 56.0107 69.0309 56.0107C67.5683 56.0107 66.2459 55.6497 65.0638 54.9279C63.8817 54.2061 62.95 53.1935 62.2688 51.8902C61.5876 50.5869 61.247 49.1031 61.247 47.4389ZM75.1919 47.4689C75.1919 46.2258 74.9414 45.143 74.4405 44.2207C73.9396 43.2983 73.2584 42.5966 72.3969 42.1153C71.5554 41.6141 70.6237 41.3634 69.6019 41.3634C68.5801 41.3634 67.6484 41.604 66.8069 42.0853C65.9654 42.5665 65.2942 43.2683 64.7933 44.1906C64.2924 45.113 64.042 46.1957 64.042 47.4389C64.042 48.7021 64.2924 49.8049 64.7933 50.7473C65.2942 51.6696 65.9654 52.3814 66.8069 52.8827C67.6484 53.3639 68.5801 53.6045 69.6019 53.6045C70.6237 53.6045 71.5554 53.3639 72.3969 52.8827C73.2584 52.3814 73.9396 51.6696 74.4405 50.7473C74.9414 49.8049 75.1919 48.7121 75.1919 47.4689Z"/>
    <path
      d="M85.3134 41.9349C85.7942 40.9925 86.4755 40.2606 87.357 39.7393C88.2586 39.218 89.3506 38.9573 90.6329 38.9573V41.7845H89.9116C86.8461 41.7845 85.3134 43.4487 85.3134 46.7772V55.74H82.5785V39.2581H85.3134V41.9349Z"/>
    <path
      d="M108.817 46.8674C108.817 47.3887 108.787 47.9401 108.727 48.5216H95.5631C95.6633 50.1457 96.2143 51.419 97.2161 52.3413C98.2379 53.2436 99.4701 53.6948 100.913 53.6948C102.095 53.6948 103.077 53.4241 103.858 52.8827C104.659 52.3213 105.22 51.5794 105.541 50.657H108.486C108.045 52.2411 107.164 53.5344 105.841 54.5369C104.519 55.5194 102.876 56.0107 100.913 56.0107C99.3499 56.0107 97.9474 55.6598 96.7051 54.958C95.483 54.2562 94.5212 53.2637 93.82 51.9804C93.1187 50.6771 92.7681 49.1733 92.7681 47.4689C92.7681 45.7646 93.1087 44.2708 93.7899 42.9876C94.4711 41.7043 95.4228 40.7218 96.645 40.0401C97.8872 39.3383 99.3098 38.9874 100.913 38.9874C102.475 38.9874 103.858 39.3283 105.06 40.01C106.262 40.6917 107.184 41.6341 107.825 42.8372C108.486 44.0202 108.817 45.3636 108.817 46.8674ZM105.992 46.296C105.992 45.2533 105.761 44.361 105.3 43.6192C104.84 42.8572 104.209 42.2858 103.407 41.9048C102.626 41.5038 101.754 41.3033 100.792 41.3033C99.41 41.3033 98.2279 41.7444 97.2461 42.6266C96.2844 43.5089 95.7334 44.732 95.5932 46.296H105.992Z"/>
    <path d="M115.162 33.4834V55.74H112.427V33.4834H115.162Z"/>
    <path
      d="M134.008 39.2581L124.09 63.4997H121.265L124.511 55.5595L117.869 39.2581H120.905L126.074 52.612L131.183 39.2581H134.008Z"/>
    <path
      d="M143.94 56.0107C142.397 56.0107 140.995 55.6598 139.733 54.958C138.49 54.2562 137.509 53.2637 136.787 51.9804C136.086 50.6771 135.735 49.1733 135.735 47.4689C135.735 45.7847 136.096 44.3009 136.817 43.0176C137.559 41.7143 138.561 40.7218 139.823 40.0401C141.085 39.3383 142.498 38.9874 144.06 38.9874C145.623 38.9874 147.036 39.3383 148.298 40.0401C149.56 40.7218 150.552 41.7043 151.273 42.9876C152.015 44.2708 152.385 45.7646 152.385 47.4689C152.385 49.1733 152.005 50.6771 151.243 51.9804C150.502 53.2637 149.49 54.2562 148.208 54.958C146.925 55.6598 145.503 56.0107 143.94 56.0107ZM143.94 53.6045C144.922 53.6045 145.844 53.374 146.705 52.9128C147.567 52.4516 148.258 51.7599 148.779 50.8375C149.32 49.9152 149.59 48.7923 149.59 47.4689C149.59 46.1456 149.33 45.0227 148.809 44.1004C148.288 43.178 147.607 42.4963 146.765 42.0552C145.924 41.594 145.012 41.3634 144.03 41.3634C143.028 41.3634 142.107 41.594 141.265 42.0552C140.444 42.4963 139.783 43.178 139.282 44.1004C138.781 45.0227 138.53 46.1456 138.53 47.4689C138.53 48.8124 138.771 49.9452 139.252 50.8676C139.753 51.7899 140.414 52.4817 141.235 52.9429C142.057 53.384 142.958 53.6045 143.94 53.6045Z"/>
    <rect fill="white" height="33" width="118" x="35.7934" y="32.4834"/>
  </mask>
  <mask fill="#227D2C" height="94" id="path-2-outside-2_118:640" width="86" x="0" y="0">
    <path clip-rule="evenodd"
          d="M83.8944 75.271C84.2371 74.8344 84.144 74.2033 83.6976 73.8734L81.5892 72.315C81.1473 71.9884 80.5255 72.0804 80.1854 72.512C74.9729 79.1251 67.8518 84.0151 59.762 86.5208C51.3544 89.125 42.3321 89.0201 33.9883 86.2212C25.6444 83.4224 18.4073 78.0733 13.3143 70.9405C8.22125 63.8077 5.53369 55.2575 5.63681 46.5153C5.73994 37.773 8.62845 29.2876 13.8884 22.2752C19.1483 15.2628 26.5095 10.0833 34.9171 7.47917C43.3247 4.87503 52.347 4.9799 60.6908 7.77876C68.7192 10.4718 75.7229 15.5259 80.778 22.2582C81.108 22.6977 81.7275 22.8043 82.177 22.4881L84.3218 20.9789C84.7757 20.6596 84.8836 20.0309 84.5512 19.5864C78.9301 12.0675 71.1254 6.4234 62.1743 3.42084C52.9033 0.311002 42.8786 0.194475 33.5368 3.08796C24.1951 5.98145 16.0159 11.7364 10.1716 19.528C4.32722 27.3196 1.11776 36.7478 1.00318 46.4614C0.888596 56.175 3.87477 65.6752 9.53371 73.6005C15.1927 81.5258 23.2338 87.4693 32.5048 90.5792C41.7757 93.689 51.8005 93.8055 61.1422 90.912C70.1617 88.1184 78.0975 82.6572 83.8944 75.271ZM61.747 58.576C62.0978 58.1458 61.9946 57.515 61.5436 57.1914L60.1642 56.2016C59.7176 55.8812 59.0988 55.9837 58.7462 56.4052C56.9669 58.5316 54.6152 60.1232 51.9562 60.988C48.9803 61.9558 45.7722 61.9636 42.7916 61.0102C39.811 60.0569 37.211 58.1913 35.3641 55.6809C33.5173 53.1705 32.5185 50.1441 32.5108 47.0356C32.5032 43.927 33.4871 40.8959 35.3215 38.3765C37.156 35.8572 39.7468 33.979 42.7227 33.0112C45.6985 32.0434 48.9067 32.0356 51.8873 32.989C54.5506 33.8409 56.91 35.4211 58.6998 37.5388C59.0545 37.9586 59.6738 38.0581 60.1187 37.7355L61.4932 36.7391C61.9426 36.4133 62.0427 35.782 61.6899 35.3535C59.4353 32.6159 56.4283 30.5752 53.0242 29.4863C49.2985 28.2946 45.2883 28.3043 41.5685 29.5141C37.8487 30.7239 34.6101 33.0716 32.3171 36.2208C30.024 39.3699 28.7941 43.1589 28.8037 47.0446C28.8132 50.9303 30.0618 54.7132 32.3703 57.8512C34.6789 60.9892 37.9289 63.3212 41.6546 64.5129C45.3804 65.7046 49.3905 65.6949 53.1104 64.4851C56.5091 63.3798 59.506 61.3245 61.747 58.576ZM68.9197 62.7648C69.3679 63.0922 69.4651 63.7233 69.1185 64.1568C65.6881 68.448 61.0429 71.6351 55.7696 73.3007C50.1744 75.0679 44.1593 75.0314 38.5863 73.1965C33.0133 71.3615 28.1685 67.8223 24.7464 63.0861C21.3242 58.3498 19.5004 52.6597 19.5363 46.8313C19.5721 41.0029 21.4659 35.3353 24.946 30.6409C28.4262 25.9466 33.3142 22.4664 38.9093 20.6991C44.5045 18.9319 50.5197 18.9684 56.0927 20.8033C61.3451 22.5327 65.9506 25.776 69.328 30.1084C69.6692 30.5461 69.5644 31.1759 69.1123 31.4978L67.3526 32.7507C66.9049 33.0694 66.2855 32.9657 65.9451 32.5342C63.0823 28.9057 59.2005 26.1884 54.7797 24.7328C50.0426 23.1731 44.9298 23.1421 40.1739 24.6442C35.418 26.1464 31.2632 29.1046 28.3051 33.0948C25.3469 37.085 23.7372 41.9024 23.7067 46.8566C23.6763 51.8108 25.2265 56.6474 28.1353 60.6732C31.0442 64.699 35.1622 67.7073 39.8993 69.267C44.6363 70.8267 49.7492 70.8577 54.5051 69.3556C58.9436 67.9537 62.8585 65.2836 65.7658 61.69C66.1114 61.2628 66.732 61.1666 67.1757 61.4908L68.9197 62.7648ZM76.3342 69.9305C76.6816 69.4976 76.5918 68.8658 76.1472 68.5335L74.1954 67.0746C73.7553 66.7455 73.1333 66.8345 72.7879 67.2619C68.6953 72.3271 63.1574 76.0605 56.8882 77.9654C50.3006 79.9672 43.2437 79.8473 36.729 77.623C30.2143 75.3987 24.5761 71.1842 20.6227 65.5835C16.6692 59.9828 14.6034 53.2834 14.7212 46.4456C14.8391 39.6078 17.1347 32.9825 21.2789 27.5194C25.4231 22.0562 31.2032 18.0357 37.7908 16.034C44.3784 14.0323 51.4353 14.1521 57.95 16.3764C64.1498 18.4932 69.5556 22.4124 73.4712 27.6134C73.8018 28.0525 74.4204 28.1627 74.8716 27.8489L76.8729 26.4568C77.3285 26.1399 77.4399 25.5116 77.1076 25.0671C72.6524 19.1084 66.4807 14.6191 59.3969 12.2005C51.9938 9.67293 43.9746 9.53669 36.4887 11.8114C29.0028 14.086 22.4345 18.6548 17.7252 24.8629C13.0158 31.0711 10.4073 38.5998 10.2733 46.37C10.1393 54.1403 12.4869 61.7532 16.9795 68.1176C21.472 74.482 27.879 79.2713 35.2821 81.7989C42.6852 84.3265 50.7044 84.4627 58.1903 82.188C65.3533 80.0115 71.6762 75.7344 76.3342 69.9305Z"
          fill-rule="evenodd"/>
    <rect fill="white" height="94" width="86"/>
  </mask>
  <path
    d="M36.7934 46.8964C36.7934 44.8512 37.2542 43.0165 38.1758 41.3924C39.0975 39.7482 40.3497 38.465 41.9325 37.5426C43.5354 36.6203 45.3086 36.1591 47.252 36.1591C49.5361 36.1591 51.5297 36.7105 53.2327 37.8133C54.9358 38.9161 56.178 40.4801 56.9594 42.5052H53.6835C53.1025 41.242 52.261 40.2695 51.159 39.5878C50.0771 38.9061 48.7748 38.5652 47.252 38.5652C45.7894 38.5652 44.4771 38.9061 43.315 39.5878C42.1529 40.2695 41.2413 41.242 40.5801 42.5052C39.919 43.7484 39.5884 45.2121 39.5884 46.8964C39.5884 48.5606 39.919 50.0243 40.5801 51.2876C41.2413 52.5307 42.1529 53.4932 43.315 54.1749C44.4771 54.8566 45.7894 55.1975 47.252 55.1975C48.7748 55.1975 50.0771 54.8666 51.159 54.205C52.261 53.5232 53.1025 52.5508 53.6835 51.2876H56.9594C56.178 53.2926 54.9358 54.8466 53.2327 55.9494C51.5297 57.0322 49.5361 57.5735 47.252 57.5735C45.3086 57.5735 43.5354 57.1224 41.9325 56.2201C40.3497 55.2977 39.0975 54.0245 38.1758 52.4004C37.2542 50.7763 36.7934 48.9416 36.7934 46.8964Z"
    fill="#227D2C"/>
  <path
    d="M61.247 47.4389C61.247 45.7546 61.5876 44.2808 62.2688 43.0176C62.95 41.7344 63.8817 40.7418 65.0638 40.0401C66.2659 39.3383 67.5983 38.9874 69.0609 38.9874C70.5035 38.9874 71.7557 39.2982 72.8176 39.9198C73.8795 40.5413 74.671 41.3233 75.1919 42.2657V39.2581H77.9568V55.74H75.1919V52.6722C74.6509 53.6346 73.8395 54.4367 72.7575 55.0783C71.6956 55.6999 70.4534 56.0107 69.0309 56.0107C67.5683 56.0107 66.2459 55.6497 65.0638 54.9279C63.8817 54.2061 62.95 53.1935 62.2688 51.8902C61.5876 50.5869 61.247 49.1031 61.247 47.4389ZM75.1919 47.4689C75.1919 46.2258 74.9414 45.143 74.4405 44.2207C73.9396 43.2983 73.2584 42.5966 72.3969 42.1153C71.5554 41.6141 70.6237 41.3634 69.6019 41.3634C68.5801 41.3634 67.6484 41.604 66.8069 42.0853C65.9654 42.5665 65.2942 43.2683 64.7933 44.1906C64.2924 45.113 64.042 46.1957 64.042 47.4389C64.042 48.7021 64.2924 49.8049 64.7933 50.7473C65.2942 51.6696 65.9654 52.3814 66.8069 52.8827C67.6484 53.3639 68.5801 53.6045 69.6019 53.6045C70.6237 53.6045 71.5554 53.3639 72.3969 52.8827C73.2584 52.3814 73.9396 51.6696 74.4405 50.7473C74.9414 49.8049 75.1919 48.7121 75.1919 47.4689Z"
    fill="#227D2C"/>
  <path
    d="M85.3134 41.9349C85.7942 40.9925 86.4755 40.2606 87.357 39.7393C88.2586 39.218 89.3506 38.9573 90.6329 38.9573V41.7845H89.9116C86.8461 41.7845 85.3134 43.4487 85.3134 46.7772V55.74H82.5785V39.2581H85.3134V41.9349Z"
    fill="#227D2C"/>
  <path
    d="M108.817 46.8674C108.817 47.3887 108.787 47.9401 108.727 48.5216H95.5631C95.6633 50.1457 96.2143 51.419 97.2161 52.3413C98.2379 53.2436 99.4701 53.6948 100.913 53.6948C102.095 53.6948 103.077 53.4241 103.858 52.8827C104.659 52.3213 105.22 51.5794 105.541 50.657H108.486C108.045 52.2411 107.164 53.5344 105.841 54.5369C104.519 55.5194 102.876 56.0107 100.913 56.0107C99.3499 56.0107 97.9474 55.6598 96.7051 54.958C95.483 54.2562 94.5212 53.2637 93.82 51.9804C93.1187 50.6771 92.7681 49.1733 92.7681 47.4689C92.7681 45.7646 93.1087 44.2708 93.7899 42.9876C94.4711 41.7043 95.4228 40.7218 96.645 40.0401C97.8872 39.3383 99.3098 38.9874 100.913 38.9874C102.475 38.9874 103.858 39.3283 105.06 40.01C106.262 40.6917 107.184 41.6341 107.825 42.8372C108.486 44.0202 108.817 45.3636 108.817 46.8674ZM105.992 46.296C105.992 45.2533 105.761 44.361 105.3 43.6192C104.84 42.8572 104.209 42.2858 103.407 41.9048C102.626 41.5038 101.754 41.3033 100.792 41.3033C99.41 41.3033 98.2279 41.7444 97.2461 42.6266C96.2844 43.5089 95.7334 44.732 95.5932 46.296H105.992Z"
    fill="#227D2C"/>
  <path d="M115.162 33.4834V55.74H112.427V33.4834H115.162Z" fill="#227D2C"/>
  <path
    d="M134.008 39.2581L124.09 63.4997H121.265L124.511 55.5595L117.869 39.2581H120.905L126.074 52.612L131.183 39.2581H134.008Z"
    fill="#227D2C"/>
  <path
    d="M143.94 56.0107C142.397 56.0107 140.995 55.6598 139.733 54.958C138.49 54.2562 137.509 53.2637 136.787 51.9804C136.086 50.6771 135.735 49.1733 135.735 47.4689C135.735 45.7847 136.096 44.3009 136.817 43.0176C137.559 41.7143 138.561 40.7218 139.823 40.0401C141.085 39.3383 142.498 38.9874 144.06 38.9874C145.623 38.9874 147.036 39.3383 148.298 40.0401C149.56 40.7218 150.552 41.7043 151.273 42.9876C152.015 44.2708 152.385 45.7646 152.385 47.4689C152.385 49.1733 152.005 50.6771 151.243 51.9804C150.502 53.2637 149.49 54.2562 148.208 54.958C146.925 55.6598 145.503 56.0107 143.94 56.0107ZM143.94 53.6045C144.922 53.6045 145.844 53.374 146.705 52.9128C147.567 52.4516 148.258 51.7599 148.779 50.8375C149.32 49.9152 149.59 48.7923 149.59 47.4689C149.59 46.1456 149.33 45.0227 148.809 44.1004C148.288 43.178 147.607 42.4963 146.765 42.0552C145.924 41.594 145.012 41.3634 144.03 41.3634C143.028 41.3634 142.107 41.594 141.265 42.0552C140.444 42.4963 139.783 43.178 139.282 44.1004C138.781 45.0227 138.53 46.1456 138.53 47.4689C138.53 48.8124 138.771 49.9452 139.252 50.8676C139.753 51.7899 140.414 52.4817 141.235 52.9429C142.057 53.384 142.958 53.6045 143.94 53.6045Z"
    fill="#227D2C"/>
  <path
    d="M36.7934 46.8964C36.7934 44.8512 37.2542 43.0165 38.1758 41.3924C39.0975 39.7482 40.3497 38.465 41.9325 37.5426C43.5354 36.6203 45.3086 36.1591 47.252 36.1591C49.5361 36.1591 51.5297 36.7105 53.2327 37.8133C54.9358 38.9161 56.178 40.4801 56.9594 42.5052H53.6835C53.1025 41.242 52.261 40.2695 51.159 39.5878C50.0771 38.9061 48.7748 38.5652 47.252 38.5652C45.7894 38.5652 44.4771 38.9061 43.315 39.5878C42.1529 40.2695 41.2413 41.242 40.5801 42.5052C39.919 43.7484 39.5884 45.2121 39.5884 46.8964C39.5884 48.5606 39.919 50.0243 40.5801 51.2876C41.2413 52.5307 42.1529 53.4932 43.315 54.1749C44.4771 54.8566 45.7894 55.1975 47.252 55.1975C48.7748 55.1975 50.0771 54.8666 51.159 54.205C52.261 53.5232 53.1025 52.5508 53.6835 51.2876H56.9594C56.178 53.2926 54.9358 54.8466 53.2327 55.9494C51.5297 57.0322 49.5361 57.5735 47.252 57.5735C45.3086 57.5735 43.5354 57.1224 41.9325 56.2201C40.3497 55.2977 39.0975 54.0245 38.1758 52.4004C37.2542 50.7763 36.7934 48.9416 36.7934 46.8964Z"
    stroke="#227D2C" stroke-width="2"/>
  <path
    d="M61.247 47.4389C61.247 45.7546 61.5876 44.2808 62.2688 43.0176C62.95 41.7344 63.8817 40.7418 65.0638 40.0401C66.2659 39.3383 67.5983 38.9874 69.0609 38.9874C70.5035 38.9874 71.7557 39.2982 72.8176 39.9198C73.8795 40.5413 74.671 41.3233 75.1919 42.2657V39.2581H77.9568V55.74H75.1919V52.6722C74.6509 53.6346 73.8395 54.4367 72.7575 55.0783C71.6956 55.6999 70.4534 56.0107 69.0309 56.0107C67.5683 56.0107 66.2459 55.6497 65.0638 54.9279C63.8817 54.2061 62.95 53.1935 62.2688 51.8902C61.5876 50.5869 61.247 49.1031 61.247 47.4389ZM75.1919 47.4689C75.1919 46.2258 74.9414 45.143 74.4405 44.2207C73.9396 43.2983 73.2584 42.5966 72.3969 42.1153C71.5554 41.6141 70.6237 41.3634 69.6019 41.3634C68.5801 41.3634 67.6484 41.604 66.8069 42.0853C65.9654 42.5665 65.2942 43.2683 64.7933 44.1906C64.2924 45.113 64.042 46.1957 64.042 47.4389C64.042 48.7021 64.2924 49.8049 64.7933 50.7473C65.2942 51.6696 65.9654 52.3814 66.8069 52.8827C67.6484 53.3639 68.5801 53.6045 69.6019 53.6045C70.6237 53.6045 71.5554 53.3639 72.3969 52.8827C73.2584 52.3814 73.9396 51.6696 74.4405 50.7473C74.9414 49.8049 75.1919 48.7121 75.1919 47.4689Z"
    stroke="#227D2C" stroke-width="1.25"/>
  <path
    d="M85.3134 41.9349C85.7942 40.9925 86.4755 40.2606 87.357 39.7393C88.2586 39.218 89.3506 38.9573 90.6329 38.9573V41.7845H89.9116C86.8461 41.7845 85.3134 43.4487 85.3134 46.7772V55.74H82.5785V39.2581H85.3134V41.9349Z"
    stroke="#227D2C" stroke-width="1.25"/>
  <path
    d="M108.817 46.8674C108.817 47.3887 108.787 47.9401 108.727 48.5216H95.5631C95.6633 50.1457 96.2143 51.419 97.2161 52.3413C98.2379 53.2436 99.4701 53.6948 100.913 53.6948C102.095 53.6948 103.077 53.4241 103.858 52.8827C104.659 52.3213 105.22 51.5794 105.541 50.657H108.486C108.045 52.2411 107.164 53.5344 105.841 54.5369C104.519 55.5194 102.876 56.0107 100.913 56.0107C99.3499 56.0107 97.9474 55.6598 96.7051 54.958C95.483 54.2562 94.5212 53.2637 93.82 51.9804C93.1187 50.6771 92.7681 49.1733 92.7681 47.4689C92.7681 45.7646 93.1087 44.2708 93.7899 42.9876C94.4711 41.7043 95.4228 40.7218 96.645 40.0401C97.8872 39.3383 99.3098 38.9874 100.913 38.9874C102.475 38.9874 103.858 39.3283 105.06 40.01C106.262 40.6917 107.184 41.6341 107.825 42.8372C108.486 44.0202 108.817 45.3636 108.817 46.8674ZM105.992 46.296C105.992 45.2533 105.761 44.361 105.3 43.6192C104.84 42.8572 104.209 42.2858 103.407 41.9048C102.626 41.5038 101.754 41.3033 100.792 41.3033C99.41 41.3033 98.2279 41.7444 97.2461 42.6266C96.2844 43.5089 95.7334 44.732 95.5932 46.296H105.992Z"
    stroke="#227D2C" stroke-width="1.25"/>
  <path d="M115.162 33.4834V55.74H112.427V33.4834H115.162Z" stroke="#227D2C" stroke-width="1.25"/>
  <path
    d="M134.008 39.2581L124.09 63.4997H121.265L124.511 55.5595L117.869 39.2581H120.905L126.074 52.612L131.183 39.2581H134.008Z"
    stroke="#227D2C" stroke-width="1.25"/>
  <path
    d="M143.94 56.0107C142.397 56.0107 140.995 55.6598 139.733 54.958C138.49 54.2562 137.509 53.2637 136.787 51.9804C136.086 50.6771 135.735 49.1733 135.735 47.4689C135.735 45.7847 136.096 44.3009 136.817 43.0176C137.559 41.7143 138.561 40.7218 139.823 40.0401C141.085 39.3383 142.498 38.9874 144.06 38.9874C145.623 38.9874 147.036 39.3383 148.298 40.0401C149.56 40.7218 150.552 41.7043 151.273 42.9876C152.015 44.2708 152.385 45.7646 152.385 47.4689C152.385 49.1733 152.005 50.6771 151.243 51.9804C150.502 53.2637 149.49 54.2562 148.208 54.958C146.925 55.6598 145.503 56.0107 143.94 56.0107ZM143.94 53.6045C144.922 53.6045 145.844 53.374 146.705 52.9128C147.567 52.4516 148.258 51.7599 148.779 50.8375C149.32 49.9152 149.59 48.7923 149.59 47.4689C149.59 46.1456 149.33 45.0227 148.809 44.1004C148.288 43.178 147.607 42.4963 146.765 42.0552C145.924 41.594 145.012 41.3634 144.03 41.3634C143.028 41.3634 142.107 41.594 141.265 42.0552C140.444 42.4963 139.783 43.178 139.282 44.1004C138.781 45.0227 138.53 46.1456 138.53 47.4689C138.53 48.8124 138.771 49.9452 139.252 50.8676C139.753 51.7899 140.414 52.4817 141.235 52.9429C142.057 53.384 142.958 53.6045 143.94 53.6045Z"
    stroke="#227D2C" stroke-width="1.25"/>
  <path clip-rule="evenodd"
        d="M83.8944 75.271C84.2371 74.8344 84.144 74.2033 83.6976 73.8734L81.5892 72.315C81.1473 71.9884 80.5255 72.0804 80.1854 72.512C74.9729 79.1251 67.8518 84.0151 59.762 86.5208C51.3544 89.125 42.3321 89.0201 33.9883 86.2212C25.6444 83.4224 18.4073 78.0733 13.3143 70.9405C8.22125 63.8077 5.53369 55.2575 5.63681 46.5153C5.73994 37.773 8.62845 29.2876 13.8884 22.2752C19.1483 15.2628 26.5095 10.0833 34.9171 7.47917C43.3247 4.87503 52.347 4.9799 60.6908 7.77876C68.7192 10.4718 75.7229 15.5259 80.778 22.2582C81.108 22.6977 81.7275 22.8043 82.177 22.4881L84.3218 20.9789C84.7757 20.6596 84.8836 20.0309 84.5512 19.5864C78.9301 12.0675 71.1254 6.4234 62.1743 3.42084C52.9033 0.311002 42.8786 0.194475 33.5368 3.08796C24.1951 5.98145 16.0159 11.7364 10.1716 19.528C4.32722 27.3196 1.11776 36.7478 1.00318 46.4614C0.888596 56.175 3.87477 65.6752 9.53371 73.6005C15.1927 81.5258 23.2338 87.4693 32.5048 90.5792C41.7757 93.689 51.8005 93.8055 61.1422 90.912C70.1617 88.1184 78.0975 82.6572 83.8944 75.271ZM61.747 58.576C62.0978 58.1458 61.9946 57.515 61.5436 57.1914L60.1642 56.2016C59.7176 55.8812 59.0988 55.9837 58.7462 56.4052C56.9669 58.5316 54.6152 60.1232 51.9562 60.988C48.9803 61.9558 45.7722 61.9636 42.7916 61.0102C39.811 60.0569 37.211 58.1913 35.3641 55.6809C33.5173 53.1705 32.5185 50.1441 32.5108 47.0356C32.5032 43.927 33.4871 40.8959 35.3215 38.3765C37.156 35.8572 39.7468 33.979 42.7227 33.0112C45.6985 32.0434 48.9067 32.0356 51.8873 32.989C54.5506 33.8409 56.91 35.4211 58.6998 37.5388C59.0545 37.9586 59.6738 38.0581 60.1187 37.7355L61.4932 36.7391C61.9426 36.4133 62.0427 35.782 61.6899 35.3535C59.4353 32.6159 56.4283 30.5752 53.0242 29.4863C49.2985 28.2946 45.2883 28.3043 41.5685 29.5141C37.8487 30.7239 34.6101 33.0716 32.3171 36.2208C30.024 39.3699 28.7941 43.1589 28.8037 47.0446C28.8132 50.9303 30.0618 54.7132 32.3703 57.8512C34.6789 60.9892 37.9289 63.3212 41.6546 64.5129C45.3804 65.7046 49.3905 65.6949 53.1104 64.4851C56.5091 63.3798 59.506 61.3245 61.747 58.576ZM68.9197 62.7648C69.3679 63.0922 69.4651 63.7233 69.1185 64.1568C65.6881 68.448 61.0429 71.6351 55.7696 73.3007C50.1744 75.0679 44.1593 75.0314 38.5863 73.1965C33.0133 71.3615 28.1685 67.8223 24.7464 63.0861C21.3242 58.3498 19.5004 52.6597 19.5363 46.8313C19.5721 41.0029 21.4659 35.3353 24.946 30.6409C28.4262 25.9466 33.3142 22.4664 38.9093 20.6991C44.5045 18.9319 50.5197 18.9684 56.0927 20.8033C61.3451 22.5327 65.9506 25.776 69.328 30.1084C69.6692 30.5461 69.5644 31.1759 69.1123 31.4978L67.3526 32.7507C66.9049 33.0694 66.2855 32.9657 65.9451 32.5342C63.0823 28.9057 59.2005 26.1884 54.7797 24.7328C50.0426 23.1731 44.9298 23.1421 40.1739 24.6442C35.418 26.1464 31.2632 29.1046 28.3051 33.0948C25.3469 37.085 23.7372 41.9024 23.7067 46.8566C23.6763 51.8108 25.2265 56.6474 28.1353 60.6732C31.0442 64.699 35.1622 67.7073 39.8993 69.267C44.6363 70.8267 49.7492 70.8577 54.5051 69.3556C58.9436 67.9537 62.8585 65.2836 65.7658 61.69C66.1114 61.2628 66.732 61.1666 67.1757 61.4908L68.9197 62.7648ZM76.3342 69.9305C76.6816 69.4976 76.5918 68.8658 76.1472 68.5335L74.1954 67.0746C73.7553 66.7455 73.1333 66.8345 72.7879 67.2619C68.6953 72.3271 63.1574 76.0605 56.8882 77.9654C50.3006 79.9672 43.2437 79.8473 36.729 77.623C30.2143 75.3987 24.5761 71.1842 20.6227 65.5835C16.6692 59.9828 14.6034 53.2834 14.7212 46.4456C14.8391 39.6078 17.1347 32.9825 21.2789 27.5194C25.4231 22.0562 31.2032 18.0357 37.7908 16.034C44.3784 14.0323 51.4353 14.1521 57.95 16.3764C64.1498 18.4932 69.5556 22.4124 73.4712 27.6134C73.8018 28.0525 74.4204 28.1627 74.8716 27.8489L76.8729 26.4568C77.3285 26.1399 77.4399 25.5116 77.1076 25.0671C72.6524 19.1084 66.4807 14.6191 59.3969 12.2005C51.9938 9.67293 43.9746 9.53669 36.4887 11.8114C29.0028 14.086 22.4345 18.6548 17.7252 24.8629C13.0158 31.0711 10.4073 38.5998 10.2733 46.37C10.1393 54.1403 12.4869 61.7532 16.9795 68.1176C21.472 74.482 27.879 79.2713 35.2821 81.7989C42.6852 84.3265 50.7044 84.4627 58.1903 82.188C65.3533 80.0115 71.6762 75.7344 76.3342 69.9305Z"
        fill="#227D2C"
        fill-rule="evenodd"/>
  <path
    d="M83.6976 73.8734L83.1032 74.6776L83.1033 74.6776L83.6976 73.8734ZM83.8944 75.271L84.6811 75.8884L84.6811 75.8884L83.8944 75.271ZM81.5892 72.315L82.1836 71.5108L82.1836 71.5108L81.5892 72.315ZM80.1854 72.512L79.4 71.893L79.4 71.893L80.1854 72.512ZM59.762 86.5208L60.0578 87.4761L60.0578 87.4761L59.762 86.5208ZM13.3143 70.9405L12.5005 71.5216L12.5005 71.5216L13.3143 70.9405ZM5.63681 46.5153L6.63674 46.5271L6.63674 46.5271L5.63681 46.5153ZM13.8884 22.2752L14.6883 22.8752L14.6883 22.8752L13.8884 22.2752ZM34.9171 7.47917L34.6212 6.52394L34.6212 6.52394L34.9171 7.47917ZM60.6908 7.77876L60.3728 8.72684L60.6908 7.77876ZM80.778 22.2582L81.5777 21.6578L81.5777 21.6578L80.778 22.2582ZM82.177 22.4881L82.7524 23.3059L82.7524 23.3059L82.177 22.4881ZM84.3218 20.9789L84.8973 21.7968L84.8973 21.7968L84.3218 20.9789ZM84.5512 19.5864L83.7503 20.1852L83.7503 20.1852L84.5512 19.5864ZM62.1743 3.42084L61.8563 4.36892L61.8563 4.36892L62.1743 3.42084ZM33.5368 3.08796L33.241 2.13273L33.5368 3.08796ZM10.1716 19.528L9.37159 18.9279L9.37159 18.9279L10.1716 19.528ZM1.00318 46.4614L2.00311 46.4732L1.00318 46.4614ZM9.53371 73.6005L10.3475 73.0194L10.3475 73.0194L9.53371 73.6005ZM32.5048 90.5792L32.8228 89.6311L32.8228 89.6311L32.5048 90.5792ZM61.1422 90.912L61.4381 91.8673L61.4381 91.8673L61.1422 90.912ZM61.5436 57.1914L62.1266 56.3789L62.1266 56.3789L61.5436 57.1914ZM61.747 58.576L62.5221 59.2079L62.5221 59.2079L61.747 58.576ZM60.1642 56.2016L59.5812 57.0141L59.5812 57.0141L60.1642 56.2016ZM58.7462 56.4052L59.5131 57.0469L59.5131 57.0469L58.7462 56.4052ZM51.9562 60.988L51.6469 60.037L51.6469 60.037L51.9562 60.988ZM42.7916 61.0102L42.4869 61.9627L42.487 61.9627L42.7916 61.0102ZM35.3641 55.6809L36.1696 55.0883L36.1696 55.0883L35.3641 55.6809ZM32.5108 47.0356L33.5108 47.0331L33.5108 47.0331L32.5108 47.0356ZM35.3215 38.3765L34.5131 37.7879L34.5131 37.7879L35.3215 38.3765ZM42.7227 33.0112L43.032 33.9622L43.032 33.9622L42.7227 33.0112ZM51.8873 32.989L51.5826 33.9414L51.5826 33.9414L51.8873 32.989ZM58.6998 37.5388L59.4635 36.8934L59.4635 36.8934L58.6998 37.5388ZM60.1187 37.7355L59.5318 36.9259L59.5318 36.9259L60.1187 37.7355ZM61.4932 36.7391L62.0802 37.5487L62.0802 37.5487L61.4932 36.7391ZM61.6899 35.3535L60.918 35.9892L60.918 35.9892L61.6899 35.3535ZM53.0242 29.4863L53.3289 28.5339L53.3289 28.5339L53.0242 29.4863ZM41.5685 29.5141L41.2592 28.5631L41.2592 28.5631L41.5685 29.5141ZM32.3171 36.2208L33.1255 36.8094L33.1255 36.8094L32.3171 36.2208ZM28.8037 47.0446L27.8037 47.047L28.8037 47.0446ZM32.3703 57.8512L33.1758 57.2586L33.1758 57.2586L32.3703 57.8512ZM41.6546 64.5129L41.35 65.4654L41.35 65.4654L41.6546 64.5129ZM53.1104 64.4851L53.4196 65.4361L53.4197 65.4361L53.1104 64.4851ZM69.1185 64.1568L69.8996 64.7812L69.8996 64.7812L69.1185 64.1568ZM68.9197 62.7648L68.3298 63.5723L68.3298 63.5723L68.9197 62.7648ZM55.7696 73.3007L55.4684 72.3471L55.4684 72.3471L55.7696 73.3007ZM38.5863 73.1965L38.2735 74.1463L38.2735 74.1463L38.5863 73.1965ZM24.7464 63.0861L23.9358 63.6717L23.9358 63.6717L24.7464 63.0861ZM24.946 30.6409L24.1427 30.0454L24.1427 30.0454L24.946 30.6409ZM56.0927 20.8033L56.4054 19.8535L56.4054 19.8535L56.0927 20.8033ZM69.328 30.1084L70.1167 29.4936L70.1167 29.4936L69.328 30.1084ZM69.1123 31.4978L68.5323 30.6832L68.5323 30.6832L69.1123 31.4978ZM67.3526 32.7507L66.7726 31.9361L66.7726 31.9361L67.3526 32.7507ZM65.9451 32.5342L65.1601 33.1536L65.1601 33.1536L65.9451 32.5342ZM54.7797 24.7328L55.0924 23.783L55.0924 23.783L54.7797 24.7328ZM40.1739 24.6442L39.8727 23.6907L39.8727 23.6907L40.1739 24.6442ZM23.7067 46.8566L24.7067 46.8628L23.7067 46.8566ZM39.8993 69.267L39.5865 70.2168L39.5865 70.2168L39.8993 69.267ZM54.5051 69.3556L54.2039 68.402L54.2039 68.402L54.5051 69.3556ZM65.7658 61.69L66.5432 62.319L66.5432 62.319L65.7658 61.69ZM67.1757 61.4908L67.7656 60.6833L67.7656 60.6833L67.1757 61.4908ZM76.1472 68.5335L75.5485 69.3345L75.5485 69.3345L76.1472 68.5335ZM76.3342 69.9305L75.5543 69.3046L75.5543 69.3046L76.3342 69.9305ZM74.1954 67.0746L74.7941 66.2736L74.7941 66.2736L74.1954 67.0746ZM72.7879 67.2619L72.0101 66.6335L72.0101 66.6335L72.7879 67.2619ZM56.8882 77.9654L57.1789 78.9223L57.1789 78.9223L56.8882 77.9654ZM14.7212 46.4456L13.7214 46.4283L13.7214 46.4283L14.7212 46.4456ZM37.7908 16.034L37.5001 15.0772L37.5001 15.0772L37.7908 16.034ZM57.95 16.3764L57.6269 17.3228L57.6269 17.3228L57.95 16.3764ZM73.4712 27.6134L74.2701 27.012L74.2701 27.012L73.4712 27.6134ZM74.8716 27.8489L75.4426 28.6698L75.4426 28.6698L74.8716 27.8489ZM76.8729 26.4568L77.4439 27.2777L77.4439 27.2777L76.8729 26.4568ZM77.1076 25.0671L76.3067 25.6659L76.3067 25.6659L77.1076 25.0671ZM59.3969 12.2005L59.72 11.2542L59.72 11.2542L59.3969 12.2005ZM10.2733 46.37L9.27345 46.3528L9.27345 46.3528L10.2733 46.37ZM16.9795 68.1176L16.1625 68.6943L16.1625 68.6943L16.9795 68.1176ZM35.2821 81.7989L34.959 82.7452L34.959 82.7452L35.2821 81.7989ZM58.1903 82.188L57.8996 81.2312L57.8996 81.2312L58.1903 82.188ZM83.1033 74.6776C83.1048 74.6788 83.104 74.6784 83.1031 74.6768C83.1025 74.6758 83.1021 74.6748 83.102 74.6737C83.1018 74.6724 83.1016 74.6694 83.1028 74.6647C83.1034 74.6622 83.1043 74.6598 83.1054 74.6575C83.1066 74.6552 83.1076 74.6539 83.1078 74.6536L84.6811 75.8884C85.3805 74.9972 85.18 73.7256 84.292 73.0692L83.1033 74.6776ZM80.9948 73.1192L83.1032 74.6776L84.292 73.0692L82.1836 71.5108L80.9948 73.1192ZM80.9707 73.1311C80.9743 73.1265 80.9774 73.1242 80.9801 73.1227C80.9833 73.1209 80.9869 73.1197 80.9904 73.1192C80.9938 73.1187 80.9955 73.1191 80.9951 73.119C80.9941 73.1188 80.9935 73.1182 80.9948 73.1192L82.1836 71.5108C81.2949 70.8539 80.0649 71.0494 79.4 71.893L80.9707 73.1311ZM60.0578 87.4761C68.3404 84.9106 75.6325 79.9037 80.9707 73.1311L79.4 71.893C74.3133 78.3465 67.3631 83.1196 59.4661 85.5656L60.0578 87.4761ZM33.6702 87.1693C42.2129 90.0349 51.4499 90.1422 60.0578 87.4761L59.4661 85.5656C51.2588 88.1077 42.4513 88.0053 34.3063 85.2732L33.6702 87.1693ZM12.5005 71.5216C17.7165 78.8266 25.1275 84.3038 33.6702 87.1693L34.3063 85.2732C26.1614 82.541 19.0982 77.3199 14.1281 70.3594L12.5005 71.5216ZM4.63688 46.5035C4.53125 55.4586 7.28432 64.2164 12.5005 71.5216L14.1281 70.3594C9.15817 63.399 6.53613 55.0563 6.63674 46.5271L4.63688 46.5035ZM13.0884 21.6752C7.70142 28.857 4.74252 37.5483 4.63688 46.5035L6.63674 46.5271C6.73736 37.9978 9.55547 29.7183 14.6883 22.8752L13.0884 21.6752ZM34.6212 6.52394C26.0133 9.19014 18.4753 14.4934 13.0884 21.6752L14.6883 22.8752C19.8213 16.0321 27.0058 10.9765 35.213 8.4344L34.6212 6.52394ZM61.0088 6.83067C52.4661 3.96512 43.2291 3.85776 34.6212 6.52394L35.213 8.4344C43.4203 5.8923 52.2278 5.99469 60.3728 8.72684L61.0088 6.83067ZM81.5777 21.6578C76.4006 14.763 69.2286 9.58792 61.0088 6.83067L60.3728 8.72684C68.2098 11.3557 75.0453 16.2889 79.9783 22.8587L81.5777 21.6578ZM81.6015 21.6702C81.6002 21.6712 81.6007 21.6706 81.6018 21.6704C81.6021 21.6703 81.6005 21.6707 81.5971 21.6702C81.5936 21.6696 81.59 21.6683 81.5868 21.6664C81.5841 21.6648 81.5811 21.6624 81.5777 21.6578L79.9783 22.8587C80.6233 23.7177 81.8484 23.9419 82.7524 23.3059L81.6015 21.6702ZM83.7464 20.1611L81.6015 21.6702L82.7524 23.3059L84.8973 21.7968L83.7464 20.1611ZM83.7503 20.1852C83.7501 20.1849 83.7492 20.1835 83.7481 20.1812C83.747 20.1789 83.7462 20.1764 83.7456 20.174C83.7445 20.1693 83.7448 20.1662 83.745 20.165C83.7452 20.1638 83.7455 20.1629 83.7462 20.1619C83.7472 20.1603 83.748 20.16 83.7464 20.1611L84.8973 21.7968C85.8003 21.1614 86.0305 19.895 85.3522 18.9876L83.7503 20.1852ZM61.8563 4.36892C70.6153 7.30705 78.2514 12.8296 83.7503 20.1852L85.3522 18.9876C79.6089 11.3053 71.6355 5.53974 62.4923 2.47276L61.8563 4.36892ZM33.8327 4.04319C42.9742 1.21174 52.7842 1.32578 61.8563 4.36892L62.4923 2.47276C53.0225 -0.70378 42.783 -0.822792 33.241 2.13273L33.8327 4.04319ZM10.9715 20.128C16.6889 12.5057 24.6913 6.87461 33.8327 4.04319L33.241 2.13273C23.6988 5.08828 15.3429 10.9671 9.37159 18.9279L10.9715 20.128ZM2.00311 46.4732C2.11518 36.9726 5.25424 27.7502 10.9715 20.128L9.37159 18.9279C3.40019 26.8889 0.120342 36.5231 0.00324787 46.4496L2.00311 46.4732ZM10.3475 73.0194C4.8117 65.2665 1.89104 55.9738 2.00311 46.4732L0.00324787 46.4496C-0.113846 56.3761 2.93785 66.0839 8.71988 74.1816L10.3475 73.0194ZM32.8228 89.6311C23.7508 86.588 15.8835 80.7725 10.3475 73.0194L8.71988 74.1816C14.5018 82.2792 22.7169 88.3507 32.1868 91.5272L32.8228 89.6311ZM60.8464 89.9568C51.7049 92.7883 41.8949 92.6742 32.8228 89.6311L32.1868 91.5272C41.6565 94.7038 51.896 94.8228 61.4381 91.8673L60.8464 89.9568ZM83.1078 74.6536C77.4367 81.8794 69.6724 87.2231 60.8464 89.9568L61.4381 91.8673C70.6511 89.0137 78.7583 83.435 84.6811 75.8884L83.1078 74.6536ZM60.9606 58.0039C60.9625 58.0052 60.9586 58.0027 60.9573 57.9941C60.9566 57.9895 60.9564 57.9814 60.9592 57.9707C60.9622 57.9589 60.9677 57.9493 60.972 57.944L62.5221 59.2079C63.2601 58.3028 63.0159 57.017 62.1266 56.3789L60.9606 58.0039ZM59.5812 57.0141L60.9606 58.0039L62.1266 56.3789L60.7471 55.3891L59.5812 57.0141ZM59.5131 57.0469C59.5298 57.0269 59.5512 57.0167 59.5686 57.0141C59.5764 57.0129 59.5806 57.0138 59.5811 57.0139C59.5813 57.0139 59.5811 57.0139 59.5806 57.0137C59.5801 57.0134 59.5802 57.0134 59.5812 57.0141L60.7471 55.3891C59.8413 54.7391 58.6402 54.9735 57.9792 55.7635L59.5131 57.0469ZM52.2655 61.939C55.1028 61.0162 57.6131 59.3176 59.5131 57.0469L57.9792 55.7635C56.3206 57.7457 54.1277 59.2302 51.6469 60.037L52.2655 61.939ZM42.487 61.9627C45.6673 62.98 49.0902 62.9717 52.2655 61.939L51.6469 60.037C48.8705 60.94 45.8771 60.9473 43.0963 60.0578L42.487 61.9627ZM34.5586 56.2735C36.5309 58.9544 39.3066 60.9454 42.4869 61.9627L43.0963 60.0578C40.3155 59.1683 37.8911 57.4282 36.1696 55.0883L34.5586 56.2735ZM31.5108 47.038C31.519 50.3595 32.5863 53.5925 34.5586 56.2735L36.1696 55.0883C34.4483 52.7485 33.518 49.9287 33.5108 47.0331L31.5108 47.038ZM34.5131 37.7879C32.554 40.4785 31.5027 43.7165 31.5108 47.038L33.5108 47.0331C33.5037 44.1375 34.4202 41.3133 36.1299 38.9652L34.5131 37.7879ZM42.4134 32.0602C39.238 33.0929 36.4722 35.0975 34.5131 37.7879L36.1299 38.9652C37.8398 36.6169 40.2556 34.8651 43.032 33.9622L42.4134 32.0602ZM52.1919 32.0365C49.0116 31.0193 45.5887 31.0276 42.4134 32.0602L43.032 33.9622C45.8084 33.0592 48.8018 33.052 51.5826 33.9414L52.1919 32.0365ZM59.4635 36.8934C57.5524 34.632 55.0338 32.9455 52.1919 32.0365L51.5826 33.9414C54.0673 34.7362 56.2676 36.2102 57.936 38.1843L59.4635 36.8934ZM59.5318 36.9259C59.5308 36.9265 59.5307 36.9265 59.5312 36.9263C59.5317 36.9261 59.5319 36.926 59.5317 36.9261C59.5312 36.9262 59.527 36.9271 59.5192 36.9259C59.5018 36.9234 59.4804 36.9133 59.4635 36.8934L57.936 38.1843C58.6008 38.971 59.803 39.1995 60.7056 38.5451L59.5318 36.9259ZM60.9063 35.9294L59.5318 36.9259L60.7056 38.5451L62.0802 37.5487L60.9063 35.9294ZM60.918 35.9892C60.9136 35.984 60.9081 35.9744 60.905 35.9626C60.9021 35.9519 60.9024 35.9438 60.903 35.9392C60.9043 35.9307 60.9081 35.9281 60.9063 35.9294L62.0802 37.5487C62.9664 36.9063 63.2042 35.6193 62.4618 34.7178L60.918 35.9892ZM52.7196 30.4388C55.9411 31.4692 58.7857 33.4001 60.918 35.9892L62.4618 34.7178C60.0849 31.8316 56.9156 29.6811 53.3289 28.5339L52.7196 30.4388ZM41.8778 30.4651C45.3982 29.3202 49.1936 29.311 52.7196 30.4388L53.3289 28.5339C49.4034 27.2783 45.1785 27.2885 41.2592 28.5631L41.8778 30.4651ZM33.1255 36.8094C35.294 33.8313 38.3575 31.61 41.8778 30.4651L41.2592 28.5631C37.3399 29.8378 33.9263 32.3119 31.5087 35.6321L33.1255 36.8094ZM29.8037 47.0421C29.7946 43.3694 30.9571 39.7874 33.1255 36.8094L31.5087 35.6321C29.0909 38.9525 27.7936 42.9484 27.8037 47.047L29.8037 47.0421ZM33.1758 57.2586C30.9928 54.2912 29.8127 50.7148 29.8037 47.0421L27.8037 47.047C27.8138 51.1457 29.1308 55.1352 31.5648 58.4438L33.1758 57.2586ZM41.9593 63.5604C38.4334 62.4326 35.359 60.2261 33.1758 57.2586L31.5648 58.4438C33.9988 61.7523 37.4244 64.2097 41.35 65.4654L41.9593 63.5604ZM52.8011 63.5341C49.2807 64.679 45.4853 64.6883 41.9593 63.5604L41.35 65.4654C45.2755 66.721 49.5004 66.7107 53.4196 65.4361L52.8011 63.5341ZM60.972 57.944C58.8526 60.5434 56.0175 62.4881 52.8011 63.5341L53.4197 65.4361C57.0006 64.2715 60.1594 62.1056 62.5221 59.2079L60.972 57.944ZM69.8996 64.7812C70.6167 63.8842 70.3979 62.6063 69.5096 61.9573L68.3298 63.5723C68.3315 63.5735 68.3306 63.5732 68.3295 63.5714C68.3288 63.5701 68.3281 63.5684 68.3277 63.5658C68.3273 63.5631 68.3271 63.5578 68.329 63.5504C68.3311 63.5421 68.335 63.5355 68.3374 63.5324L69.8996 64.7812ZM56.0708 74.2542C61.5327 72.5291 66.345 69.2277 69.8996 64.7812L68.3374 63.5324C65.0311 67.6682 60.5532 70.7411 55.4684 72.3471L56.0708 74.2542ZM38.2735 74.1463C44.0457 76.0469 50.2757 76.0846 56.0708 74.2542L55.4684 72.3471C50.0732 74.0512 44.2728 74.016 38.899 72.2466L38.2735 74.1463ZM23.9358 63.6717C27.4819 68.5795 32.5013 72.2458 38.2735 74.1463L38.899 72.2466C33.5253 70.4773 28.8551 67.0651 25.5569 62.5004L23.9358 63.6717ZM18.5363 46.8252C18.4991 52.8665 20.3896 58.7638 23.9358 63.6717L25.5569 62.5004C22.2588 57.9359 20.5017 52.4529 20.5363 46.8375L18.5363 46.8252ZM24.1427 30.0454C20.5364 34.9099 18.5735 40.7838 18.5363 46.8252L20.5363 46.8375C20.5708 41.222 22.3953 35.7607 25.7494 31.2365L24.1427 30.0454ZM38.6082 19.7456C32.813 21.576 27.7489 25.181 24.1427 30.0454L25.7494 31.2365C29.1035 26.7121 33.8154 23.3567 39.2105 21.6527L38.6082 19.7456ZM56.4054 19.8535C50.6332 17.953 44.4033 17.9152 38.6082 19.7456L39.2105 21.6527C44.6057 19.9486 50.4061 19.9838 55.7799 21.7532L56.4054 19.8535ZM70.1167 29.4936C66.6171 25.0043 61.8457 21.6447 56.4054 19.8535L55.7799 21.7532C60.8445 23.4207 65.2842 26.5476 68.5393 30.7232L70.1167 29.4936ZM69.6923 32.3124C70.5884 31.6744 70.8227 30.3992 70.1167 29.4936L68.5393 30.7232C68.5369 30.7201 68.5332 30.7134 68.5311 30.7051C68.5293 30.6977 68.5296 30.6924 68.53 30.6897C68.5304 30.6871 68.5312 30.6854 68.5319 30.6841C68.5331 30.6823 68.5339 30.682 68.5323 30.6832L69.6923 32.3124ZM67.9326 33.5653L69.6923 32.3124L68.5323 30.6832L66.7726 31.9361L67.9326 33.5653ZM65.1601 33.1536C65.8139 33.9823 67.0288 34.2088 67.9326 33.5653L66.7726 31.9361C66.7716 31.9368 66.7714 31.9368 66.7719 31.9366C66.772 31.9365 66.7722 31.9364 66.7724 31.9364C66.7726 31.9363 66.7727 31.9363 66.7727 31.9363C66.7726 31.9363 66.7699 31.9369 66.7647 31.936C66.7532 31.9342 66.7404 31.9278 66.7302 31.9148L65.1601 33.1536ZM54.4669 25.6827C58.7018 27.077 62.4191 29.6796 65.1601 33.1536L66.7302 31.9148C63.7454 28.1318 59.6993 25.2998 55.0924 23.783L54.4669 25.6827ZM40.475 25.5978C45.031 24.1588 49.9291 24.1885 54.4669 25.6827L55.0924 23.783C50.1562 22.1577 44.8285 22.1254 39.8727 23.6907L40.475 25.5978ZM29.1084 33.6903C31.9405 29.8701 35.9192 27.0368 40.475 25.5978L39.8727 23.6907C34.9167 25.256 30.5859 28.339 27.5017 32.4992L29.1084 33.6903ZM24.7067 46.8628C24.7359 42.1215 26.2763 37.5104 29.1084 33.6903L27.5017 32.4992C24.4175 36.6596 22.7386 41.6833 22.7068 46.8504L24.7067 46.8628ZM28.9459 60.0875C26.1611 56.2334 24.6776 51.604 24.7067 46.8628L22.7068 46.8504C22.675 52.0176 24.2919 57.0613 27.3248 61.2588L28.9459 60.0875ZM40.212 68.3172C35.6742 66.8231 31.7307 63.9417 28.9459 60.0875L27.3248 61.2588C30.3576 65.4562 34.6502 68.5915 39.5865 70.2168L40.212 68.3172ZM54.2039 68.402C49.648 69.841 44.7499 69.8113 40.212 68.3172L39.5865 70.2168C44.5228 71.8421 49.8504 71.8744 54.8063 70.3091L54.2039 68.402ZM64.9884 61.0611C62.2048 64.5017 58.4557 67.0591 54.2039 68.402L54.8063 70.3091C59.4315 68.8483 63.5122 66.0656 66.5432 62.319L64.9884 61.0611ZM67.7656 60.6833C66.8698 60.0289 65.6522 60.2405 64.9884 61.0611L66.5432 62.319C66.5536 62.3062 66.5664 62.2999 66.5779 62.2982C66.5832 62.2974 66.5859 62.2981 66.5859 62.2981C66.586 62.2981 66.5859 62.298 66.5857 62.298C66.5855 62.2979 66.5853 62.2979 66.5851 62.2978C66.5847 62.2975 66.5849 62.2976 66.5858 62.2983L67.7656 60.6833ZM69.5096 61.9573L67.7656 60.6833L66.5858 62.2983L68.3298 63.5723L69.5096 61.9573ZM75.5485 69.3345C75.55 69.3356 75.5492 69.3353 75.5482 69.3336C75.5476 69.3325 75.5471 69.3312 75.5469 69.3295C75.5466 69.3277 75.5464 69.3239 75.548 69.3182C75.5487 69.3153 75.5498 69.3124 75.5512 69.3096C75.5526 69.3069 75.5539 69.3052 75.5543 69.3046L77.1141 70.5564C77.8268 69.6684 77.6292 68.3928 76.7459 67.7325L75.5485 69.3345ZM73.5967 67.8755L75.5485 69.3345L76.7459 67.7325L74.7941 66.2736L73.5967 67.8755ZM73.5657 67.8904C73.5733 67.8811 73.5822 67.8766 73.591 67.8754C73.5952 67.8749 73.5972 67.8754 73.5969 67.8753C73.596 67.8751 73.5954 67.8746 73.5967 67.8755L74.7941 66.2736C73.9076 65.6109 72.6808 65.8033 72.0101 66.6335L73.5657 67.8904ZM57.1789 78.9223C63.6392 76.9592 69.347 73.1117 73.5657 67.8904L72.0101 66.6335C68.0437 71.5424 62.6757 75.1617 56.5975 77.0086L57.1789 78.9223ZM36.4059 78.5693C43.1191 80.8614 50.3907 80.9849 57.1789 78.9223L56.5975 77.0086C50.2105 78.9494 43.3684 78.8331 37.0521 76.6766L36.4059 78.5693ZM19.8057 66.1601C23.8813 71.9338 29.6926 76.2772 36.4059 78.5693L37.0521 76.6766C30.736 74.5201 25.271 70.4345 21.4396 65.0068L19.8057 66.1601ZM13.7214 46.4283C13.5998 53.4791 15.7301 60.3864 19.8057 66.1601L21.4396 65.0068C17.6083 59.5791 15.6069 53.0877 15.7211 46.4628L13.7214 46.4283ZM20.4822 26.915C16.21 32.5468 13.8429 39.3776 13.7214 46.4283L15.7211 46.4628C15.8353 39.8379 18.0594 33.4182 22.0756 28.1237L20.4822 26.915ZM37.5001 15.0772C30.7118 17.1399 24.7543 21.2833 20.4822 26.915L22.0756 28.1237C26.0919 22.8292 31.6946 18.9315 38.0815 16.9908L37.5001 15.0772ZM58.2731 15.4301C51.5599 13.138 44.2883 13.0145 37.5001 15.0772L38.0815 16.9908C44.4685 15.05 51.3106 15.1663 57.6269 17.3228L58.2731 15.4301ZM74.2701 27.012C70.2337 21.6504 64.6619 17.6114 58.2731 15.4301L57.6269 17.3228C63.6377 19.375 68.8776 23.1744 72.6723 28.2149L74.2701 27.012ZM74.3006 27.0279C74.2993 27.0288 74.2999 27.0283 74.3008 27.0281C74.301 27.0281 74.299 27.0285 74.2949 27.0278C74.2861 27.0263 74.2773 27.0216 74.2701 27.012L72.6723 28.2149C73.3143 29.0676 74.5339 29.3019 75.4426 28.6698L74.3006 27.0279ZM76.3019 25.6359L74.3006 27.0279L75.4426 28.6698L77.4439 27.2777L76.3019 25.6359ZM76.3067 25.6659C76.3063 25.6654 76.3051 25.6636 76.3038 25.6608C76.3025 25.658 76.3015 25.6551 76.3008 25.6521C76.2995 25.6464 76.2998 25.6425 76.3001 25.6408C76.3004 25.6391 76.3009 25.6378 76.3016 25.6367C76.3027 25.635 76.3035 25.6347 76.3019 25.6359L77.4439 27.2777C78.3492 26.6481 78.5903 25.3802 77.9085 24.4683L76.3067 25.6659ZM59.0738 13.1469C65.9675 15.5006 71.9725 19.8691 76.3067 25.6659L77.9085 24.4683C73.3323 18.3478 66.9938 13.7376 59.72 11.2542L59.0738 13.1469ZM36.7794 12.7682C44.0647 10.5545 51.8691 10.6871 59.0738 13.1469L59.72 11.2542C52.1184 8.6588 43.8845 8.51893 36.198 10.8546L36.7794 12.7682ZM18.5219 25.4673C23.1033 19.4278 29.4942 14.9819 36.7794 12.7682L36.198 10.8546C28.5114 13.1902 21.7657 17.8819 16.9285 24.2586L18.5219 25.4673ZM11.2732 46.3873C11.4034 38.8299 13.9405 31.5067 18.5219 25.4673L16.9285 24.2586C12.0912 30.6354 9.41108 38.3696 9.27345 46.3528L11.2732 46.3873ZM17.7964 67.5409C13.426 61.3496 11.1429 53.9446 11.2732 46.3873L9.27345 46.3528C9.13582 54.336 11.5477 62.1568 16.1625 68.6943L17.7964 67.5409ZM35.6052 80.8525C28.4007 78.3927 22.1669 73.7324 17.7964 67.5409L16.1625 68.6943C20.7772 75.2317 27.3573 80.1498 34.959 82.7452L35.6052 80.8525ZM57.8996 81.2312C50.6143 83.445 42.8098 83.3124 35.6052 80.8525L34.959 82.7452C42.5606 85.3406 50.7945 85.4805 58.481 83.1448L57.8996 81.2312ZM75.5543 69.3046C71.0227 74.951 64.8705 79.113 57.8996 81.2312L58.481 83.1448C65.8361 80.9099 72.3297 76.5178 77.1141 70.5564L75.5543 69.3046Z"
    fill="#227D2C"/>
</svg>
