<svg width="335" height="229" viewBox="0 0 335 229" fill="none" xmlns="http://www.w3.org/2000/svg">
    <path d="M152.883 191.393H161.068L164.962 167.087L152.882 167.088L152.883 191.393Z" fill="#A0616A"/>
    <path d="M150.795 189.336L166.914 189.335H166.915C169.639 189.336 172.252 190.169 174.178 191.652C176.105 193.135 177.187 195.147 177.187 197.244V197.501L150.796 197.502L150.795 189.336Z"
          fill="#4A4875"/>
    <path d="M108.568 191.393H116.753L120.646 167.087L108.566 167.088L108.568 191.393Z" fill="#A0616A"/>
    <path d="M106.48 189.336L122.599 189.335H122.599C125.324 189.336 127.936 190.169 129.863 191.652C131.789 193.135 132.871 195.147 132.872 197.244V197.501L106.48 197.502L106.48 189.336Z"
          fill="#4A4875"/>
    <path d="M105.233 81.2319V145.408L107.343 186.838H124.753L130.556 108.852L142.162 140.94L149.548 186.026L170.651 185.214L156.407 81.2319H105.233Z"
          fill="#4A4875"/>
    <path d="M125.471 23.5547C132.464 23.5547 138.133 19.1902 138.133 13.8064C138.133 8.42256 132.464 4.05811 125.471 4.05811C118.478 4.05811 112.81 8.42256 112.81 13.8064C112.81 19.1902 118.478 23.5547 125.471 23.5547Z"
          fill="#A0616A"/>
    <path d="M120.21 26.0942L116.839 28.835L113.674 83.6693L151.13 82.8568L142.162 34.9279L134.249 29.0892L130.233 26.0942H120.21Z"
          fill="#05A98B"/>
    <path d="M114.202 32.0843L117.045 28.5315L117.895 36.1461C117.895 36.1461 124.753 53.2056 124.225 68.2342C123.698 83.2628 126.863 118.6 122.643 119.007C118.422 119.413 100.485 120.225 100.485 117.382C100.485 114.539 99.4299 38.9894 99.4299 38.9894L114.202 32.0843Z"
          fill="#3F3D56"/>
    <path d="M133.399 28.5315L140.58 32.8967L156.407 37.3647C156.407 37.3647 156.407 89.3555 159.572 101.541C162.737 113.726 168.541 114.945 161.155 115.351C153.769 115.757 154.296 113.726 154.296 113.726C154.296 113.726 159.572 93.4173 152.714 89.3555C145.855 85.2937 132.666 61.7354 133.722 48.7376C134.777 35.7399 132.344 28.5315 133.399 28.5315Z"
          fill="#3F3D56"/>
    <path d="M113.493 16.8561C113.493 16.8561 114.569 15.4016 114.318 10.5425C114.068 5.6834 123.679 8.43164 131.709 7.9681C139.74 7.50457 138.04 16.0805 138.04 16.0805C138.04 16.0805 138.619 15.5707 139.86 11.4317C141.1 7.29272 138.284 3.16805 138.284 3.16805C137.454 -1.18127 132.984 0.212692 132.984 0.212692C135.137 0.857931 134.723 2.2376 134.723 2.2376C132.901 -0.222245 128.431 1.17172 128.431 1.17172C122.469 -1.70875 116.427 2.08447 116.427 2.08447C109.224 3.34297 113.448 7.75287 113.448 7.75287C106.205 10.5711 113.493 16.8561 113.493 16.8561Z"
          fill="#4A4875"/>
    <path d="M100.502 111.509C101.039 111.072 101.445 110.55 101.691 109.98C101.937 109.409 102.018 108.804 101.928 108.207C101.838 107.61 101.578 107.035 101.168 106.524C100.759 106.012 100.208 105.576 99.5553 105.246L101.836 96.0142L94.8878 93.5789L91.9046 106.65C91.2571 107.531 91.0517 108.564 91.3274 109.554C91.6032 110.543 92.3408 111.421 93.4006 112.02C94.4603 112.619 95.7686 112.897 97.0775 112.803C98.3864 112.709 99.605 112.248 100.502 111.509Z"
          fill="#A0616A"/>
    <path d="M102.068 38.9891L100.667 38.4109C100.667 38.4109 93.0991 40.6138 93.6267 42.2386C94.1542 43.8633 89.4062 100.728 90.9889 102.759C92.5715 104.79 105.233 103.165 105.233 103.165L102.068 38.9891Z"
          fill="#3F3D56"/>
    <path d="M162.293 107.68C161.683 107.305 161.188 106.831 160.841 106.292C160.495 105.754 160.306 105.163 160.288 104.562C160.27 103.961 160.424 103.364 160.738 102.814C161.052 102.263 161.519 101.773 162.106 101.376L158.188 92.4766L164.632 89.3245L169.935 101.952C170.735 102.756 171.124 103.757 171.029 104.766C170.934 105.776 170.361 106.723 169.419 107.429C168.477 108.135 167.231 108.551 165.918 108.597C164.605 108.643 163.315 108.317 162.293 107.68Z"
          fill="#FFB7B7"/>
    <path d="M156.109 99.9215C156.109 99.9215 168.941 100.182 170.143 98.0018C171.346 95.8219 156.424 40.0096 156.655 38.3444C156.885 36.6791 148.994 35.3035 148.994 35.3035L147.711 36.0254L156.109 99.9215Z"
          fill="#3F3D56"/>
    <path d="M212.822 102.433L204.878 72.4622L201.388 50.3259L193.657 54.1766L194.725 78.5708L207.065 103.846C206.668 104.427 206.505 105.086 206.596 105.739C206.688 106.393 207.029 107.01 207.577 107.513C208.126 108.016 208.856 108.383 209.675 108.566C210.495 108.749 211.366 108.74 212.179 108.54C212.992 108.341 213.71 107.96 214.24 107.446C214.771 106.931 215.091 106.307 215.16 105.652C215.229 104.998 215.044 104.342 214.627 103.769C214.211 103.195 213.583 102.73 212.822 102.433Z"
          fill="#A0616A"/>
    <path d="M138.52 104.75L140.719 74.2084L139.991 51.9167L150.212 54.8609L151.918 79.1154L144.483 105.503C144.985 106.034 145.271 106.668 145.304 107.324C145.337 107.981 145.116 108.63 144.668 109.189C144.221 109.748 143.568 110.193 142.792 110.465C142.015 110.738 141.152 110.827 140.31 110.72C139.468 110.614 138.686 110.317 138.064 109.868C137.441 109.419 137.007 108.837 136.815 108.197C136.623 107.557 136.683 106.888 136.986 106.274C137.29 105.66 137.824 105.129 138.52 104.75Z"
          fill="#A0616A"/>
    <path d="M159.927 193.545H165.149L167.634 178.035L159.926 178.036L159.927 193.545Z" fill="#A0616A"/>
    <path d="M158.595 192.232L168.88 192.232C170.618 192.232 172.286 192.764 173.515 193.71C174.744 194.656 175.435 195.94 175.435 197.278V197.442L158.595 197.443L158.595 192.232Z"
          fill="#4A4875"/>
    <path d="M179.708 191.766L184.87 192.38L190.405 177.345L182.787 176.438L179.708 191.766Z" fill="#A0616A"/>
    <path d="M178.652 190.311L188.817 191.522C190.535 191.727 192.077 192.448 193.104 193.528C194.131 194.608 194.558 195.958 194.292 197.281L194.26 197.443L177.618 195.461L178.652 190.311Z"
          fill="#4A4875"/>
    <path d="M158.393 188.914L158.366 188.802L139.459 110.099C137.958 103.781 139.155 97.2581 142.871 91.5074L154.315 73.8865L188.461 77.4481L192.491 99.8824L206.852 142.679L206.838 142.714L188.438 187.712L176.38 188.322L187.061 148.155L167.503 113.953L168.882 188.302L158.393 188.914Z"
          fill="#4A4875"/>
    <path d="M189.256 80.3193L189.03 80.0474C188.99 79.9984 184.842 75.1872 173.555 78.3996C162.033 81.6795 153.105 75.3446 153.016 75.2802L152.972 75.2481L150.363 57.3418L147.282 42.8053L157.088 41.4808L161.909 39.254L181.079 38.9912L186.123 42.0459L194.405 42.7409L195.164 55.9862L195.16 56.0006L189.256 80.3193Z"
          fill="#05A98B"/>
    <path d="M192.003 57.2675V45.9258L194.332 42.6534L194.427 42.6511C196.26 42.7038 197.993 43.3099 199.25 44.3386C201.593 46.1711 202.654 49.2242 202.405 53.4131L202.4 53.4897L192.003 57.2675Z"
          fill="#05A98B"/>
    <path d="M151.409 56.0347L139.538 54.9379L139.529 54.8326C139.124 50.2751 140.157 46.892 142.6 44.7775C143.826 43.6467 145.565 42.9176 147.464 42.7383L147.532 42.7358L150.746 44.9849L151.409 56.0347Z"
          fill="#05A98B"/>
    <path d="M185.771 34.4214H154.535C153.893 34.4208 153.277 34.2241 152.822 33.8743C152.368 33.5245 152.112 33.0502 152.112 32.5555V23.848C152.108 22.0219 152.571 20.2131 153.476 18.5251C154.381 16.8371 155.709 15.3031 157.385 14.0108C159.061 12.7185 161.051 11.6932 163.242 10.9937C165.433 10.2941 167.781 9.93408 170.153 9.93408C172.525 9.93408 174.874 10.2941 177.065 10.9937C179.255 11.6932 181.246 12.7185 182.921 14.0108C184.597 15.3031 185.925 16.8371 186.83 18.5251C187.735 20.2131 188.199 22.0219 188.195 23.848V32.5555C188.194 33.0502 187.939 33.5245 187.484 33.8743C187.03 34.2241 186.414 34.4209 185.771 34.4214Z"
          fill="#4A4875"/>
    <path d="M170.879 34.3355C178.184 34.3355 184.106 29.7759 184.106 24.1514C184.106 18.5269 178.184 13.9673 170.879 13.9673C163.573 13.9673 157.651 18.5269 157.651 24.1514C157.651 29.7759 163.573 34.3355 170.879 34.3355Z"
          fill="#A0616A"/>
    <path d="M183.451 24.4697H165.988C165.66 24.4694 165.343 24.377 165.097 24.2098C164.851 24.0426 164.693 23.8121 164.652 23.5615L164.426 22.1689C164.404 22.035 164.326 21.9102 164.204 21.8133C164.082 21.7163 163.923 21.6526 163.75 21.6316C163.576 21.6106 163.399 21.6336 163.244 21.697C163.09 21.7604 162.966 21.8608 162.892 21.9831L161.747 23.8716C161.638 24.0501 161.466 24.201 161.25 24.3069C161.034 24.4128 160.783 24.4693 160.527 24.4697H157.874C157.687 24.4698 157.501 24.4396 157.329 24.3812C157.158 24.3227 157.004 24.2373 156.878 24.1304C156.752 24.0235 156.656 23.8974 156.597 23.7603C156.537 23.6232 156.516 23.4781 156.534 23.3343L157.58 14.9228C157.602 14.7428 157.685 14.5704 157.82 14.4224C157.955 14.2744 158.137 14.1559 158.349 14.0785C166.347 11.2039 174.457 11.2076 182.455 14.0894C182.658 14.1628 182.834 14.2741 182.967 14.413C183.1 14.5519 183.186 14.7142 183.217 14.8851L184.784 23.2857C184.812 23.4328 184.798 23.5827 184.743 23.7253C184.689 23.8679 184.595 23.9998 184.469 24.1121C184.343 24.2244 184.186 24.3145 184.011 24.3762C183.835 24.4379 183.644 24.4698 183.451 24.4697Z"
          fill="#4A4875"/>
    <path d="M190.637 103.385C191.302 103.203 191.909 102.912 192.412 102.53C192.916 102.149 193.305 101.688 193.551 101.178C193.798 100.669 193.897 100.124 193.841 99.5815C193.784 99.0394 193.574 98.5135 193.225 98.0407L204.547 88.1038L195.709 87.165L186.313 96.7452C185.32 97.2492 184.602 98.016 184.294 98.9004C183.987 99.7848 184.111 100.725 184.644 101.544C185.177 102.362 186.082 103.002 187.186 103.341C188.291 103.68 189.518 103.696 190.637 103.385Z"
          fill="#A0616A"/>
    <path d="M204.291 191.451L196.395 191.451L192.638 168.001L204.293 168.002L204.291 191.451Z" fill="#A0616A"/>
    <path d="M206.305 197.344L180.844 197.344V197.096C180.844 195.072 181.888 193.132 183.747 191.701C185.605 190.27 188.126 189.466 190.754 189.466H190.755L206.306 189.466L206.305 197.344Z"
          fill="#4A4875"/>
    <path d="M245.626 186.364L238.084 188.166L225.465 166.629L236.595 163.969L245.626 186.364Z" fill="#A0616A"/>
    <path d="M249.818 191.532L225.502 197.345L225.407 197.108C224.628 195.175 224.877 193.083 226.101 191.293C227.325 189.502 229.422 188.159 231.932 187.558L231.933 187.558L246.784 184.008L249.818 191.532Z"
          fill="#4A4875"/>
    <path d="M198.244 83.3394L186.55 93.6512L195.705 94.2855L198.244 83.3394Z" fill="#E6E6E6"/>
    <path d="M193.674 96.631C193.674 96.631 189.612 98.1945 189.104 105.232C188.597 112.269 190.628 130.644 190.628 130.644C190.628 130.644 188.597 138.853 190.628 146.281C192.659 153.709 188.597 180.682 191.136 180.682C193.674 180.682 206.876 181.855 207.384 180.682C207.892 179.509 208.4 161.917 208.4 161.917C208.4 161.917 212.462 152.926 208.4 147.454C208.4 147.454 222.583 166.522 231.756 181.074C233.764 184.259 249.02 180.683 246.482 177.164C243.943 173.646 237.85 157.618 237.85 157.618C237.85 157.618 233.28 145.89 225.156 140.808L229.218 115.788C229.218 115.788 237.85 98.9777 232.773 96.6321C227.697 94.2866 193.674 96.631 193.674 96.631Z"
          fill="#4A4875"/>
    <path d="M208.907 32.9084C216.198 32.9084 222.109 28.3577 222.109 22.7442C222.109 17.1307 216.198 12.5801 208.907 12.5801C201.616 12.5801 195.706 17.1307 195.706 22.7442C195.706 28.3577 201.616 32.9084 208.907 32.9084Z"
          fill="#A0616A"/>
    <path d="M223.632 33.6904L207.22 41.1181C207.22 41.1181 200.936 43.8427 198.589 48.5457C196.086 53.5578 197.541 60.6148 198.589 62.2283C200.619 65.3559 197.737 73.1745 197.737 73.1745L195.198 91.1572C195.198 91.1572 186.059 97.8029 193.167 98.5849C200.276 99.3668 212.97 98.1939 220.586 98.5849C228.203 98.9758 236.834 99.7578 234.296 95.8476C231.757 91.9373 228.711 89.2016 231.757 81.3844C234.141 75.2662 234.038 52.3904 233.88 42.7297C233.858 41.403 233.396 40.1027 232.538 38.9524C231.679 37.802 230.452 36.84 228.974 36.1577L223.632 33.6904Z"
          fill="#05A98B"/>
    <path opacity="0.1"
          d="M216.272 46.0054L217.795 69.8522L203.033 92.8686L200.529 92.1351L215.762 70.6338L216.272 46.0054Z"
          fill="black"/>
    <path opacity="0.1" d="M233.026 74.9338V72.1965L215.764 94.0895L233.026 74.9338Z" fill="black"/>
    <path d="M199.538 13.3284L197.357 12.6567C197.357 12.6567 201.921 8.7886 208.269 9.12484L206.483 7.6112C206.483 7.6112 210.848 6.26587 214.817 9.79732C216.903 11.6539 219.316 13.8363 220.822 16.2943H223.16L222.184 17.9481L225.598 19.6019L222.094 19.306C222.426 20.7338 222.312 22.2018 221.762 23.5891L221.859 24.8963C221.859 24.8963 217.794 20.0547 217.794 19.3829V21.0649C217.794 21.0649 215.612 19.5512 215.612 18.5422L214.421 19.7196L213.826 17.8701L206.485 19.7196L207.674 18.2052L203.11 18.7097L204.896 16.8602C204.896 16.8602 199.737 19.0463 199.539 20.8966C199.341 22.7468 196.762 25.1009 196.762 25.1009L195.571 23.4189C195.571 23.4189 193.786 15.8511 199.538 13.3284Z"
          fill="#4A4875"/>
    <path d="M208.078 104.491C208.692 104.222 209.221 103.852 209.629 103.408C210.036 102.964 210.313 102.456 210.438 101.921C210.563 101.386 210.535 100.836 210.355 100.311C210.174 99.7849 209.846 99.296 209.394 98.8784L218.245 87.552L209.331 87.836L202.292 98.5482C201.431 99.1798 200.901 100.033 200.803 100.945C200.704 101.857 201.043 102.766 201.757 103.499C202.47 104.231 203.507 104.737 204.672 104.92C205.838 105.103 207.049 104.95 208.078 104.491Z"
          fill="#A0616A"/>
    <path d="M228.203 38.7731L232.011 38.1868C232.011 38.1868 243.435 44.6371 239.881 57.5378C236.326 70.4385 220.586 89.9852 220.586 89.9852C220.586 89.9852 217.031 93.5037 216.016 94.2853C215.002 95.0669 212.97 94.2853 213.985 95.4583C215.001 96.6312 212.462 97.4128 212.462 97.4128C212.462 97.4128 201.291 97.4128 202.307 94.2853C203.322 91.1578 220.586 68.8731 220.586 68.8731L218.048 48.1538C218.048 48.1538 216.016 37.9911 228.203 38.7731Z"
          fill="#05A98B"/>
    <path d="M9.05682 23V23.149H3.7552C2.9414 23.149 2.16093 23.3979 1.58549 23.8409C1.01004 24.284 0.686768 24.8849 0.686768 25.5114V34.1592C0.686768 34.7858 1.01004 35.3867 1.58549 35.8297C2.16093 36.2728 2.9414 36.5217 3.7552 36.5217H32.8402C33.654 36.5217 34.4344 36.2728 35.0099 35.8297C35.5853 35.3867 35.9086 34.7858 35.9086 34.1592V25.5114C35.9086 24.8849 35.5853 24.284 35.0099 23.8409C34.4344 23.3979 33.654 23.149 32.8402 23.149H12.8306V23L9.05682 23Z"
          fill="#3F3D56"/>
    <path d="M86.1478 58.9182C86.2709 71.6807 75.6795 69.7506 62.7661 69.7506C49.8528 69.7506 40.5103 71.6516 39.3844 58.9182C37.5954 38.6846 44.4979 23.5325 62.7661 23.5325C81.6637 23.5325 85.9526 38.6846 86.1478 58.9182Z"
          fill="#4A4875"/>
    <path d="M15.4245 31.848C15.8417 32.498 16.0688 33.2105 16.0897 33.9354C16.1106 34.6602 15.9249 35.3798 15.5455 36.0434C15.1661 36.707 14.6024 37.2985 13.8939 37.7763C13.1855 38.254 12.3497 38.6063 11.4453 38.8084L10.267 56.4096L0.686523 50.9807L3.27424 35.0986C2.93395 33.9064 3.17352 32.6594 3.94757 31.5941C4.72161 30.5287 5.97635 29.719 7.47402 29.3183C8.97169 28.9176 10.6082 28.9538 12.0736 29.42C13.5389 29.8863 14.7311 30.7502 15.4245 31.848Z"
          fill="#A0616A"/>
    <path d="M101.817 131.319C102.337 130.714 102.678 130.029 102.817 129.312C102.956 128.595 102.888 127.863 102.62 127.168C102.352 126.473 101.889 125.832 101.264 125.29C100.639 124.747 99.8672 124.317 99.0029 124.029L100.701 106.453L90.312 110.914L90.292 126.921C89.7601 128.071 89.7947 129.331 90.3891 130.462C90.9834 131.594 92.0963 132.519 93.5169 133.061C94.9375 133.603 96.567 133.725 98.0967 133.404C99.6264 133.083 100.95 132.341 101.817 131.319Z"
          fill="#A0616A"/>
    <path d="M53.9717 215.925L61.8252 215.925L65.5611 192.602L53.97 192.602L53.9717 215.925Z" fill="#A0616A"/>
    <path d="M51.968 213.951L67.4344 213.951H67.435C68.7294 213.951 70.0111 214.147 71.2069 214.528C72.4028 214.91 73.4894 215.469 74.4046 216.173C75.3199 216.878 76.0459 217.714 76.5413 218.635C77.0366 219.556 77.2915 220.543 77.2915 221.539V221.786L51.9685 221.787L51.968 213.951Z"
          fill="#4A4875"/>
    <path d="M103.938 215.925L111.791 215.925L115.528 192.602L103.937 192.602L103.938 215.925Z" fill="#A0616A"/>
    <path d="M101.935 213.951L117.401 213.951H117.402C118.696 213.951 119.978 214.147 121.174 214.528C122.369 214.91 123.456 215.469 124.371 216.173C125.286 216.878 126.012 217.714 126.508 218.635C127.003 219.556 127.258 220.543 127.258 221.539V221.786L101.935 221.787L101.935 213.951Z"
          fill="#4A4875"/>
    <path d="M99.4552 121.635L99.114 121.587C96.2533 121.189 93.358 120.786 90.8124 120.364L90.5604 120.322L90.5595 120.124C90.5158 111.184 90.472 102.246 90.4078 93.2263C84.3277 83.7908 81.7715 73.2404 83.0245 62.7518L83.0389 62.641L83.157 62.576C84.265 61.9835 85.558 61.629 86.9031 61.5489C88.2481 61.4688 89.5965 61.6661 90.8097 62.1203C91.9965 62.6198 93.011 63.3305 93.7687 64.1931C94.5263 65.0557 95.0051 66.0453 95.1652 67.0793C97.4801 76.7932 99.8767 86.8523 102.55 96.7645L102.56 96.8006L102.555 96.8377C101.565 104.922 100.541 113.281 99.4898 121.369L99.4552 121.635Z"
          fill="#05A98B"/>
    <path d="M94.3356 207.613L94.2732 207.386C90.5991 194.006 87.0525 183.11 83.6226 172.573C79.5124 159.945 75.6174 147.979 71.6852 132.494C72.2252 152.022 73.4795 166.051 74.9213 182.177C75.5724 189.458 76.2455 196.988 76.9285 205.778L76.9494 206.046L76.6007 206.039C64.3093 205.797 51.7162 205.212 39.5375 204.647L39.2153 204.633L39.2372 204.384C41.543 178.218 42.2655 161.215 42.793 148.8C43.9061 122.607 44.0772 118.581 56.7499 96.4129C57.2302 95.5719 60.0961 93.0871 63.247 93.4657L88.1803 96.4533L88.2239 96.6224C88.9277 99.3509 92.4191 107.63 97.2513 119.09C107.582 143.587 123.193 180.607 128.07 202.674L128.125 202.924L127.799 202.959C120.715 203.734 115.617 204.542 110.687 205.322C106.022 206.061 101.199 206.824 94.6338 207.578L94.3356 207.613Z"
          fill="#4A4875"/>
    <path d="M72.6651 103.378C66.0103 103.378 59.4326 101.601 54.7173 98.139C53.9804 97.8089 53.3572 97.3473 52.9003 96.7931C52.4433 96.2389 52.1661 95.6083 52.0917 94.9543C51.9708 94.3553 52.0216 93.7431 52.2405 93.1607C52.4595 92.5784 52.8414 92.04 53.3593 91.5833C48.7363 87.275 43.9631 82.8222 39.394 78.288L39.2678 78.1628L39.414 77.948C42.4034 73.5505 45.4945 69.0038 48.4631 64.511C48.6697 64.1194 49.0097 63.778 49.4474 63.5228C49.8851 63.2677 50.4041 63.1082 50.9497 63.0613C51.4237 62.9923 51.9109 62.9985 52.3817 63.0795C52.8524 63.1605 53.2967 63.3146 53.6874 63.5323L53.6934 63.423C53.8174 61.1487 53.9416 58.8744 54.069 56.7185L54.0827 56.4883L54.382 56.483C60.0898 56.3862 65.9918 56.2855 71.7892 56.0211L72.0099 56.011L74.8852 60.9493C79.5554 60.6001 84.2546 61.3345 88.3784 63.0579L88.5682 63.136L88.5462 63.3007C87.3896 71.7877 87.6411 80.3536 89.2947 88.7917C89.2049 92.6444 89.1084 96.5823 88.0931 99.7212L88.0635 99.8127L87.9619 99.8657C83.4299 102.181 78.1041 103.404 72.6651 103.378Z"
          fill="#05A98B"/>
    <path d="M48.1701 81.9533L47.7871 81.8179C43.3156 80.0908 38.83 78.1748 34.4922 76.3219L33.8929 76.2318C22.4715 74.4666 16.1801 73.4947 5.87597 68.8425L5.79683 68.8063L5.7543 68.7437C0.594829 61.1554 -0.84432 54.5222 0.44422 44.2699L0.470019 44.0643L0.737147 44.0479C1.85413 43.9781 3.67472 43.9313 5.43526 43.8861C7.14809 43.8422 8.91927 43.7965 10.0051 43.731L10.2571 43.7156L10.335 43.9005C11.6851 47.1107 12.8321 50.1055 14.0465 53.2762C15.2947 56.5355 16.5848 59.9041 18.1563 63.647C23.9099 64.92 39.334 64.5395 44.1299 64.0366C45.5643 63.9553 47.0022 64.153 48.3115 64.6113C49.6208 65.0696 50.7594 65.774 51.6228 66.6597L51.7118 66.7454L51.6888 66.8537C50.633 71.8147 49.4206 76.805 48.2482 81.6311L48.1701 81.9533Z"
          fill="#05A98B"/>
    <path d="M76.2841 48.3137C80.4521 42.4434 77.65 35.0832 70.0254 31.8742C62.4008 28.6652 52.841 30.8226 48.673 36.6929C44.505 42.5632 47.3072 49.9234 54.9318 53.1324C62.5564 56.3414 72.1162 54.184 76.2841 48.3137Z"
          fill="#A0616A"/>
    <path d="M44.5095 41.7808H50.7325L53.4778 35.8624L54.0268 41.7808H57.0011L58.6026 38.3284L58.9229 41.7808H81.0234C81.0234 38.3799 79.2686 35.1182 76.1451 32.7134C73.0216 30.3085 68.7852 28.9575 64.368 28.9575H61.165C56.7477 28.9575 52.5113 30.3085 49.3878 32.7134C46.2643 35.1182 44.5095 38.3799 44.5095 41.7808Z"
          fill="#4A4875"/>
    <path d="M245.075 200.394C260.671 200.394 273.314 189.355 273.314 175.737C273.314 162.119 260.671 151.08 245.075 151.08C229.48 151.08 216.837 162.119 216.837 175.737C216.837 189.355 229.48 200.394 245.075 200.394Z"
          fill="#36334A"/>
    <path d="M257.481 131.123L215.042 132.128C215.042 132.128 171.504 163.587 202.517 172.133C202.517 172.133 246.708 173.6 255.849 168.071C255.849 168.071 267.275 133.385 257.481 131.123ZM255.522 140.423L210.145 142.685C210.145 142.685 213.409 134.139 226.468 134.139C239.526 134.139 254.217 131.877 255.522 137.155C256.828 142.434 255.522 140.423 255.522 140.423Z"
          fill="#3F3D56"/>
    <path d="M300.9 150.979L245.075 149.471L258.134 106.994C258.134 106.994 310.367 103.978 309.061 114.283C307.755 124.588 300.9 150.979 300.9 150.979Z"
          fill="#36334A"/>
    <path d="M247.008 171.285C247.008 171.285 213.409 175.863 201.33 162.29C189.251 148.717 247.034 156.006 247.034 156.006L251.931 166.312L247.008 171.285Z"
          fill="#36334A"/>
    <path d="M236.914 228.896C245.388 228.896 252.257 223.607 252.257 217.083C252.257 210.559 245.388 205.27 236.914 205.27C228.44 205.27 221.57 210.559 221.57 217.083C221.57 223.607 228.44 228.896 236.914 228.896Z"
          fill="#36334A"/>
    <path d="M238.383 225.629C243.702 225.629 248.014 221.803 248.014 217.083C248.014 212.363 243.702 208.537 238.383 208.537C233.065 208.537 228.753 212.363 228.753 217.083C228.753 221.803 233.065 225.629 238.383 225.629Z"
          fill="#3F3D56"/>
    <path d="M320.814 105.737C320.814 105.737 308.082 100.208 307.429 113.278L296.656 174.103H301.226L313.632 109.005C313.632 109.005 319.834 109.759 320.814 109.759C321.793 109.759 320.814 105.737 320.814 105.737Z"
          fill="#3F3D56"/>
    <path d="M333.5 112.449C333.384 112.771 333.179 113.071 332.899 113.328C332.62 113.585 332.273 113.793 331.88 113.938C331.488 114.083 331.06 114.162 330.625 114.17C330.19 114.177 329.758 114.113 329.358 113.981L314.588 109.119L317.268 104.576L331.824 109.68C332.486 109.912 333.018 110.319 333.326 110.826C333.633 111.334 333.695 111.909 333.5 112.449Z"
          fill="#36334A"/>
    <path d="M243.77 169.831C243.77 169.831 220.265 167.82 213.736 185.163C207.206 202.505 207.859 215.827 202.31 214.821C196.76 213.816 185.007 210.297 185.007 210.297L185.987 215.575C185.987 215.575 206.554 223.618 209.818 215.073C213.083 206.527 215.041 175.109 233.65 175.863C252.258 176.617 255.522 175.109 255.522 175.109L243.77 169.831Z"
          fill="#3F3D56"/>
    <path d="M199.045 161.536C199.045 161.536 180.763 163.295 173.581 173.6C166.399 183.906 162.808 202.505 162.808 202.505H169.664C169.664 202.505 173.581 165.557 194.148 167.568L199.045 161.536Z"
          fill="#3F3D56"/>
    <path d="M186.64 219.094L157.585 205.27C157.585 205.27 155.953 200.243 174.561 198.232C174.561 198.232 209.742 207.705 206.352 211.263C202.963 214.821 191.537 220.351 186.64 219.094Z"
          fill="#36334A"/>
    <path d="M240.582 139.64C241.477 140.391 257.941 152.451 257.941 152.451C257.941 152.451 256.304 160.868 238.689 161.913L209.331 163.654C209.331 163.654 203.781 179.333 197.184 184.343C190.586 189.354 193.614 189.633 191.138 192.075C188.662 194.517 192.137 195.172 188.378 195.409C184.619 195.647 176.854 192.148 176.769 189.441C176.685 186.735 178.877 185.185 179.852 184.496C180.826 183.807 183.298 177.219 184.779 175.826C186.261 174.432 191.87 157.674 191.87 157.674C191.87 157.674 197.468 149.567 205.229 148.92C212.991 148.273 221.625 145.367 221.625 145.367"
          fill="#4A4875"/>
    <path opacity="0.1"
          d="M240.582 139.64C241.477 140.391 257.941 152.451 257.941 152.451C257.941 152.451 256.304 160.868 238.689 161.913L209.331 163.654C209.331 163.654 203.781 179.333 197.184 184.343C190.586 189.354 193.614 189.633 191.138 192.075C188.662 194.517 192.137 195.172 188.378 195.409C184.619 195.647 176.854 192.148 176.769 189.441C176.685 186.735 178.877 185.185 179.852 184.496C180.826 183.807 183.298 177.219 184.779 175.826C186.261 174.432 191.87 157.674 191.87 157.674C191.87 157.674 197.468 149.567 205.229 148.92C212.991 148.273 221.625 145.367 221.625 145.367"
          fill="black"/>
    <path d="M212.104 99.3897C212.104 99.3897 205.925 86.4643 201.696 90.5828C197.467 94.7012 208.501 101.464 208.501 101.464L212.104 99.3897Z"
          fill="#A0616A"/>
    <path d="M244.65 106.137L241.132 104.991C241.132 104.991 234.675 108.351 234.25 109.441C233.825 110.532 234.746 110.15 232.21 111.11C229.673 112.07 222.745 114.393 221.824 114.775C220.903 115.156 210.474 100.951 212.968 98.9116C212.968 98.9116 208.3 100.207 206.175 99.7163C206.175 99.7163 211.48 119.519 212.287 122.203C213.095 124.886 214.979 125.203 218.493 125.301C222.007 125.4 243.345 120.58 243.345 120.58L244.65 106.137Z"
          fill="#05A98B"/>
    <path d="M189.612 191.247C189.612 191.247 189.434 194.056 190.043 194.379C190.652 194.702 194.416 201.538 188.618 202.197C182.82 202.857 179.636 201.998 178.234 202.361C176.832 202.724 153.719 201.256 153.897 198.447C154.075 195.637 165.631 196.371 165.631 196.371C165.631 196.371 177.078 192.207 179.222 189.61C181.365 187.013 189.612 191.247 189.612 191.247Z"
          fill="#4A4875"/>
    <path opacity="0.1"
          d="M189.612 191.247C189.612 191.247 189.434 194.056 190.043 194.379C190.652 194.702 194.416 201.538 188.618 202.197C182.82 202.857 179.636 201.998 178.234 202.361C176.832 202.724 153.719 201.256 153.897 198.447C154.075 195.637 165.631 196.371 165.631 196.371C165.631 196.371 177.078 192.207 179.222 189.61C181.365 187.013 189.612 191.247 189.612 191.247Z"
          fill="black"/>
    <path d="M201.537 206.045C201.537 206.045 198.022 217.836 195.444 217.716C192.865 217.596 174.661 210.775 172.421 209.424C169.545 207.69 169.659 204.624 172.96 205.268C176.261 205.912 185.598 205.334 187.185 204.036L191.266 200.699L201.537 206.045Z"
          fill="#4A4875"/>
    <path d="M237.576 140.531C238.539 141.229 267.837 160.365 267.837 160.365C267.837 160.365 267 168.852 249.53 170.879L220.414 174.259C220.414 174.259 216.36 190.207 210.252 195.573C204.145 200.94 207.191 201.049 204.952 203.623C202.713 206.198 206.241 206.656 202.515 207.103C198.789 207.55 190.713 204.495 190.373 201.801C190.033 199.106 192.074 197.437 192.981 196.696C193.888 195.954 195.73 189.245 197.077 187.773C198.423 186.3 202.435 169.272 202.435 169.272C202.435 169.272 207.253 160.873 214.932 159.794C222.612 158.714 230.949 155.332 230.949 155.332"
          fill="#4A4875"/>
    <path d="M264.545 99.0752C272.217 99.0752 278.437 94.2865 278.437 88.3794C278.437 82.4723 272.217 77.6836 264.545 77.6836C256.872 77.6836 250.653 82.4723 250.653 88.3794C250.653 94.2865 256.872 99.0752 264.545 99.0752Z"
          fill="#A0616A"/>
    <path d="M271.826 95.0558C271.826 95.0558 269.743 101.59 272.916 104.939C276.09 108.288 251.692 106.694 251.692 106.694C251.692 106.694 258.295 96.0911 255.859 93.6256C253.422 91.1601 271.826 95.0558 271.826 95.0558Z"
          fill="#A0616A"/>
    <path d="M240.64 105.329C237.693 107.74 238.697 121.408 238.697 121.408L240.58 133.615C240.58 133.615 238.327 135.829 239.064 136.713C239.801 137.597 241.005 138.469 238.681 138.884C236.357 139.298 231.002 139.963 232.716 141.905C233.276 142.455 233.875 142.981 234.512 143.479C235.058 143.924 235.707 144.441 236.444 145.016C238.167 146.356 240.359 148.004 242.79 149.742C243.479 150.237 244.185 150.737 244.908 151.242C254.185 157.703 265.72 164.541 268.106 161.259C272.102 155.762 274.88 154.977 274.696 150.297C274.512 145.617 279.657 133.607 279.657 133.607C279.657 133.607 285.639 113.11 277.209 107.001L275.891 105.378C275.279 104.623 274.375 104.036 273.305 103.699C272.236 103.362 271.056 103.293 269.933 103.501C265.818 104.257 259.511 105.303 256.778 105.134C252.556 104.872 253.482 103.535 253.482 103.535C253.482 103.535 243.588 102.919 240.64 105.329Z"
          fill="#05A98B"/>
    <path d="M227.614 149.05C227.614 149.05 210.427 152.332 212.949 156.957C215.47 161.583 230.348 153.13 230.348 153.13L227.614 149.05Z"
          fill="#A0616A"/>
    <path d="M272.233 92.2924C271.891 91.9733 272.229 91.5072 272.527 91.1628C274.122 89.3185 274.427 86.6943 272.672 84.9381C271.98 84.2841 271.115 83.7512 270.135 83.3752C268.758 82.8134 267.255 82.4583 265.706 82.3288C264.882 82.3195 264.067 82.1958 263.3 81.9638C262.816 81.7746 260.53 81.1582 260.039 80.9786C258.96 80.5838 257.459 80.7544 256.768 80.0043C256.107 79.2867 256.724 78.3037 257.367 77.5761C258.83 75.9183 262.531 74.5443 265.073 74.1092C267.001 73.779 269.014 74.2433 270.801 74.8916C272.862 75.6785 274.816 76.62 276.636 77.7023C279.137 79.1284 281.6 80.7088 283.101 82.807C284.603 84.9052 284.964 87.638 283.268 89.6463C282.915 90.0647 282.483 90.4423 282.152 90.8714C281.345 91.9183 281.199 93.1843 280.629 94.3198C280.204 95.1496 279.559 95.9017 278.734 96.5276C277.909 97.1535 276.922 97.6394 275.838 97.9538C274.101 98.4484 271.964 98.585 270.938 99.7722L270.458 97.2969C270.334 96.9848 270.351 96.6491 270.509 96.3459C270.667 96.0427 270.955 95.7903 271.325 95.6309L273.786 94.035C274.277 93.7782 274.649 93.4085 274.85 92.979C275.382 91.2693 272.803 92.8244 272.233 92.2924Z"
          fill="#4A4875"/>
    <path opacity="0.1"
          d="M247.593 139.397L236.444 145.016C238.655 146.737 241.641 148.965 244.908 151.242C248.003 149.959 251.159 148.57 253.982 147.175C264.312 142.071 273.168 129.254 277.136 123.036C281.104 116.819 277.874 112.03 277.874 112.03C275.246 111.133 272.464 110.531 269.614 110.24C264.443 109.64 247.593 139.397 247.593 139.397Z"
          fill="black"/>
    <path opacity="0.1"
          d="M246.12 137.63L234.511 143.479C235.058 143.924 235.707 144.44 236.444 145.016C238.167 146.356 240.359 148.004 242.79 149.742C246.088 148.386 249.49 146.9 252.509 145.408C262.838 140.304 271.695 127.487 275.663 121.269C279.631 115.052 268.955 117.282 268.955 117.282C268.955 117.282 274.495 115.351 269.323 114.751C264.152 114.15 246.12 137.63 246.12 137.63Z"
          fill="black"/>
    <path d="M277.364 110.961C277.364 110.961 280.594 115.75 276.626 121.967C272.658 128.185 263.802 141.002 253.472 146.106C243.143 151.211 228.364 156.238 228.364 156.238C228.364 156.238 226.962 150.326 224.596 149.66L247.083 138.328C247.083 138.328 263.933 108.571 269.104 109.171C271.954 109.462 274.736 110.064 277.364 110.961Z"
          fill="#05A98B"/>
    <path d="M231.691 174.103V203.511H235.935V173.6L231.691 174.103Z" fill="#3F3D56"/>
    <path d="M237.893 192.2C237.893 192.2 246.055 216.832 240.831 220.351C240.831 220.351 233.976 204.767 228.752 206.778L230.385 192.2H237.893Z"
          fill="#36334A"/>
    <path d="M301.226 138.664L258.787 139.669C258.787 139.669 221.244 167.82 252.258 176.365C252.258 176.365 290.453 181.141 299.594 175.611C299.594 175.611 311.02 140.926 301.226 138.664ZM299.268 147.963L253.89 150.225C253.89 150.225 257.154 141.68 270.213 141.68C283.271 141.68 297.962 139.418 299.268 144.696C300.573 149.974 299.268 147.963 299.268 147.963Z"
          fill="#3F3D56"/>
    <path d="M291.596 228.896C315.125 228.896 334.199 212.242 334.199 191.697C334.199 171.153 315.125 154.498 291.596 154.498C268.067 154.498 248.993 171.153 248.993 191.697C248.993 212.242 268.067 228.896 291.596 228.896Z"
          fill="#36334A"/>
    <path d="M293.555 219.345C311.314 219.345 325.711 206.967 325.711 191.697C325.711 176.428 311.314 164.049 293.555 164.049C275.795 164.049 261.398 176.428 261.398 191.697C261.398 206.967 275.795 219.345 293.555 219.345Z"
          fill="#3F3D56"/>
    <path d="M301.879 191.32C301.878 190.838 301.816 190.357 301.693 189.884L325.711 180.638L324.078 177.873L299.817 186.974C299.572 186.78 299.302 186.606 299.011 186.455L299.029 186.458L306.123 159.274L299.848 159.164L295.677 185.916L296.077 185.981C295.752 186.032 295.438 186.115 295.141 186.227L274.158 169.644L271.192 172.847L292.751 188.117C292.21 188.916 291.885 189.792 291.796 190.691L261.399 200.243L260.746 204.265L292.432 194.005C292.727 194.569 293.146 195.09 293.67 195.546L283.924 221.105H287.515L295.696 196.586C296.059 196.676 296.438 196.723 296.819 196.724C297.556 196.719 298.275 196.553 298.894 196.245L315.917 213.564L321.14 210.8L301.195 194.026C301.653 193.168 301.885 192.248 301.879 191.32Z"
          fill="#36334A"/>
</svg>
