<svg width="266" height="343" viewBox="0 0 266 343" fill="none" xmlns="http://www.w3.org/2000/svg">
    <path d="M12.6121 342.819H253.388V50.7735C253.388 35.3091 238.156 22.7284 219.434 22.7284H46.5664C27.8436 22.7284 12.6121 35.3091 12.6121 50.7735V342.819Z"
          fill="#E6E6E6"/>
    <path d="M30.9569 330.743H235.043V83.1991C235.043 70.0912 222.132 59.4276 206.263 59.4276H59.7372C43.8675 59.4276 30.9569 70.0912 30.9569 83.1991V330.743Z"
          fill="white"/>
    <path d="M10.7931 0C4.84205 0 0 3.99937 0 8.91478V34.6478C0 39.5632 4.84205 43.5626 10.7931 43.5626H255.207C261.159 43.5626 266 39.5632 266 34.6478V8.91478C266 3.99937 261.159 0 255.207 0H10.7931Z"
          fill="#3F3D56"/>
    <path d="M60.9745 299.001C58.1805 299.009 55.5032 300.123 53.5275 302.098C51.5518 304.074 50.4383 306.751 50.4301 309.545C50.4383 312.339 51.5518 315.017 53.5275 316.992C55.5032 318.968 58.1805 320.082 60.9745 320.09H80.7115V299.001H60.9745Z"
          fill="#3F3D56"/>
    <path d="M98.8264 299.001H79.6301V320.09H98.8264C101.62 320.082 104.298 318.968 106.273 316.992C108.249 315.017 109.363 312.339 109.371 309.545C109.363 306.751 108.249 304.074 106.273 302.098C104.298 300.123 101.62 299.009 98.8264 299.001Z"
          fill="#05A98B"/>
    <path opacity="0.2"
          d="M105.707 301.583C107.37 303.49 108.287 305.934 108.289 308.464C108.281 311.258 107.168 313.935 105.192 315.911C103.216 317.886 100.539 319 97.7449 319.008H79.6301V320.09H98.8264C101.62 320.082 104.298 318.968 106.273 316.992C108.249 315.017 109.363 312.339 109.371 309.545C109.368 308.033 109.04 306.539 108.407 305.164C107.775 303.79 106.854 302.569 105.707 301.583Z"
          fill="black"/>
    <path d="M150.039 140.174C148.117 138.146 145.47 136.962 142.677 136.879C139.884 136.797 137.172 137.823 135.134 139.734C133.106 141.656 131.922 144.303 131.839 147.096C131.757 149.888 132.783 152.6 134.694 154.639L148.232 169.001L163.578 154.536L150.039 140.174Z"
          fill="#3F3D56"/>
    <path d="M176.003 167.717L162.836 153.749L147.49 168.214L160.657 182.183C162.58 184.21 165.227 185.394 168.019 185.477C170.812 185.559 173.524 184.533 175.563 182.623C177.591 180.7 178.775 178.054 178.857 175.261C178.94 172.468 177.914 169.756 176.003 167.717Z"
          fill="#05A98B"/>
    <path opacity="0.2"
          d="M178.844 174.495C178.597 177.013 177.448 179.357 175.608 181.094C173.569 183.005 170.857 184.031 168.065 183.948C165.272 183.866 162.625 182.681 160.703 180.654L148.277 167.472L147.49 168.214L160.657 182.183C162.58 184.21 165.227 185.395 168.019 185.477C170.812 185.559 173.524 184.533 175.563 182.623C176.662 181.583 177.524 180.319 178.09 178.917C178.656 177.514 178.913 176.006 178.844 174.495Z"
          fill="black"/>
    <path d="M93.8583 173.424C91.9359 171.396 89.2891 170.212 86.4963 170.129C83.7034 170.047 80.9915 171.073 78.9527 172.984C76.9252 174.906 75.7409 177.553 75.6584 180.346C75.576 183.138 76.6021 185.85 78.5127 187.889L92.0509 202.251L107.397 187.786L93.8583 173.424Z"
          fill="#3F3D56"/>
    <path d="M119.822 200.967L106.655 186.999L91.309 201.464L104.476 215.433C106.399 217.46 109.046 218.644 111.838 218.727C114.631 218.809 117.343 217.783 119.382 215.873C121.41 213.95 122.594 211.304 122.676 208.511C122.759 205.718 121.733 203.006 119.822 200.967Z"
          fill="#05A98B"/>
    <path opacity="0.2"
          d="M122.663 207.745C122.416 210.263 121.267 212.607 119.427 214.344C117.388 216.255 114.676 217.281 111.884 217.198C109.091 217.116 106.444 215.931 104.522 213.904L92.096 200.722L91.309 201.464L104.476 215.433C106.399 217.46 109.046 218.645 111.838 218.727C114.631 218.809 117.343 217.783 119.382 215.873C120.481 214.833 121.343 213.569 121.909 212.167C122.475 210.764 122.732 209.256 122.663 207.745Z"
          fill="black"/>
    <path d="M150.039 204.38C148.117 202.353 145.47 201.169 142.677 201.086C139.884 201.004 137.172 202.03 135.134 203.94C133.106 205.863 131.922 208.51 131.839 211.302C131.757 214.095 132.783 216.807 134.694 218.846L148.232 233.208L163.578 218.742L150.039 204.38Z"
          fill="#3F3D56"/>
    <path d="M176.003 231.924L162.836 217.955L147.49 232.421L160.657 246.389C162.58 248.417 165.227 249.601 168.019 249.684C170.812 249.766 173.524 248.74 175.563 246.83C177.591 244.907 178.775 242.26 178.857 239.468C178.94 236.675 177.914 233.963 176.003 231.924Z"
          fill="#05A98B"/>
    <path opacity="0.2"
          d="M178.844 238.702C178.597 241.22 177.448 243.564 175.608 245.301C173.569 247.211 170.857 248.238 168.065 248.155C165.272 248.073 162.625 246.888 160.703 244.861L148.277 231.679L147.49 232.421L160.657 246.39C162.58 248.417 165.227 249.601 168.019 249.684C170.812 249.766 173.524 248.74 175.563 246.83C176.662 245.79 177.524 244.526 178.09 243.124C178.656 241.721 178.913 240.213 178.844 238.702Z"
          fill="black"/>
    <path d="M184.313 270.269C186.317 268.322 187.469 265.661 187.517 262.868C187.566 260.074 186.507 257.375 184.572 255.359C182.625 253.355 179.964 252.203 177.17 252.155C174.377 252.106 171.677 253.165 169.662 255.1L155.465 268.812L170.116 283.981L184.313 270.269Z"
          fill="#3F3D56"/>
    <path d="M157.087 296.566L170.894 283.23L156.243 268.061L142.436 281.397C140.432 283.344 139.28 286.005 139.231 288.799C139.183 291.592 140.242 294.292 142.177 296.307C144.124 298.311 146.785 299.463 149.578 299.512C152.372 299.56 155.071 298.501 157.087 296.566Z"
          fill="#05A98B"/>
    <path opacity="0.2"
          d="M150.344 299.489C147.823 299.272 145.465 298.152 143.706 296.334C141.771 294.318 140.712 291.619 140.76 288.825C140.809 286.032 141.961 283.371 143.965 281.424L156.995 268.839L156.243 268.061L142.436 281.397C140.432 283.344 139.28 286.005 139.231 288.799C139.183 291.592 140.242 294.292 142.177 296.307C143.23 297.393 144.504 298.24 145.913 298.789C147.323 299.338 148.834 299.576 150.344 299.489Z"
          fill="black"/>
    <path d="M108.64 237.019C110.644 235.072 111.796 232.411 111.845 229.618C111.893 226.824 110.834 224.125 108.899 222.109C106.952 220.105 104.291 218.953 101.498 218.905C98.7041 218.856 96.0048 219.915 93.9895 221.85L79.793 235.562L94.4439 250.731L108.64 237.019Z"
          fill="#3F3D56"/>
    <path d="M81.4143 263.316L95.2218 249.98L80.5709 234.811L66.7634 248.147C64.7594 250.094 63.6073 252.755 63.5588 255.549C63.5103 258.342 64.5693 261.042 66.5045 263.057C68.4515 265.061 71.1124 266.213 73.906 266.262C76.6997 266.31 79.399 265.251 81.4143 263.316Z"
          fill="#05A98B"/>
    <path opacity="0.2"
          d="M74.6713 266.239C72.1505 266.022 69.7931 264.902 68.0337 263.084C66.0985 261.068 65.0395 258.369 65.088 255.575C65.1365 252.782 66.2887 250.121 68.2927 248.174L81.3222 235.589L80.5709 234.811L66.7634 248.147C64.7594 250.094 63.6073 252.755 63.5588 255.549C63.5103 258.342 64.5693 261.042 66.5045 263.057C67.5571 264.143 68.8315 264.99 70.2408 265.539C71.6502 266.088 73.1613 266.326 74.6713 266.239Z"
          fill="black"/>
    <path d="M216.416 196.89C218.42 194.943 219.572 192.282 219.621 189.488C219.669 186.695 218.61 183.995 216.675 181.98C214.728 179.976 212.067 178.824 209.274 178.776C206.48 178.727 203.781 179.786 201.765 181.721L187.569 195.433L202.22 210.602L216.416 196.89Z"
          fill="#3F3D56"/>
    <path d="M189.19 223.187L202.998 209.85L188.347 194.682L174.539 208.018C172.535 209.965 171.383 212.626 171.335 215.419C171.286 218.213 172.345 220.912 174.28 222.928C176.227 224.932 178.888 226.084 181.682 226.132C184.476 226.181 187.175 225.122 189.19 223.187Z"
          fill="#05A98B"/>
    <path opacity="0.2"
          d="M182.447 226.109C179.926 225.893 177.569 224.772 175.81 222.954C173.874 220.939 172.815 218.24 172.864 215.446C172.912 212.652 174.065 209.991 176.069 208.044L189.098 195.46L188.347 194.682L174.539 208.018C172.535 209.965 171.383 212.626 171.335 215.419C171.286 218.213 172.345 220.912 174.28 222.928C175.333 224.014 176.607 224.86 178.017 225.409C179.426 225.958 180.937 226.197 182.447 226.109Z"
          fill="black"/>
    <path d="M192.462 280.053C190.539 278.025 187.893 276.841 185.1 276.759C182.307 276.676 179.595 277.702 177.556 279.613C175.529 281.535 174.344 284.182 174.262 286.975C174.179 289.768 175.206 292.48 177.116 294.518L190.654 308.88L206 294.415L192.462 280.053Z"
          fill="#3F3D56"/>
    <path d="M218.426 307.596L205.258 293.628L189.912 308.093L203.08 322.062C205.002 324.089 207.649 325.274 210.442 325.356C213.235 325.439 215.947 324.413 217.985 322.502C220.013 320.579 221.197 317.933 221.28 315.14C221.362 312.347 220.336 309.635 218.426 307.596Z"
          fill="#05A98B"/>
    <path opacity="0.2"
          d="M221.266 314.375C221.019 316.892 219.87 319.236 218.031 320.973C215.992 322.884 213.28 323.91 210.487 323.827C207.694 323.745 205.048 322.561 203.125 320.533L190.699 307.352L189.912 308.093L203.08 322.062C205.002 324.089 207.649 325.274 210.442 325.356C213.235 325.439 215.947 324.413 217.985 322.502C219.084 321.463 219.946 320.199 220.512 318.796C221.078 317.394 221.336 315.885 221.266 314.375Z"
          fill="black"/>
    <path d="M117.936 278.906C116.013 276.879 113.367 275.694 110.574 275.612C107.781 275.53 105.069 276.556 103.03 278.466C101.003 280.389 99.8185 283.035 99.736 285.828C99.6535 288.621 100.68 291.333 102.59 293.372L116.129 307.734L131.474 293.268L117.936 278.906Z"
          fill="#3F3D56"/>
    <path d="M143.9 306.45L130.732 292.481L115.387 306.947L128.554 320.915C130.476 322.943 133.123 324.127 135.916 324.21C138.709 324.292 141.421 323.266 143.46 321.355C145.487 319.433 146.671 316.786 146.754 313.993C146.836 311.201 145.81 308.488 143.9 306.45Z"
          fill="#05A98B"/>
    <path opacity="0.2"
          d="M146.74 313.228C146.493 315.746 145.344 318.09 143.505 319.827C141.466 321.737 138.754 322.763 135.961 322.681C133.168 322.599 130.522 321.414 128.599 319.387L116.174 306.205L115.387 306.947L128.554 320.915C130.476 322.943 133.123 324.127 135.916 324.21C138.709 324.292 141.421 323.266 143.46 321.356C144.558 320.316 145.42 319.052 145.986 317.65C146.553 316.247 146.81 314.739 146.74 313.228Z"
          fill="black"/>
    <path d="M138.914 241.078C138.914 244.583 137.704 247.982 135.487 250.697C133.27 253.413 130.183 255.279 126.748 255.98C124.741 256.386 122.673 256.386 120.666 255.98C117.231 255.279 114.144 253.412 111.928 250.696C109.711 247.981 108.5 244.583 108.5 241.078C108.5 237.572 109.711 234.174 111.928 231.459C114.144 228.743 117.231 226.877 120.666 226.175C122.673 225.769 124.741 225.769 126.748 226.175C130.183 226.876 133.27 228.742 135.487 231.458C137.704 234.174 138.915 237.572 138.914 241.078Z"
          fill="#05A98B"/>
    <path opacity="0.2"
          d="M126.748 226.175V255.98C124.741 256.386 122.673 256.386 120.666 255.98V226.175C122.673 225.769 124.741 225.769 126.748 226.175Z"
          fill="black"/>
    <path d="M145.793 180.31C145.794 183.816 144.583 187.214 142.366 189.93C140.15 192.646 137.062 194.512 133.628 195.213C131.62 195.619 129.552 195.619 127.545 195.213C124.11 194.511 121.024 192.645 118.807 189.929C116.59 187.214 115.379 183.816 115.379 180.31C115.379 176.805 116.59 173.407 118.807 170.691C121.024 167.976 124.11 166.109 127.545 165.408C129.552 165.002 131.62 165.002 133.628 165.408C137.062 166.109 140.15 167.975 142.366 170.691C144.583 173.406 145.794 176.805 145.793 180.31Z"
          fill="#05A98B"/>
    <path opacity="0.2"
          d="M133.628 165.408V195.213C131.62 195.619 129.552 195.619 127.545 195.213V165.408C129.552 165.002 131.62 165.002 133.628 165.408Z"
          fill="black"/>
    <path d="M145.793 267.448C145.794 270.954 144.583 274.352 142.366 277.068C140.15 279.784 137.062 281.65 133.628 282.351C131.62 282.757 129.552 282.757 127.545 282.351C124.11 281.649 121.024 279.783 118.807 277.067C116.59 274.352 115.379 270.954 115.379 267.448C115.379 263.943 116.59 260.545 118.807 257.829C121.024 255.114 124.11 253.247 127.545 252.546C129.552 252.14 131.62 252.14 133.628 252.546C137.062 253.247 140.15 255.113 142.366 257.829C144.583 260.544 145.794 263.943 145.793 267.448Z"
          fill="#05A98B"/>
    <path opacity="0.2"
          d="M133.628 252.546V282.351C131.62 282.757 129.552 282.757 127.545 282.351V252.546C129.552 252.14 131.62 252.14 133.628 252.546Z"
          fill="black"/>
    <path d="M183.629 309.871C183.63 313.376 182.419 316.775 180.203 319.49C177.986 322.206 174.899 324.072 171.464 324.773C169.456 325.179 167.388 325.179 165.381 324.773C161.947 324.072 158.86 322.205 156.643 319.49C154.426 316.774 153.216 313.376 153.216 309.871C153.216 306.365 154.426 302.967 156.643 300.252C158.86 297.536 161.947 295.67 165.381 294.968C167.388 294.562 169.456 294.562 171.464 294.968C174.899 295.669 177.986 297.535 180.203 300.251C182.419 302.967 183.63 306.365 183.629 309.871Z"
          fill="#05A98B"/>
    <path opacity="0.2"
          d="M171.464 294.968V324.773C169.457 325.179 167.388 325.179 165.381 324.773V294.968C167.388 294.562 169.457 294.562 171.464 294.968Z"
          fill="black"/>
    <path d="M217.053 231.819C219.578 234.251 221.185 237.481 221.601 240.961C222.018 244.442 221.22 247.96 219.341 250.92C218.24 252.646 216.804 254.136 215.119 255.299C212.231 257.285 208.745 258.212 205.251 257.924C201.757 257.635 198.471 256.149 195.947 253.716C193.423 251.284 191.817 248.054 191.4 244.573C190.983 241.093 191.781 237.575 193.659 234.615C194.76 232.888 196.196 231.399 197.881 230.236C200.769 228.249 204.255 227.321 207.749 227.61C211.243 227.898 214.53 229.385 217.053 231.819Z"
          fill="#05A98B"/>
    <path opacity="0.2"
          d="M197.881 230.235L219.341 250.92C218.24 252.646 216.804 254.136 215.119 255.299L193.659 234.615C194.76 232.888 196.196 231.399 197.881 230.235Z"
          fill="black"/>
    <path d="M221.64 265.069C224.164 267.501 225.771 270.731 226.188 274.211C226.604 277.692 225.806 281.21 223.927 284.17C222.826 285.896 221.391 287.386 219.706 288.549C216.817 290.535 213.331 291.462 209.837 291.174C206.344 290.885 203.057 289.399 200.533 286.966C198.009 284.534 196.403 281.304 195.986 277.823C195.569 274.343 196.367 270.825 198.246 267.865C199.347 266.138 200.782 264.649 202.467 263.486C205.355 261.499 208.842 260.571 212.335 260.86C215.829 261.148 219.116 262.635 221.64 265.069Z"
          fill="#05A98B"/>
    <path opacity="0.2"
          d="M202.467 263.485L223.927 284.17C222.826 285.896 221.391 287.386 219.706 288.549L198.246 267.865C199.347 266.138 200.782 264.649 202.467 263.485Z"
          fill="black"/>
    <path d="M85.1999 273.094C87.7244 275.527 89.331 278.757 89.7479 282.237C90.1647 285.718 89.3661 289.236 87.4872 292.196C86.3862 293.922 84.951 295.411 83.266 296.575C80.3772 298.561 76.8912 299.488 73.3976 299.2C69.904 298.911 66.6173 297.425 64.0933 294.992C61.5694 292.56 59.9632 289.33 59.5464 285.849C59.1296 282.369 59.9277 278.851 61.8059 275.891C62.907 274.164 64.3423 272.675 66.0272 271.511C68.9157 269.525 72.4019 268.597 75.8957 268.886C79.3895 269.174 82.6763 270.661 85.1999 273.094Z"
          fill="#05A98B"/>
    <path opacity="0.2"
          d="M66.0272 271.511L87.4872 292.196C86.3862 293.922 84.9509 295.411 83.2659 296.575L61.8059 275.891C62.907 274.164 64.3422 272.675 66.0272 271.511Z"
          fill="black"/>
    <path opacity="0.2" d="M36.1164 0H30.3836V42.4224H36.1164V0Z" fill="black"/>
    <path opacity="0.2" d="M69.3664 0H63.6336V42.4224H69.3664V0Z" fill="black"/>
    <path opacity="0.2" d="M102.616 0H96.8836V42.4224H102.616V0Z" fill="black"/>
    <path opacity="0.2" d="M135.866 0H130.134V42.4224H135.866V0Z" fill="black"/>
    <path opacity="0.2" d="M169.116 0H163.384V42.4224H169.116V0Z" fill="black"/>
    <path opacity="0.2" d="M202.366 0H196.634V42.4224H202.366V0Z" fill="black"/>
    <path opacity="0.2" d="M235.616 0H229.884V42.4224H235.616V0Z" fill="black"/>
</svg>
