<svg width="491" height="348" viewBox="0 0 491 348" fill="none" xmlns="http://www.w3.org/2000/svg">
    <path opacity="0.1"
          d="M245.5 342.733C381.086 342.733 491 323.627 491 300.058C491 276.489 381.086 257.382 245.5 257.382C109.914 257.382 0 276.489 0 300.058C0 323.627 109.914 342.733 245.5 342.733Z"
          fill="#05A98B"/>
    <path d="M326.142 304.977C326.473 303.687 327.128 302.494 328.051 301.501C328.974 300.509 330.137 299.747 331.439 299.281C332.741 298.816 334.142 298.662 335.52 298.833C336.898 299.003 338.212 299.493 339.346 300.259L339.697 300.504C347.205 305.882 342.748 315.747 339.697 315.97C336.645 316.193 330.774 316.433 330.774 316.433C330.774 316.433 323.858 313.705 326.142 304.977Z"
          fill="#4A4875"/>
    <path d="M393.886 298.274V300.066C393.886 300.066 363.367 302.082 360.108 302.082H354.009C354.009 302.082 353.919 302.172 353.771 302.335C353.52 302.605 353.094 303.081 352.622 303.673C351.662 304.866 350.517 306.53 350.253 307.911C349.804 310.377 348.143 311.273 348.143 311.273L342.044 309.708L336.16 302.983L335.303 302.194L332.861 299.968L330.774 298.059L330.877 296.987V296.824C331.376 294.52 332.015 292.246 332.789 290.013C332.789 289.953 332.83 289.889 332.852 289.828C334.544 284.973 337.367 279.076 341.433 277.322C341.743 277.189 342.066 277.06 342.412 276.944L342.825 276.807C350.625 274.311 365.364 275.302 365.364 275.302C365.364 275.302 376.62 278.441 377.563 279.788C378.505 281.135 389.174 292.226 389.174 292.226C390.11 292.901 390.973 293.664 391.75 294.503C392.751 295.563 393.68 296.897 393.886 298.274Z"
          fill="#05A98B"/>
    <path opacity="0.1"
          d="M329.845 313.07C331.66 313.07 333.13 310.862 333.13 308.138C333.13 305.414 331.66 303.206 329.845 303.206C328.031 303.206 326.56 305.414 326.56 308.138C326.56 310.862 328.031 313.07 329.845 313.07Z"
          fill="white"/>
    <path opacity="0.1"
          d="M343.453 278.994C343.453 278.994 340.76 282.94 337.915 288.001C337.913 288.014 337.913 288.027 337.915 288.04C337.156 289.387 336.384 290.806 335.648 292.26L335.617 292.329C335.617 292.329 334.059 291.149 332.834 290C332.834 289.94 332.875 289.876 332.897 289.816C334.589 284.96 337.412 279.063 341.478 277.309C341.788 277.176 342.111 277.047 342.457 276.931L343.453 278.994Z"
          fill="#4A4875"/>
    <path opacity="0.1"
          d="M335.478 292.222C335.478 292.222 352.133 296.94 355.414 294.911C355.414 294.911 356.59 280.564 348.848 279.668C348.848 279.668 344.391 278.544 343.462 279.239C342.533 279.934 335.478 292.222 335.478 292.222Z"
          fill="white"/>
    <path opacity="0.1"
          d="M357.057 281.684C357.057 281.684 360.342 293.564 362.689 293.792C365.037 294.019 388.72 293.564 387.787 291.994C386.853 290.425 376.526 280.341 376.526 280.341L357.057 281.684Z"
          fill="white"/>
    <path d="M353.026 303.18C353.026 303.18 357.29 297.823 364.799 303.206C372.307 308.589 367.846 318.449 364.799 318.672C361.751 318.895 355.908 319.122 355.908 319.122C355.908 319.122 346.649 315.485 353.026 303.18Z"
          fill="#4A4875"/>
    <path d="M397.311 304.544C396.998 303.698 396.505 302.922 395.864 302.267C395.222 301.611 394.444 301.09 393.581 300.736C392.718 300.382 391.787 300.203 390.848 300.211C389.908 300.218 388.981 300.411 388.124 300.778C387.285 301.156 386.491 301.618 385.754 302.155C379.071 306.942 383.061 315.721 385.754 315.923C386.728 315.991 388.025 316.064 389.286 316.129C390.577 316.194 391.867 315.973 393.053 315.481C394.239 314.99 395.29 314.242 396.123 313.296C396.955 312.351 397.547 311.234 397.851 310.033C398.156 308.832 398.164 307.58 397.876 306.376C397.724 305.755 397.535 305.144 397.311 304.544Z"
          fill="#4A4875"/>
    <path opacity="0.1"
          d="M354.947 315.76C356.762 315.76 358.232 313.551 358.232 310.827C358.232 308.103 356.762 305.895 354.947 305.895C353.133 305.895 351.662 308.103 351.662 310.827C351.662 313.551 353.133 315.76 354.947 315.76Z"
          fill="white"/>
    <path opacity="0.1"
          d="M364.094 301.413C364.094 301.413 363.645 294.911 370.898 297.6C378.151 300.289 373.479 303.206 373.479 303.206L364.094 301.413Z"
          fill="white"/>
    <path opacity="0.1"
          d="M393.886 298.273V299.17L392.715 299.599L390.323 299.17C390.323 299.17 389.811 295.498 391.772 294.452C392.751 295.563 393.68 296.897 393.886 298.273Z"
          fill="white"/>
    <path opacity="0.1"
          d="M393.886 298.316V300.066C393.886 300.066 363.367 302.082 360.108 302.082H360.082C358.394 301.224 356.707 300.843 355.288 301.413C354.856 301.584 354.45 301.809 354.081 302.082C353.973 302.164 353.87 302.249 353.771 302.335C353.324 302.727 352.937 303.178 352.622 303.673C350.522 306.92 350.971 311.947 350.971 311.947C344.871 313.74 338.539 309.035 338.539 309.035C337.39 305.741 336.317 303.592 335.334 302.172C334.436 300.886 333.62 300.255 332.893 299.946L330.774 298.059L330.877 296.987L347.901 308.816C347.901 308.816 349.543 298.728 353.287 299.402C357.03 300.075 364.547 300.075 364.547 300.075L393.886 298.316Z"
          fill="#4A4875"/>
    <path d="M329.845 296.927C329.845 296.927 328.436 300.289 329.845 300.517C331.254 300.744 334.418 297.943 338.525 309.708C338.525 309.708 344.858 314.426 350.957 312.62C350.957 312.62 350.23 304.102 355.288 302.082C360.346 300.062 368.784 310.154 368.784 310.154V312.397L388.725 310.377C388.725 310.377 394.824 305.895 394.591 298.947L364.565 300.74C364.565 300.74 357.057 300.74 353.304 300.066C349.552 299.393 347.919 309.502 347.919 309.502L329.845 296.927Z"
          fill="#05A98B"/>
    <path d="M245.401 235.616H245.397C238.466 235.616 232.848 240.985 232.848 247.608V247.612C232.848 254.235 238.466 259.604 245.397 259.604H245.401C252.332 259.604 257.95 254.235 257.95 247.612V247.608C257.95 240.985 252.332 235.616 245.401 235.616Z"
          fill="#4A4875"/>
    <path d="M238.826 278.476C240.509 277.064 242.219 275.628 243.431 273.831C244.544 272.184 245.199 270.301 245.814 268.431C247.57 263.087 249.083 257.675 250.352 252.197C243.444 251.189 238.288 245.36 231.533 243.649C231.371 243.606 226.206 273.269 225.829 275.979C225.519 278.218 222.844 288.911 225.891 288.971C227.521 289.005 230.923 285.111 232.125 284.086L238.826 278.476Z"
          fill="#4A4875"/>
    <path opacity="0.1"
          d="M238.826 278.476C240.509 277.064 242.219 275.628 243.431 273.831C244.544 272.184 245.199 270.301 245.814 268.431C247.57 263.087 249.083 257.675 250.352 252.197C243.444 251.189 238.288 245.36 231.533 243.649C231.371 243.606 226.206 273.269 225.829 275.979C225.519 278.218 222.844 288.911 225.891 288.971C227.521 289.005 230.923 285.111 232.125 284.086L238.826 278.476Z"
          fill="#4A4875"/>
    <path d="M153.467 203.633C152.704 203.744 151.896 203.8 151.267 204.225C150.37 204.825 150.141 205.94 149.715 206.909C149.155 208.154 148.206 209.202 146.999 209.912C145.971 210.512 144.719 210.915 144.104 211.902C143.757 212.566 143.592 213.304 143.624 214.046C143.543 216.244 143.647 218.444 143.934 220.626C144.077 221.719 144.266 222.834 144.028 223.911C143.754 225.168 142.928 226.236 142.143 227.278C140.258 229.77 138.413 232.506 138.261 235.577C138.185 237.121 138.544 238.704 138.135 240.201C137.413 242.855 134.468 244.588 133.894 247.273C133.723 248.067 133.768 248.907 133.445 249.649C132.88 250.936 131.322 251.639 130.923 252.965C130.622 253.96 131.062 255.01 131.093 256.044C131.138 257.558 130.308 258.956 129.509 260.26L124.837 267.852C123.32 270.314 121.767 272.887 121.511 275.735C121.282 278.261 122.104 280.762 123.006 283.146C125.012 288.443 127.992 294.053 133.49 296.09C136.726 297.291 140.33 297.034 143.79 296.759C148.53 296.386 153.301 296.005 157.874 294.765C160.14 294.152 162.362 293.333 164.651 292.895C166.177 292.608 167.743 292.466 169.215 291.999C170.806 291.452 172.214 290.507 173.291 289.262C174.368 288.017 175.075 286.518 175.337 284.922C177.294 285.66 179.107 283.206 178.829 281.216C178.551 279.226 177.15 277.541 176.585 275.61C175.777 272.947 176.585 270.056 177.931 267.603C179.278 265.15 181.136 262.979 182.603 260.59C184.239 257.916 185.374 254.99 185.961 251.944C186.746 247.831 186.508 243.606 186.266 239.433L185.341 223.482C185.171 220.561 184.978 217.546 183.631 214.904C182.155 212.026 179.462 209.916 176.773 207.999C172.806 205.115 168.646 202.481 164.319 200.116C161.527 198.623 161.725 199.202 159.503 200.973C157.782 202.369 155.695 203.289 153.467 203.633Z"
          fill="#4A4875"/>
    <path d="M191.194 248.011C188.021 250.404 184.807 252.831 182.366 255.911C179.416 259.655 177.743 264.176 177.572 268.859C177.544 271.051 177.705 273.242 178.053 275.409C178.533 278.947 179.399 282.889 182.518 284.845C184.484 286.075 187.186 286.384 188.528 288.229C188.95 288.808 189.197 289.515 189.69 290.026C190.588 290.952 191.988 291.154 193.281 291.222C195.212 291.326 197.149 291.269 199.07 291.051C201.265 290.798 203.496 290.339 205.668 290.733C209.896 291.492 213.051 295.305 217.337 295.816C220.896 296.245 224.231 294.267 227.211 292.385C230.285 290.442 233.494 288.361 235.159 285.218C236.78 282.164 236.69 278.57 236.564 275.143C236.425 271.338 236.281 267.487 235.218 263.816C234.887 262.855 234.633 261.871 234.459 260.873C234.141 258.3 235.357 255.769 236.254 253.308C237.65 249.563 238.261 244.948 235.487 241.989C234.316 240.737 232.686 239.965 231.035 239.416C223.742 236.911 215.69 237.863 208.208 238.987C201.068 240.02 196.795 243.795 191.194 248.011Z"
          fill="#4A4875"/>
    <path d="M253.04 233.188C250.15 237.336 247.25 241.513 245.163 246.055C243.74 249.352 242.54 252.733 241.573 256.177C238.691 265.694 235.832 275.417 230.079 283.657C229.253 284.84 228.337 286.071 228.252 287.491C228.171 288.821 228.836 290.064 229.477 291.248C230.824 293.753 232.233 296.283 234.154 298.436C236.075 300.59 238.373 302.219 240.689 303.883C245.495 307.315 250.836 310.952 256.846 310.694C258.089 310.639 259.418 310.364 260.248 309.476C261.078 308.589 261.195 307.362 261.047 306.221C260.598 302.691 257.815 299.916 255.293 297.3C252.771 294.684 250.235 291.626 250.437 288.057C250.594 285.111 252.614 282.597 254.548 280.298C256.761 277.665 258.978 275.036 261.065 272.312C270.09 260.539 276.607 247.153 281.773 233.415C283.95 227.617 285.929 221.526 285.251 215.402C280.314 214.244 270.44 210.375 266.271 214.368C263.744 216.787 261.958 220.373 259.988 223.225L253.04 233.188Z"
          fill="#A0616A"/>
    <path d="M294.726 192.919C291.598 198.132 289.15 203.692 287.437 209.474C287.02 210.873 286.647 212.348 286.966 213.763C287.311 215.282 288.393 216.53 289.21 217.868C290.027 219.206 290.601 220.9 289.861 222.281C286.36 222.543 282.891 221.629 279.507 220.724L268.897 217.894C268.017 217.732 267.193 217.367 266.495 216.83C265.266 215.719 265.36 213.853 265.598 212.258C267.676 199.194 274.35 187.15 276.85 174.159C277.213 172.284 277.595 170.209 279.156 169.012C283.645 165.624 293.806 168.493 296.131 173.4C298.729 178.847 297.665 188.025 294.726 192.919Z"
          fill="#05A98B"/>
    <path d="M237.928 148.27C237.529 148.468 237.08 148.699 236.959 149.102C236.932 149.322 236.956 149.544 237.029 149.754C237.102 149.964 237.222 150.156 237.381 150.316L241.909 156.407C246.375 162.411 250.85 168.454 256.016 173.931C259.915 178.064 264.186 181.861 268.78 185.28C270.072 186.241 271.45 187.24 272.083 188.686C269.261 180.699 269.762 171.98 273.483 164.337C274.964 161.335 276.921 158.551 278.461 155.566C278.606 155.402 278.704 155.205 278.746 154.994C278.789 154.783 278.773 154.565 278.701 154.361C278.629 154.158 278.504 153.975 278.337 153.832C278.17 153.688 277.966 153.588 277.747 153.542C273.824 151.612 269.534 150.445 265.629 148.481C262.564 146.937 259.795 144.929 257.043 142.952C254.588 141.189 251.321 138.075 248.291 137.333C245.02 136.527 245.15 139.379 244.095 141.76C242.882 144.542 240.705 146.841 237.928 148.27Z"
          fill="#FBBEBE"/>
    <path opacity="0.1"
          d="M237.928 148.27C237.529 148.468 237.08 148.699 236.959 149.102C236.932 149.322 236.956 149.544 237.029 149.754C237.102 149.964 237.222 150.156 237.381 150.316L241.909 156.407C246.375 162.411 250.85 168.454 256.016 173.931C259.915 178.064 264.186 181.861 268.78 185.28C270.072 186.241 271.45 187.24 272.083 188.686C269.261 180.699 269.762 171.98 273.483 164.337C274.964 161.335 276.921 158.551 278.461 155.566C278.606 155.402 278.704 155.205 278.746 154.994C278.789 154.783 278.773 154.565 278.701 154.361C278.629 154.158 278.504 153.975 278.337 153.832C278.17 153.688 277.966 153.588 277.747 153.542C273.824 151.612 269.534 150.445 265.629 148.481C262.564 146.937 259.795 144.929 257.043 142.952C254.588 141.189 251.321 138.075 248.291 137.333C245.02 136.527 245.15 139.379 244.095 141.76C242.882 144.542 240.705 146.841 237.928 148.27Z"
          fill="#4A4875"/>
    <path d="M265.697 172.542C263.646 170.329 260.876 168.866 258.448 167.03C254.957 164.388 252.196 160.983 249.53 157.573C244.638 151.298 239.706 143.613 242.143 136.128C239.553 135.888 237.318 137.921 236.097 140.113C234.877 142.304 234.248 144.801 232.727 146.812C230.416 149.87 226.484 151.294 222.822 152.692C214.771 155.771 206.994 159.464 199.564 163.736C196.58 165.452 193.608 167.292 191.329 169.805C188.887 172.486 187.357 175.81 185.283 178.748C181.244 184.525 175.104 188.861 168.291 191.315C166.047 192.13 163.641 192.764 161.635 194.06C157.336 196.835 155.545 202.367 156.564 207.231C157.582 212.095 161.052 216.238 165.221 219.18C169.391 222.122 174.139 223.86 178.95 225.575C182.984 226.99 187.042 228.34 191.127 229.624C194.132 230.618 197.204 231.414 200.323 232.009C206.063 233.017 211.965 232.768 217.768 233.381C223.073 233.939 228.284 235.221 233.611 235.577C238.938 235.933 244.58 235.255 248.92 232.292C252.371 229.937 254.669 226.381 256.792 222.856C262.303 213.766 267.225 204.361 271.531 194.694C272.801 191.834 284.587 175.63 281.652 173.537C266.872 162.999 271.778 179.743 270.369 178.456C268.484 176.732 267.402 174.382 265.697 172.542Z"
          fill="#05A98B"/>
    <path d="M247.389 162.849C244.216 156.75 242.071 150.222 239.939 143.728C239.351 141.927 238.759 139.98 239.392 138.195C240.155 136.051 242.596 134.22 241.878 132.071C236.169 133.786 229.54 136.476 228.414 142.098C228.167 143.325 228.212 144.633 227.615 145.74C226.452 147.91 223.49 148.373 220.972 148.742C213.648 149.862 206.368 152.684 201.35 157.903C200.507 158.761 199.712 159.735 198.657 160.378C197.894 160.808 197.083 161.153 196.238 161.407C191.328 163.093 186.279 165.195 183.12 169.162C181.49 171.204 180.449 173.653 178.631 175.548C176.172 178.122 172.55 179.408 169.889 181.806C168.093 183.401 166.814 185.426 165.629 187.472C161.069 195.346 157.726 204.58 160.145 213.283C161.406 217.833 164.184 221.887 165.679 226.373C167.739 232.485 167.537 239.454 171.401 244.708C173.838 248.011 177.608 250.194 181.468 251.841C190.056 255.492 199.492 256.944 208.845 256.053C212.314 255.667 215.759 255.112 219.168 254.388C227.305 252.784 235.527 251.039 242.919 247.41C255.526 241.221 264.597 230.16 273.259 219.438C274.906 217.396 276.567 215.337 277.747 213.004C278.9 210.778 279.596 208.368 280.373 206C282.998 198.018 286.692 190.071 286.346 181.716C286.36 180.715 286.154 179.723 285.74 178.804C285.39 178.117 284.843 177.517 284.533 176.826C283.986 175.591 284.232 174.163 283.846 172.872C282.774 169.269 277.819 168.583 273.896 168.613L272.64 189.753C272.447 192.927 272.092 196.449 269.619 198.576C268.561 199.446 267.241 199.971 265.849 200.075C264.458 200.179 263.068 199.857 261.882 199.155C259.243 197.521 258.87 194.669 258.888 191.937C258.915 188.505 258.623 185.362 257.479 182.072C255.109 175.248 250.72 169.261 247.389 162.849Z"
          fill="#4A4875"/>
    <path d="M248.951 223.092C264.579 230.662 280.296 238.288 294.281 248.367C297.513 250.691 300.654 253.153 304.07 255.229C313.859 261.174 326.003 264.069 333.557 272.475C335.146 274.238 336.492 276.219 338.323 277.746C339.912 278.993 341.689 280.005 343.592 280.749C349.661 283.308 356.232 284.596 362.864 284.527C364.601 284.506 366.387 284.381 367.949 283.669C372.155 281.722 373.111 276.507 373.537 272.059C373.681 270.554 373.712 268.778 372.473 267.843C371.805 267.341 370.92 267.213 370.081 267.088C356.433 265.029 343.839 258.75 332.435 251.292C321.031 243.833 310.578 235.127 299.33 227.454C295.376 224.756 291.328 222.187 287.28 219.618L274.179 211.306C267.249 206.909 259.952 202.38 251.676 201.552C251.205 201.474 250.722 201.505 250.266 201.642C249.539 201.913 249.135 202.633 248.781 203.294C246.353 207.814 243.395 211.919 240.419 216.105C238.826 218.344 238.647 218.923 241.393 220.119C243.866 221.2 246.487 221.899 248.951 223.092Z"
          fill="#A0616A"/>
    <path d="M279.659 348C279.838 348 280.009 347.932 280.135 347.812C280.261 347.691 280.332 347.527 280.332 347.357C280.332 347.186 280.261 347.022 280.135 346.902C280.009 346.781 279.838 346.713 279.659 346.713C279.481 346.713 279.309 346.781 279.183 346.902C279.057 347.022 278.986 347.186 278.986 347.357C278.986 347.527 279.057 347.691 279.183 347.812C279.309 347.932 279.481 348 279.659 348Z"
          fill="#4A4875"/>
    <path d="M284.569 177.221C308.278 177.221 327.498 158.854 327.498 136.197C327.498 113.54 308.278 95.1726 284.569 95.1726C260.86 95.1726 241.64 113.54 241.64 136.197C241.64 158.854 260.86 177.221 284.569 177.221Z"
          fill="#A0616A"/>
    <path d="M250.827 152.195C251.59 148.51 256.016 146.649 259.934 146.4C263.899 146.197 267.85 146.995 271.389 148.715C274.928 150.434 277.931 153.015 280.095 156.196C281.002 153.897 281.614 151.5 281.917 149.059L289.098 149.57C289.899 149.688 290.719 149.618 291.485 149.364C292.41 148.969 292.98 148.077 293.46 147.219C296.602 141.614 298.702 134.734 304.6 131.779V139.499C306.214 139.199 307.735 138.548 309.045 137.597C310.355 136.646 311.418 135.42 312.153 134.014C312.558 136.151 313.202 138.24 314.074 140.246C314.218 140.58 314.42 140.949 314.783 141.035C314.961 141.047 315.139 141.023 315.306 140.965C315.473 140.906 315.625 140.815 315.753 140.696C318.502 138.702 320.99 136.397 323.162 133.834L331.69 147.961C336.617 136.072 336.886 122.883 332.448 110.819C328.01 98.7555 319.163 88.6287 307.535 82.3013C305.563 81.2159 303.506 80.2794 301.382 79.5006C295.83 77.5019 289.847 76.8629 283.927 76.4769C275.512 75.9279 266.63 75.9493 259.243 79.8051C255.271 81.8767 251.972 84.9305 248.785 88.0014C244.477 92.1446 240.168 96.5236 237.875 101.941C236.29 105.681 235.747 109.734 235.267 113.74C234.975 116.163 234.706 118.668 235.429 121.005C235.931 122.622 236.878 124.076 237.516 125.65C238.575 128.266 238.741 131.123 239.149 133.902C240.056 140.044 242.155 145.97 245.339 151.375C246.012 152.521 246.873 153.739 248.215 154.03C249.557 154.322 251.169 152.907 250.459 151.792"
          fill="#4A4875"/>
    <path d="M250.827 152.195C251.59 148.51 256.016 146.649 259.934 146.4C263.899 146.197 267.85 146.995 271.389 148.715C274.928 150.434 277.931 153.015 280.095 156.196C281.002 153.897 281.614 151.5 281.917 149.059L289.098 149.57C289.899 149.688 290.719 149.618 291.485 149.364C292.41 148.969 292.98 148.077 293.46 147.219C296.602 141.614 298.702 134.734 304.6 131.779V139.499C306.214 139.199 307.735 138.548 309.045 137.597C310.355 136.646 311.418 135.42 312.153 134.014C312.558 136.151 313.202 138.24 314.074 140.246C314.218 140.58 314.42 140.949 314.783 141.035C314.961 141.047 315.139 141.023 315.306 140.965C315.473 140.906 315.625 140.815 315.753 140.696C318.502 138.702 320.99 136.397 323.162 133.834L331.69 147.961C336.617 136.072 336.886 122.883 332.448 110.819C328.01 98.7555 319.163 88.6287 307.535 82.3013C305.563 81.2159 303.506 80.2794 301.382 79.5006C295.83 77.5019 289.847 76.8629 283.927 76.4769C275.512 75.9279 266.63 75.9493 259.243 79.8051C255.271 81.8767 251.972 84.9305 248.785 88.0014C244.477 92.1446 240.168 96.5236 237.875 101.941C236.29 105.681 235.747 109.734 235.267 113.74C234.975 116.163 234.706 118.668 235.429 121.005C235.931 122.622 236.878 124.076 237.516 125.65C238.575 128.266 238.741 131.123 239.149 133.902C240.056 140.044 242.155 145.97 245.339 151.375C246.012 152.521 246.873 153.739 248.215 154.03C249.557 154.322 251.169 152.907 250.459 151.792"
          stroke="#4A4875" stroke-miterlimit="10"/>
    <path d="M201.557 191.568C203.289 196.118 207.643 199.206 211.772 202.02L222.543 209.363C225.407 211.314 228.346 213.339 230.209 216.187C227.485 217.173 226.241 220.518 227.135 223.169C228.028 225.82 230.59 227.72 233.382 228.577C236.174 229.435 239.136 229.405 242.049 229.247C245.392 229.071 248.893 228.685 251.653 226.87L245.59 223.302C243.992 222.354 242.156 220.844 242.74 219.142L249.135 219.082C249.809 219.082 250.54 219.052 251.074 218.653C251.608 218.254 251.792 217.641 252.017 217.057C252.968 214.699 254.591 212.642 256.703 211.12C258.814 209.597 261.33 208.671 263.964 208.445C265.544 208.333 267.362 208.398 268.452 207.274C269.161 206.528 269.314 205.456 269.44 204.456C269.677 202.552 269.911 200.596 269.516 198.73C269.121 196.865 267.981 195.012 266.15 194.227C264.803 193.644 263.246 193.699 261.774 193.511C255.001 192.653 250.307 186.786 246.671 181.257C243.036 175.729 239.136 169.612 232.655 167.554C230.631 166.975 228.533 166.667 226.421 166.64C221.749 166.456 216.938 166.82 212.683 168.673C204.752 172.126 198.469 183.47 201.557 191.568Z"
          fill="#05A98B"/>
    <path opacity="0.1"
          d="M331.73 140.327L323.203 126.199C321.032 128.764 318.544 131.068 315.793 133.062C315.666 133.182 315.514 133.275 315.347 133.334C315.18 133.393 315.001 133.417 314.823 133.405C314.46 133.319 314.258 132.95 314.114 132.616C313.242 130.609 312.598 128.518 312.193 126.379C311.459 127.787 310.396 129.014 309.086 129.966C307.776 130.918 306.255 131.569 304.64 131.869V124.149C298.742 127.113 296.66 133.992 293.5 139.589C293.02 140.447 292.45 141.327 291.526 141.734C290.759 141.988 289.939 142.058 289.138 141.94L281.957 141.429C281.654 143.87 281.042 146.267 280.135 148.566C277.971 145.385 274.968 142.804 271.429 141.085C267.89 139.365 263.939 138.567 259.974 138.77C256.056 139.019 251.631 140.88 250.868 144.565L250.486 144.162C251.209 145.281 249.589 146.696 248.242 146.405C246.896 146.113 246.039 144.895 245.365 143.75C242.19 138.339 240.1 132.408 239.203 126.264C238.795 123.484 238.629 120.628 237.569 118.012C236.932 116.438 235.985 114.984 235.482 113.367C235.482 113.311 235.451 113.259 235.438 113.204C235.397 113.525 235.357 113.847 235.321 114.169C235.029 116.596 234.76 119.097 235.482 121.46C235.985 123.077 236.932 124.531 237.569 126.101C238.629 128.721 238.795 131.573 239.203 134.357C240.099 140.5 242.189 146.43 245.365 151.839C246.039 152.984 246.9 154.206 248.242 154.498C249.584 154.79 251.195 153.374 250.486 152.255L250.868 152.654C251.631 148.974 256.056 147.108 259.974 146.864C263.939 146.658 267.89 147.455 271.429 149.174C274.969 150.893 277.972 153.474 280.135 156.655C281.043 154.357 281.655 151.962 281.957 149.523L289.138 150.029C289.939 150.149 290.759 150.078 291.526 149.823C292.45 149.428 293.02 148.536 293.5 147.679C296.642 142.069 298.742 135.193 304.64 132.238V139.958C306.255 139.658 307.776 139.007 309.086 138.055C310.396 137.103 311.459 135.876 312.193 134.468C312.599 136.607 313.243 138.697 314.114 140.705C314.258 141.035 314.46 141.408 314.823 141.49C315.001 141.504 315.18 141.481 315.347 141.422C315.515 141.364 315.667 141.271 315.793 141.151C318.544 139.158 321.032 136.853 323.203 134.288L331.73 148.416C334.805 140.919 336.071 132.856 335.433 124.827C335.02 130.142 333.772 135.367 331.73 140.327Z"
          fill="#4A4875"/>
</svg>
