<svg width="491" height="348" viewBox="0 0 491 348" fill="none" xmlns="http://www.w3.org/2000/svg">
    <path d="M474.832 0H16.1678C11.8814 0.00567046 7.77205 1.89022 4.74111 5.24026C1.71016 8.59029 0.00513035 13.1323 0 17.8699V72.4226C0.00513035 77.1603 1.71016 81.7023 4.74111 85.0523C7.77205 88.4023 11.8814 90.2869 16.1678 90.2925H474.832C479.119 90.2869 483.228 88.4023 486.259 85.0523C489.29 81.7023 490.995 77.1603 491 72.4226V17.8699C490.995 13.1323 489.29 8.59029 486.259 5.24026C483.228 1.89022 479.119 0.00567046 474.832 0ZM489.298 72.4226C489.292 76.6611 487.766 80.7243 485.055 83.7214C482.343 86.7185 478.667 88.405 474.832 88.4112H16.1678C12.333 88.405 8.65686 86.7185 5.94523 83.7214C3.23359 80.7243 1.70772 76.6611 1.70208 72.4226V17.8699C1.70772 13.6314 3.23359 9.56824 5.94523 6.57113C8.65686 3.57402 12.333 1.8875 16.1678 1.88127H474.832C478.667 1.8875 482.343 3.57402 485.055 6.57113C487.766 9.56824 489.292 13.6314 489.298 17.8699V72.4226Z"
          fill="#3F3D56"/>
    <path d="M474.832 219.146H16.1678C11.8814 219.14 7.77205 217.255 4.74111 213.905C1.71016 210.555 0.00513035 206.013 0 201.276V146.724C0.00513035 141.987 1.71016 137.445 4.74111 134.095C7.77205 130.744 11.8814 128.86 16.1678 128.854H474.832C479.119 128.86 483.228 130.744 486.259 134.095C489.29 137.445 490.995 141.987 491 146.724V201.276C490.995 206.013 489.29 210.555 486.259 213.905C483.228 217.255 479.119 219.14 474.832 219.146ZM16.1678 130.736C12.3326 130.74 8.65573 132.426 5.94382 135.424C3.23191 138.421 1.70644 142.485 1.70208 146.724V201.276C1.70567 205.515 3.23079 209.58 5.94279 212.578C8.65478 215.576 12.3321 217.263 16.1678 217.268H474.832C478.668 217.263 482.345 215.577 485.057 212.58C487.769 209.582 489.294 205.518 489.299 201.279V146.724C489.294 142.485 487.769 138.421 485.057 135.424C482.345 132.426 478.668 130.74 474.833 130.736H16.1678Z"
          fill="#CCCCCC"/>
    <path d="M474.832 348H16.1678C11.8814 347.994 7.77205 346.11 4.74111 342.76C1.71016 339.41 0.00513035 334.868 0 330.13V275.578C0.00513035 270.841 1.71016 266.299 4.74111 262.949C7.77205 259.599 11.8814 257.714 16.1678 257.708H474.832C479.119 257.714 483.228 259.599 486.259 262.949C489.29 266.299 490.995 270.841 491 275.578V330.13C490.995 334.868 489.29 339.41 486.259 342.76C483.228 346.11 479.119 347.994 474.832 348ZM16.1678 259.585C12.3326 259.59 8.65573 261.276 5.94382 264.274C3.23191 267.271 1.70644 271.335 1.70208 275.574V330.126C1.70618 334.365 3.23154 338.429 5.94348 341.427C8.65542 344.424 12.3324 346.111 16.1678 346.115H474.832C478.668 346.111 482.345 344.425 485.057 341.428C487.769 338.43 489.294 334.366 489.299 330.127V275.578C489.296 271.339 487.77 267.273 485.058 264.275C482.346 261.277 478.668 259.59 474.832 259.585H16.1678Z"
          fill="#CCCCCC"/>
    <path d="M78.1435 76.2493C72.5779 76.2493 67.1372 74.4251 62.5095 71.0074C57.8818 67.5898 54.275 62.7321 52.1451 57.0488C50.0152 51.3654 49.4579 45.1116 50.5437 39.0782C51.6295 33.0448 54.3096 27.5027 58.2452 23.1529C62.1807 18.803 67.1949 15.8407 72.6536 14.6406C78.1123 13.4405 83.7704 14.0564 88.9125 16.4106C94.0545 18.7647 98.4494 22.7513 101.542 27.8661C104.634 32.981 106.284 38.9945 106.284 45.1461C106.284 53.3952 103.319 61.3064 98.0419 67.1394C92.7645 72.9723 85.6069 76.2493 78.1435 76.2493Z"
          fill="#05A98B"/>
    <path d="M433.284 70.5401H132.9C131.094 70.5401 129.363 69.7473 128.086 68.3362C126.809 66.925 126.092 65.0112 126.092 63.0155C126.092 61.0199 126.809 59.106 128.086 57.6949C129.363 56.2837 131.094 55.491 132.9 55.491H433.284C435.09 55.491 436.821 56.2837 438.098 57.6949C439.375 59.106 440.092 61.0199 440.092 63.0155C440.092 65.0112 439.375 66.925 438.098 68.3362C436.821 69.7473 435.09 70.5401 433.284 70.5401Z"
          fill="#CCCCCC"/>
    <path d="M335.419 38.5618H132.893C131.088 38.5618 129.356 37.769 128.079 36.3579C126.803 34.9468 126.085 33.0329 126.085 31.0373C126.085 29.0416 126.803 27.1277 128.079 25.7166C129.356 24.3055 131.088 23.5127 132.893 23.5127H335.419C337.225 23.5127 338.957 24.3055 340.233 25.7166C341.51 27.1277 342.227 29.0416 342.227 31.0373C342.227 33.0329 341.51 34.9468 340.233 36.3579C338.957 37.769 337.225 38.5618 335.419 38.5618Z"
          fill="#CCCCCC"/>
    <path d="M78.1435 205.103C72.5779 205.103 67.1372 203.278 62.5095 199.861C57.8818 196.443 54.275 191.585 52.1451 185.902C50.0152 180.219 49.4579 173.965 50.5437 167.931C51.6295 161.898 54.3096 156.356 58.2452 152.006C62.1807 147.656 67.1949 144.694 72.6536 143.494C78.1123 142.294 83.7704 142.91 88.9125 145.264C94.0545 147.618 98.4494 151.605 101.542 156.719C104.634 161.834 106.284 167.848 106.284 173.999C106.284 182.248 103.319 190.16 98.0419 195.993C92.7645 201.826 85.6069 205.103 78.1435 205.103Z"
          fill="#E6E6E6"/>
    <path d="M433.284 199.395H132.9C131.094 199.395 129.363 198.602 128.086 197.191C126.809 195.78 126.092 193.866 126.092 191.87C126.092 189.874 126.809 187.96 128.086 186.549C129.363 185.138 131.094 184.345 132.9 184.345H433.284C435.09 184.345 436.821 185.138 438.098 186.549C439.375 187.96 440.092 189.874 440.092 191.87C440.092 193.866 439.375 195.78 438.098 197.191C436.821 198.602 435.09 199.395 433.284 199.395Z"
          fill="#E6E6E6"/>
    <path d="M335.419 167.416H132.893C131.088 167.416 129.356 166.623 128.079 165.212C126.803 163.801 126.085 161.887 126.085 159.891C126.085 157.896 126.803 155.982 128.079 154.571C129.356 153.16 131.088 152.367 132.893 152.367H335.419C337.225 152.367 338.957 153.16 340.233 154.571C341.51 155.982 342.227 157.896 342.227 159.891C342.227 161.887 341.51 163.801 340.233 165.212C338.957 166.623 337.225 167.416 335.419 167.416Z"
          fill="#E6E6E6"/>
    <path d="M78.1435 333.957C72.5779 333.957 67.1372 332.133 62.5095 328.715C57.8818 325.298 54.275 320.44 52.1451 314.757C50.0152 309.073 49.4579 302.819 50.5437 296.786C51.6295 290.753 54.3096 285.21 58.2452 280.861C62.1807 276.511 67.1949 273.549 72.6536 272.348C78.1123 271.148 83.7704 271.764 88.9125 274.118C94.0545 276.472 98.4494 280.459 101.542 285.574C104.634 290.689 106.284 296.702 106.284 302.854C106.284 311.103 103.319 319.014 98.0419 324.847C92.7645 330.68 85.6069 333.957 78.1435 333.957Z"
          fill="#E6E6E6"/>
    <path d="M433.284 328.249H132.9C131.094 328.249 129.363 327.456 128.086 326.045C126.809 324.634 126.092 322.72 126.092 320.724C126.092 318.729 126.809 316.815 128.086 315.404C129.363 313.992 131.094 313.2 132.9 313.2H433.284C435.09 313.2 436.821 313.992 438.098 315.404C439.375 316.815 440.092 318.729 440.092 320.724C440.092 322.72 439.375 324.634 438.098 326.045C436.821 327.456 435.09 328.249 433.284 328.249Z"
          fill="#E6E6E6"/>
    <path d="M335.419 296.271H132.893C131.088 296.271 129.356 295.478 128.079 294.067C126.803 292.656 126.085 290.742 126.085 288.746C126.085 286.75 126.803 284.836 128.079 283.425C129.356 282.014 131.088 281.221 132.893 281.221H335.419C337.225 281.221 338.957 282.014 340.233 283.425C341.51 284.836 342.227 286.75 342.227 288.746C342.227 290.742 341.51 292.656 340.233 294.067C338.957 295.478 337.225 296.271 335.419 296.271Z"
          fill="#E6E6E6"/>
    <path d="M76.7071 56.0868C76.0081 56.0886 75.3277 55.8389 74.7685 55.3754L74.7336 55.3465L67.4396 49.1799C67.1018 48.8936 66.8183 48.5366 66.6053 48.1293C66.3923 47.722 66.2539 47.2723 66.1982 46.8058C66.1424 46.3394 66.1703 45.8654 66.2803 45.4109C66.3903 44.9564 66.5802 44.5303 66.8392 44.1569C67.0981 43.7835 67.4211 43.4701 67.7897 43.2347C68.1582 42.9993 68.5651 42.8464 68.9871 42.7847C69.4091 42.7231 69.8379 42.7539 70.2491 42.8755C70.6603 42.9971 71.0459 43.207 71.3837 43.4932L76.108 47.4979L87.2714 31.3999C87.7943 30.6464 88.5665 30.1533 89.4182 30.0289C90.27 29.9045 91.1315 30.1592 91.8135 30.7367L91.7447 30.8439L91.8155 30.7367C92.4964 31.3155 92.9419 32.1692 93.0542 33.1105C93.1665 34.0519 92.9365 35.004 92.4145 35.7581L79.2834 54.6844C78.9792 55.1197 78.5884 55.4717 78.1413 55.7132C77.6942 55.9547 77.2028 56.0793 76.7051 56.0771L76.7071 56.0868Z"
          fill="white"/>
</svg>
