<svg width="491" height="348" viewBox="0 0 491 348" fill="none" xmlns="http://www.w3.org/2000/svg">
    <g clip-path="url(#clip0_87_10)">
        <path d="M159.472 36.9836L164.787 56.931L153.482 84.6957L135.267 54.8648L137.794 37.5585L159.472 36.9836Z"
              fill="#A0616A"/>
        <path d="M165.775 55.8979H134.325V87.1495H165.775V55.8979Z" fill="#05A98B"/>
        <path d="M152.842 47.0315C164.704 47.0315 174.32 39.1231 174.32 29.3676C174.32 19.612 164.704 11.7036 152.842 11.7036C140.98 11.7036 131.364 19.612 131.364 29.3676C131.364 39.1231 140.98 47.0315 152.842 47.0315Z"
              fill="#A0616A"/>
        <path d="M134.146 42.5024C134.146 42.5024 118.137 18.1856 132.571 6.48376C147.006 -5.21811 158.594 2.49269 158.594 2.49269L165.211 2.27276C165.211 2.27276 166.591 6.55541 168.816 4.23703C171.041 1.91865 175.062 10.3619 175.062 10.3619C182.526 21.4161 156.653 23.8924 156.653 23.8924C156.653 23.8924 158.521 28.7869 156.622 29.8119C154.723 30.8369 149.65 34.6928 149.65 34.6928L145.108 37.5136L142.41 34.1319C142.41 34.1319 139.591 32.3018 138.166 33.0705C136.742 33.8393 138.701 43.9542 138.701 43.9542L134.146 42.5024Z"
              fill="#2E2E41"/>
        <path d="M108.38 221.397L100.169 322.135L120.356 322.698L147.043 222.241L108.38 221.397Z" fill="#2E2E41"/>
        <path d="M157.308 220.834L149.096 321.573L169.283 322.135L195.971 221.679L157.308 220.834Z" fill="#2E2E41"/>
        <path d="M103.436 244.413L114.182 134.695L97.7018 77.5622C96.281 69.0694 102.788 61.0335 112.83 58.8423L128.956 55.3237L136.093 49.4534L152.328 78.9385L162.468 49.4759L170.375 54.2056L193.828 62.7152L193.818 62.9145L190.056 131.93L198.453 243.436L198.081 243.44L103.436 244.413Z"
              fill="#E8E9EA"/>
        <path d="M167.987 320.99L173.832 335.341C173.832 335.341 196.7 337.898 197.056 343.721C197.412 349.543 165.978 346.173 147.571 346.933C129.164 347.694 144.486 331.301 144.486 331.301L146.448 321.881L167.987 320.99Z"
              fill="#2E2E41"/>
        <path d="M120.252 319.957L126.097 334.308C126.097 334.308 148.965 336.865 149.321 342.687C149.677 348.51 118.242 345.139 99.8358 345.9C81.4292 346.661 96.7513 330.268 96.7513 330.268L98.7127 320.848L120.252 319.957Z"
              fill="#2E2E41"/>
        <path d="M91.7344 186.143C91.4865 183.313 92.0664 180.476 93.4254 177.869L89.063 148.437L106.152 147.14L108.737 177.134C110.454 179.593 111.43 182.355 111.584 185.188C112.087 192.275 108.05 198.231 102.568 198.494C97.0865 198.757 92.2356 193.227 91.7344 186.143Z"
              fill="#A0616A"/>
        <path d="M199.971 190.463C199.761 187.631 200.378 184.799 201.772 182.204L197.8 152.736L214.905 151.591L217.092 181.607C218.777 184.082 219.716 186.852 219.832 189.686C220.241 196.777 216.126 202.696 210.641 202.91C205.156 203.124 200.378 197.551 199.971 190.463Z"
              fill="#A0616A"/>
        <path d="M88.9928 174.34L88.935 174.086L80.0288 134.786L90.5524 70.7896C91.4914 65.0761 97.6948 60.9603 104.69 61.4203C108.343 61.6609 111.621 63.0858 113.92 65.4333C116.219 67.7808 117.214 70.7184 116.721 73.7052L108.801 121.701L113.787 173.038L88.9928 174.34Z"
              fill="#E8E9EA"/>
        <path d="M194.693 173.418L176.787 75.1177C175.857 72.2354 176.401 69.219 178.329 66.6557C180.257 64.0924 183.295 62.3447 186.884 61.7341C193.751 60.5662 200.531 64.0181 202.323 69.5916L219.526 172.183L194.693 173.418Z"
              fill="#E8E9EA"/>
        <path d="M152.854 87.9242C154.068 87.9242 155.052 87.1148 155.052 86.1163C155.052 85.1178 154.068 84.3083 152.854 84.3083C151.639 84.3083 150.655 85.1178 150.655 86.1163C150.655 87.1148 151.639 87.9242 152.854 87.9242Z"
              fill="#D6D7D8"/>
        <path d="M152.854 101.613C154.068 101.613 155.052 100.804 155.052 99.805C155.052 98.8065 154.068 97.9971 152.854 97.9971C151.639 97.9971 150.655 98.8065 150.655 99.805C150.655 100.804 151.639 101.613 152.854 101.613Z"
              fill="#D6D7D8"/>
        <path d="M152.854 115.302C154.068 115.302 155.052 114.492 155.052 113.494C155.052 112.495 154.068 111.686 152.854 111.686C151.639 111.686 150.655 112.495 150.655 113.494C150.655 114.492 151.639 115.302 152.854 115.302Z"
              fill="#D6D7D8"/>
        <path d="M152.854 128.99C154.068 128.99 155.052 128.181 155.052 127.182C155.052 126.184 154.068 125.374 152.854 125.374C151.639 125.374 150.655 126.184 150.655 127.182C150.655 128.181 151.639 128.99 152.854 128.99Z"
              fill="#D6D7D8"/>
        <path d="M152.854 142.679C154.068 142.679 155.052 141.869 155.052 140.871C155.052 139.872 154.068 139.063 152.854 139.063C151.639 139.063 150.655 139.872 150.655 140.871C150.655 141.869 151.639 142.679 152.854 142.679Z"
              fill="#D6D7D8"/>
        <path d="M152.854 156.368C154.068 156.368 155.052 155.558 155.052 154.56C155.052 153.561 154.068 152.752 152.854 152.752C151.639 152.752 150.655 153.561 150.655 154.56C150.655 155.558 151.639 156.368 152.854 156.368Z"
              fill="#D6D7D8"/>
        <path d="M152.854 170.056C154.068 170.056 155.052 169.247 155.052 168.248C155.052 167.25 154.068 166.44 152.854 166.44C151.639 166.44 150.655 167.25 150.655 168.248C150.655 169.247 151.639 170.056 152.854 170.056Z"
              fill="#D6D7D8"/>
        <path d="M152.854 183.745C154.068 183.745 155.052 182.936 155.052 181.937C155.052 180.939 154.068 180.129 152.854 180.129C151.639 180.129 150.655 180.939 150.655 181.937C150.655 182.936 151.639 183.745 152.854 183.745Z"
              fill="#D6D7D8"/>
        <path d="M152.856 194.334L111.262 189.775L110.461 189.688L89.2024 149.376L76.5425 125.375H109.518L152.856 194.334Z"
              fill="#05A98B"/>
        <path d="M319.629 41.3691L346.074 29.4546V63.4962H315.49L319.629 41.3691Z" fill="#2E2E41"/>
        <path d="M351.744 48.9587L354.184 65.6711L336.595 94.4785L325.677 67.6664L330.81 48.4036L351.744 48.9587Z"
              fill="#A0616A"/>
        <path d="M355.094 66.6687H324.723V96.8479H355.094V66.6687Z" fill="#05A98B"/>
        <path d="M380.149 226.489L388.079 323.771L368.584 324.314L342.812 227.304L380.149 226.489Z" fill="#2E2E41"/>
        <path d="M332.9 225.946L340.83 323.227L321.336 323.771L295.563 226.761L332.9 225.946Z" fill="#2E2E41"/>
        <path d="M400.744 247.122L400.28 247.121L276.092 246.787L276.204 246.426L308.132 142.389L300.134 89.886C298.619 79.9372 305.095 70.5335 316.248 66.4867L320.275 65.0259L327.925 60.4507L337.711 88.8898L353.382 60.4285L360.286 66.1052L375.855 69.5025C385.559 71.6198 391.846 79.3847 390.479 87.5644L390.462 87.6214L366.686 143.416L400.744 247.122Z"
              fill="#E8E9EA"/>
        <path d="M322.587 322.665L343.387 323.525L345.282 332.622C345.282 332.622 360.078 348.453 342.303 347.718C324.528 346.983 294.172 350.238 294.516 344.615C294.859 338.993 316.943 336.523 316.943 336.523L322.587 322.665Z"
              fill="#2E2E41"/>
        <path d="M368.684 321.667L389.484 322.527L391.379 331.624C391.379 331.624 406.175 347.455 388.4 346.72C370.625 345.986 340.269 349.24 340.613 343.618C340.956 337.995 363.039 335.526 363.039 335.526L368.684 321.667Z"
              fill="#2E2E41"/>
        <path d="M387.732 191.447C387.248 198.288 382.564 203.628 377.27 203.374C371.976 203.12 368.078 197.369 368.564 190.525C368.712 187.789 369.655 185.122 371.313 182.747L373.809 153.782L390.312 155.035L386.099 183.457C387.411 185.975 387.971 188.715 387.732 191.447Z"
              fill="#A0616A"/>
        <path d="M302.927 188.846C302.266 195.677 297.444 200.933 292.158 200.587C286.872 200.24 283.124 194.422 283.787 187.588C284.006 184.856 285.017 182.206 286.737 179.861L289.982 150.946L306.449 152.487L301.501 180.829C302.748 183.369 303.237 186.118 302.927 188.846Z"
              fill="#A0616A"/>
        <path d="M390.389 180.059L366.422 178.801L366.451 178.506L371.239 129.217L363.591 82.8689C363.114 79.982 364.076 77.1424 366.298 74.8734C368.52 72.6042 371.688 71.2268 375.22 70.9942C381.982 70.5559 387.977 74.5281 388.885 80.0506L399.048 141.852L399.037 141.898L390.389 180.059Z"
              fill="#E8E9EA"/>
        <path d="M306.917 178.171L282.912 176.978L282.965 176.666L299.518 77.9296C301.259 72.5067 307.816 69.1712 314.45 70.2995C317.919 70.8896 320.856 72.579 322.719 75.0569C324.583 77.5348 325.11 80.4501 324.202 83.2665L306.917 178.171Z"
              fill="#E8E9EA"/>
        <path d="M337.201 97.5963C338.374 97.5963 339.324 96.8146 339.324 95.8504C339.324 94.8862 338.374 94.1045 337.201 94.1045C336.029 94.1045 335.078 94.8862 335.078 95.8504C335.078 96.8146 336.029 97.5963 337.201 97.5963Z"
              fill="#D6D7D8"/>
        <path d="M337.201 110.815C338.374 110.815 339.324 110.034 339.324 109.069C339.324 108.105 338.374 107.323 337.201 107.323C336.029 107.323 335.078 108.105 335.078 109.069C335.078 110.034 336.029 110.815 337.201 110.815Z"
              fill="#D6D7D8"/>
        <path d="M337.201 124.034C338.374 124.034 339.324 123.252 339.324 122.288C339.324 121.324 338.374 120.542 337.201 120.542C336.029 120.542 335.078 121.324 335.078 122.288C335.078 123.252 336.029 124.034 337.201 124.034Z"
              fill="#D6D7D8"/>
        <path d="M337.201 137.253C338.374 137.253 339.324 136.471 339.324 135.507C339.324 134.543 338.374 133.761 337.201 133.761C336.029 133.761 335.078 134.543 335.078 135.507C335.078 136.471 336.029 137.253 337.201 137.253Z"
              fill="#D6D7D8"/>
        <path d="M337.201 150.472C338.374 150.472 339.324 149.69 339.324 148.726C339.324 147.762 338.374 146.98 337.201 146.98C336.029 146.98 335.078 147.762 335.078 148.726C335.078 149.69 336.029 150.472 337.201 150.472Z"
              fill="#D6D7D8"/>
        <path d="M337.201 163.691C338.374 163.691 339.324 162.909 339.324 161.945C339.324 160.981 338.374 160.199 337.201 160.199C336.029 160.199 335.078 160.981 335.078 161.945C335.078 162.909 336.029 163.691 337.201 163.691Z"
              fill="#D6D7D8"/>
        <path d="M337.201 176.91C338.374 176.91 339.324 176.128 339.324 175.164C339.324 174.2 338.374 173.418 337.201 173.418C336.029 173.418 335.078 174.2 335.078 175.164C335.078 176.128 336.029 176.91 337.201 176.91Z"
              fill="#D6D7D8"/>
        <path d="M337.201 190.129C338.374 190.129 339.324 189.347 339.324 188.383C339.324 187.419 338.374 186.637 337.201 186.637C336.029 186.637 335.078 187.419 335.078 188.383C335.078 189.347 336.029 190.129 337.201 190.129Z"
              fill="#D6D7D8"/>
        <path d="M340.424 57.488C351.391 57.488 360.281 50.1767 360.281 41.1577C360.281 32.1387 351.391 24.8274 340.424 24.8274C329.458 24.8274 320.568 32.1387 320.568 41.1577C320.568 50.1767 329.458 57.488 340.424 57.488Z"
              fill="#A0616A"/>
        <path d="M350.83 22.0942C351.781 23.6857 350.272 25.6737 348.275 26.3428C346.278 27.0119 344.022 26.7408 341.893 26.4623C339.763 26.1837 337.504 25.9196 335.513 26.6006C332.936 27.4817 331.484 29.6919 330.233 31.7429C327.896 35.5718 325.56 39.4006 323.224 43.2295C322.083 45.1002 320.915 47.055 320.893 49.148C320.853 52.9898 324.559 56.06 326.553 59.5344C328.98 63.7646 328.78 68.9488 326.031 73.0439C323.282 77.139 318.054 80.0405 312.408 80.6049C310.922 80.7534 309.35 80.7372 308.014 80.1822C306.679 79.6271 305.659 78.415 305.907 77.2012C306.391 74.8271 310.801 74.2724 311.612 71.9592C312.034 70.7517 311.286 69.4621 310.276 68.519C309.266 67.5758 307.989 66.8401 307.026 65.8645C304.806 63.615 304.658 60.1424 306.681 57.7705C307.871 56.3766 309.71 55.341 310.479 53.7598C311.134 52.412 310.896 50.897 310.648 49.46C310.329 47.6134 310.01 45.7668 309.692 43.9202C309.32 41.7658 308.953 39.5342 309.688 37.4438C311.373 32.6536 317.95 30.4038 321.807 26.5561C323.599 24.768 324.805 22.6177 326.644 20.8619C329.729 17.9153 334.587 16.2899 339.297 16.6278C344.008 16.9657 348.45 19.2582 350.869 22.5996"
              fill="#2E2E41"/>
        <path d="M347.695 22.3962C346.725 22.6816 346.365 23.7207 346.644 24.5363C346.924 25.3519 347.655 25.9999 348.324 26.6441C355.894 33.9297 357.653 44.95 352.627 53.5958C351.29 55.8955 349.509 58.0598 348.788 60.5389C348.263 62.3427 348.292 64.3213 347.075 65.8829C345.836 67.4728 343.381 68.5381 343.139 70.4158C342.983 71.6207 343.876 72.7912 345.073 73.4977C346.27 74.2041 347.732 74.5274 349.171 74.7909C352.909 75.4759 356.731 75.8499 360.56 75.9053C361.808 75.9234 363.096 75.9011 364.242 75.4921C365.387 75.083 366.364 74.1958 366.377 73.169C366.387 72.3621 365.822 71.6176 365.749 70.8128C365.533 68.4012 369.479 67.1182 370.248 64.7841C370.753 63.2496 369.757 61.6705 368.696 60.3415C367.636 59.0124 366.425 57.6168 366.451 56.0272C366.476 54.5053 367.637 53.1651 368.089 51.6891C368.713 49.6475 367.946 47.512 367.186 45.5019C366.539 43.7929 365.892 42.084 365.245 40.3751C364.558 38.5584 363.871 36.7418 363.183 34.9251C361.983 31.7536 360.723 28.4902 358.126 25.9465C355.529 23.4028 351.225 21.7356 347.389 22.7741"
              fill="#2E2E41"/>
        <path d="M361.226 85.6765L359.865 85.3503C362.701 77.3548 356.587 62.434 356.525 62.2843L357.867 61.908C358.126 62.5339 364.186 77.3309 361.226 85.6765Z"
              fill="#3F3C57"/>
        <path d="M360.546 94.8604C363.816 94.8604 366.467 92.6799 366.467 89.9902C366.467 87.3005 363.816 85.1201 360.546 85.1201C357.275 85.1201 354.624 87.3005 354.624 89.9902C354.624 92.6799 357.275 94.8604 360.546 94.8604Z"
              fill="#3F3C57"/>
        <path d="M321.636 107.232H318.045C317.653 107.232 317.336 106.971 317.336 106.649C317.336 106.327 317.653 106.066 318.045 106.066H321.636C322.626 106.066 323.556 105.749 324.255 105.173C324.953 104.597 325.338 103.831 325.335 103.018L325.292 84.8257C325.292 80.8736 321.384 77.6593 316.579 77.6593C311.775 77.6593 307.866 80.8736 307.866 84.8245L307.91 101.853C307.914 103.514 309.561 104.876 311.581 104.888L314.046 104.904C314.437 104.906 314.752 105.169 314.749 105.491C314.746 105.811 314.429 106.07 314.04 106.07H314.035L311.57 106.054C308.776 106.037 306.498 104.153 306.492 101.855L306.449 84.8257C306.449 80.2309 310.993 76.4934 316.579 76.4934C322.165 76.4934 326.71 80.2309 326.71 84.8245L326.753 103.016C326.756 104.141 326.225 105.2 325.258 105.996C324.292 106.793 323.005 107.232 321.636 107.232Z"
              fill="#3F3C57"/>
        <path d="M314.041 107.553C315.428 107.553 316.553 106.628 316.553 105.487C316.553 104.345 315.428 103.42 314.041 103.42C312.653 103.42 311.528 104.345 311.528 105.487C311.528 106.628 312.653 107.553 314.041 107.553Z"
              fill="#3F3C57"/>
        <path d="M318.045 108.715C319.432 108.715 320.557 107.79 320.557 106.649C320.557 105.508 319.432 104.583 318.045 104.583C316.657 104.583 315.532 105.508 315.532 106.649C315.532 107.79 316.657 108.715 318.045 108.715Z"
              fill="#3F3C57"/>
        <path d="M173.008 76.938L171.647 76.6118C174.482 68.6163 168.437 53.4644 168.375 53.3147L170.077 54.3693C170.336 54.9953 175.968 68.5924 173.008 76.938Z"
              fill="#3F3C57"/>
        <path d="M125.168 78.3585L126.529 78.0323C123.694 70.0368 129.807 55.116 129.869 54.9663L128.413 55.7683C128.154 56.3943 122.208 70.0129 125.168 78.3585Z"
              fill="#3F3C57"/>
        <path d="M172.327 86.1218C175.598 86.1218 178.249 83.9414 178.249 81.2517C178.249 78.562 175.598 76.3816 172.327 76.3816C169.057 76.3816 166.406 78.562 166.406 81.2517C166.406 83.9414 169.057 86.1218 172.327 86.1218Z"
              fill="#3F3C57"/>
        <path d="M131.481 108.308H127.89C127.498 108.308 127.181 108.047 127.181 107.725C127.181 107.403 127.498 107.142 127.89 107.142H131.481C132.471 107.142 133.401 106.825 134.1 106.249C134.798 105.673 135.183 104.908 135.18 104.094L135.137 85.9018C135.137 81.9498 131.229 78.7355 126.424 78.7355C121.62 78.7355 117.711 81.9498 117.711 85.9007L117.755 102.929C117.759 104.59 119.406 105.952 121.426 105.965L123.891 105.98C124.282 105.982 124.597 106.245 124.594 106.567C124.591 106.888 124.274 107.146 123.885 107.146H123.88L121.415 107.13C118.621 107.113 116.343 105.229 116.337 102.931L116.294 85.9018C116.294 81.307 120.838 77.5696 126.424 77.5696C132.01 77.5696 136.554 81.307 136.554 85.9007L136.598 104.092C136.601 105.217 136.07 106.276 135.103 107.072C134.137 107.869 132.85 108.308 131.481 108.308Z"
              fill="#3F3C57"/>
        <path d="M123.886 108.629C125.273 108.629 126.398 107.704 126.398 106.563C126.398 105.422 125.273 104.497 123.886 104.497C122.498 104.497 121.373 105.422 121.373 106.563C121.373 107.704 122.498 108.629 123.886 108.629Z"
              fill="#3F3C57"/>
        <path d="M127.89 109.791C129.277 109.791 130.402 108.866 130.402 107.725C130.402 106.584 129.277 105.659 127.89 105.659C126.502 105.659 125.377 106.584 125.377 107.725C125.377 108.866 126.502 109.791 127.89 109.791Z"
              fill="#3F3C57"/>
    </g>
    <defs>
        <clipPath id="clip0_87_10">
            <rect width="491" height="348" fill="white"/>
        </clipPath>
    </defs>
</svg>
