<svg width="218" height="182" viewBox="0 0 218 182" fill="none" xmlns="http://www.w3.org/2000/svg">
    <path d="M214.636 69.0322H214.56L170.91 86.3689L111.189 110.089C110.955 110.181 110.705 110.228 110.452 110.229C110.199 110.231 109.948 110.185 109.713 110.096L48.0982 86.3193L3.37629 69.0605L3.30798 69.0322H3.23184C2.5262 69.033 1.84969 69.294 1.35072 69.7581C0.85176 70.2223 0.571098 70.8515 0.570312 71.5079V179.022C0.5711 179.678 0.85176 180.308 1.35072 180.772C1.84969 181.236 2.5262 181.497 3.23184 181.498H214.636C215.342 181.497 216.018 181.236 216.517 180.772C217.016 180.308 217.297 179.678 217.297 179.022V71.5079C217.297 70.8515 217.016 70.2223 216.517 69.7581C216.018 69.294 215.342 69.033 214.636 69.0322Z"
          fill="white"/>
    <path d="M214.826 69.7395C214.748 69.7395 214.673 69.7174 214.609 69.6761L109.455 1.55895C109.135 1.35261 108.755 1.24235 108.365 1.24296C107.976 1.24358 107.596 1.35505 107.277 1.5624L2.88001 69.6754C2.79743 69.7291 2.6953 69.7501 2.59605 69.7339C2.49681 69.7176 2.40856 69.6654 2.35069 69.5886C2.29282 69.5119 2.27007 69.4169 2.28742 69.3246C2.30478 69.2322 2.36082 69.1501 2.44325 69.0962L106.84 0.983227C107.287 0.692992 107.819 0.536969 108.364 0.536136C108.909 0.535303 109.441 0.689697 109.889 0.978564L215.044 69.0955C215.11 69.1386 215.16 69.2002 215.186 69.2715C215.212 69.3428 215.213 69.4199 215.189 69.4918C215.165 69.5636 215.116 69.6264 215.051 69.6709C214.986 69.7155 214.907 69.7395 214.826 69.7395Z"
          fill="#3F3D56"/>
    <path d="M8.84521 72.1543L108.468 3.47852L208.847 77.0408L113.601 129.56L61.8908 118.597L8.84521 72.1543Z"
          fill="#E6E6E6"/>
    <path d="M66.256 161.999H17.0398C16.7376 162 16.4381 161.945 16.1586 161.838C15.8791 161.731 15.625 161.574 15.4109 161.376C15.1967 161.177 15.0267 160.942 14.9105 160.682C14.7943 160.423 14.7343 160.144 14.7339 159.863C14.7334 159.582 14.7926 159.304 14.9079 159.044C15.0233 158.784 15.1925 158.548 15.4061 158.349C15.6196 158.15 15.8732 157.992 16.1524 157.885C16.4315 157.777 16.7308 157.721 17.033 157.721H66.256C66.5582 157.721 66.8576 157.775 67.1371 157.882C67.4166 157.989 67.6707 158.146 67.8849 158.345C68.0991 158.543 68.2691 158.779 68.3852 159.038C68.5014 159.298 68.5614 159.576 68.5619 159.857C68.5623 160.138 68.5032 160.417 68.3878 160.676C68.2725 160.936 68.1032 161.172 67.8897 161.371C67.6762 161.57 67.4226 161.728 67.1434 161.836C66.8642 161.943 66.565 161.999 66.2628 161.999H66.256Z"
          fill="#05A98B"/>
    <path d="M34.6975 152.804H17.0398C16.7376 152.804 16.4381 152.75 16.1586 152.643C15.8791 152.536 15.625 152.379 15.4109 152.18C15.1967 151.982 15.0267 151.746 14.9105 151.487C14.7944 151.227 14.7343 150.949 14.7339 150.668C14.7334 150.387 14.7926 150.108 14.9079 149.849C15.0233 149.589 15.1925 149.353 15.4061 149.154C15.6196 148.955 15.8732 148.797 16.1524 148.689C16.4315 148.582 16.7308 148.526 17.033 148.526H34.6975C35.3067 148.526 35.8911 148.751 36.3223 149.151C36.7535 149.552 36.9962 150.095 36.9971 150.662C36.998 151.228 36.757 151.772 36.3271 152.174C35.8973 152.576 35.3136 152.802 34.7043 152.804H34.6975Z"
          fill="#05A98B"/>
    <path d="M109.869 110.406C109.495 110.406 109.125 110.339 108.778 110.207L47.3379 86.4942V12.2691C47.3387 11.6128 47.6194 10.9835 48.1183 10.5194C48.6173 10.0553 49.2938 9.79423 49.9994 9.79346H167.869C168.574 9.79423 169.251 10.0553 169.75 10.5194C170.249 10.9835 170.529 11.6128 170.53 12.2691V86.546L170.415 86.5919L110.993 110.195C110.637 110.335 110.255 110.406 109.869 110.406Z"
          fill="white"/>
    <path d="M214.066 69.0322H213.99L170.34 86.3689L110.618 110.089C110.385 110.18 110.135 110.228 109.881 110.229C109.628 110.231 109.377 110.185 109.143 110.096L47.5279 86.3193L2.80602 69.0605L2.73771 69.0322H2.66153C1.95589 69.033 1.27937 69.294 0.78041 69.7581C0.281447 70.2223 0.00078477 70.8515 0 71.5079V179.022C0.000784773 179.678 0.281447 180.308 0.78041 180.772C1.27937 181.236 1.95589 181.497 2.66153 181.498H214.066C214.771 181.497 215.448 181.236 215.947 180.772C216.446 180.308 216.726 179.678 216.727 179.022V71.5079C216.726 70.8515 216.446 70.2223 215.947 69.7581C215.448 69.294 214.771 69.033 214.066 69.0322ZM215.967 179.022C215.967 179.491 215.766 179.941 215.41 180.272C215.053 180.604 214.57 180.79 214.066 180.79H2.66153C2.15738 180.79 1.67394 180.604 1.31745 180.272C0.960967 179.941 0.760602 179.491 0.760402 179.022V71.5079C0.761091 71.0506 0.95179 70.6113 1.29263 70.2817C1.63347 69.9522 2.09807 69.7579 2.58931 69.7396L47.5279 87.0833L108.85 110.751C109.514 111.002 110.258 110.998 110.919 110.74L170.34 87.1363L214.142 69.7396C214.632 69.7593 215.095 69.9541 215.435 70.2834C215.775 70.6128 215.966 71.0513 215.967 71.5079L215.967 179.022Z"
          fill="#3F3D56"/>
    <path d="M100.304 37.5388H58.4794C57.6735 37.5375 56.9012 37.2388 56.3319 36.7083C55.7626 36.1779 55.4429 35.459 55.4429 34.7094C55.4429 33.9599 55.7626 33.241 56.3319 32.7106C56.9012 32.1801 57.6735 31.8814 58.4794 31.8801H100.304C101.11 31.8814 101.882 32.1801 102.451 32.7106C103.021 33.241 103.34 33.9599 103.34 34.7094C103.34 35.459 103.021 36.1779 102.451 36.7083C101.882 37.2388 101.11 37.5375 100.304 37.5388Z"
          fill="#05A98B"/>
    <path d="M78.6314 25.5141H58.4795C57.6728 25.5141 56.8991 25.216 56.3287 24.6854C55.7582 24.1548 55.4377 23.4352 55.4377 22.6848C55.4377 21.9344 55.7582 21.2148 56.3287 20.6842C56.8991 20.1536 57.6728 19.8555 58.4795 19.8555H78.6314C79.4381 19.8555 80.2118 20.1536 80.7822 20.6842C81.3527 21.2148 81.6731 21.9344 81.6731 22.6848C81.6731 23.4352 81.3527 24.1548 80.7822 24.6854C80.2118 25.216 79.4381 25.5141 78.6314 25.5141Z"
          fill="#05A98B"/>
    <path d="M140.216 65.832H76.3382C75.5314 65.832 74.7577 65.5339 74.1873 65.0033C73.6169 64.4727 73.2964 63.753 73.2964 63.0027C73.2964 62.2523 73.6169 61.5326 74.1873 61.002C74.7577 60.4714 75.5314 60.1733 76.3382 60.1733H140.216C141.022 60.1733 141.796 60.4714 142.367 61.002C142.937 61.5326 143.257 62.2523 143.257 63.0027C143.257 63.753 142.937 64.4727 142.367 65.0033C141.796 65.5339 141.022 65.832 140.216 65.832Z"
          fill="#05A98B"/>
    <path d="M140.216 78.9177H76.3381C75.9382 78.9183 75.5421 78.8456 75.1725 78.7037C74.8028 78.5618 74.4668 78.3535 74.1838 78.0907C73.9008 77.828 73.6763 77.5158 73.5231 77.1722C73.3699 76.8286 73.291 76.4603 73.291 76.0884C73.291 75.7164 73.3699 75.3481 73.5231 75.0045C73.6763 74.6609 73.9008 74.3488 74.1838 74.086C74.4668 73.8232 74.8028 73.6149 75.1725 73.473C75.5421 73.3311 75.9382 73.2584 76.3381 73.259H140.216C140.616 73.2584 141.012 73.3311 141.381 73.473C141.751 73.6149 142.087 73.8232 142.37 74.086C142.653 74.3488 142.878 74.6609 143.031 75.0045C143.184 75.3481 143.263 75.7164 143.263 76.0884C143.263 76.4603 143.184 76.8286 143.031 77.1722C142.878 77.5158 142.653 77.828 142.37 78.0907C142.087 78.3535 141.751 78.5618 141.381 78.7037C141.012 78.8456 140.616 78.9183 140.216 78.9177Z"
          fill="#05A98B"/>
</svg>