<svg width="35" height="28" viewBox="0 0 35 28" fill="none" xmlns="http://www.w3.org/2000/svg">
    <g clip-path="url(#clip0_18_599)" filter="url(#filter0_d_18_599)">
        <path d="M5.09057 2.23901H29.9094L28.8189 1.11951V18.8805C28.8189 20.3212 31 20.3236 31 18.8805C31 18.2753 30.5003 17.761 29.9094 17.761H5.09057C4.50103 17.761 4 18.2739 4 18.8805C4 20.3212 6.18115 20.3236 6.18115 18.8805V1.18321C6.18115 -0.257482 4 -0.259868 4 1.18321V18.8805L6.18115 18.8805C5.81762 19.2537 5.4541 19.6268 5.09057 20H29.9094L28.8189 18.8805C28.8189 20.3212 31 20.3236 31 18.8805V1.11951C31 0.514323 30.5003 0 29.9094 0H5.09057C3.68711 0 3.68479 2.23901 5.09057 2.23901Z"
              fill="#05A98B"/>
        <path d="M4.57929 0.821853C3.91608 3.6493 6.50467 5.79251 8.20487 7.60138C10.0583 9.5733 11.9681 11.4894 13.9311 13.3463C14.8125 14.1801 15.7592 15.1362 16.9867 15.3612C18.3347 15.6083 19.3876 14.8872 20.3469 14.0041C22.3291 12.1792 24.2405 10.2686 26.0953 8.30811C27.1268 7.2179 28.1488 6.1144 29.1334 4.97924C30.0734 3.89558 30.9557 2.4419 30.3511 0.949521C30.1251 0.391672 29.6284 -0.0069659 29.0096 0.167614C28.4963 0.312398 28.0203 0.982977 28.2479 1.54474C28.6085 2.43493 27.7927 3.17079 27.2551 3.77649C26.4862 4.64269 25.7058 5.49806 24.9138 6.34204C23.3298 8.03002 21.7006 9.67309 20.0283 11.2688C19.623 11.6556 19.2163 12.0412 18.8046 12.4209C18.5026 12.6993 18.1649 13.0473 17.759 13.1525C16.957 13.3604 16.146 12.3975 15.6265 11.9076C13.9415 10.3188 12.2956 8.68612 10.6907 7.01216C9.81531 6.0991 8.95191 5.17385 8.10143 4.23629C7.43612 3.50285 6.42144 2.53012 6.68252 1.41707C7.01096 0.0168482 4.90826 -0.580627 4.57929 0.821853Z"
              fill="#05A98B"/>
    </g>
    <defs>
        <filter id="filter0_d_18_599" x="0" y="0" width="35" height="28" filterUnits="userSpaceOnUse"
                color-interpolation-filters="sRGB">
            <feFlood flood-opacity="0" result="BackgroundImageFix"/>
            <feColorMatrix in="SourceAlpha" type="matrix" values="0 0 0 0 0 0 0 0 0 0 0 0 0 0 0 0 0 0 127 0"
                           result="hardAlpha"/>
            <feOffset dy="4"/>
            <feGaussianBlur stdDeviation="2"/>
            <feComposite in2="hardAlpha" operator="out"/>
            <feColorMatrix type="matrix" values="0 0 0 0 0 0 0 0 0 0 0 0 0 0 0 0 0 0 0.25 0"/>
            <feBlend mode="normal" in2="BackgroundImageFix" result="effect1_dropShadow_18_599"/>
            <feBlend mode="normal" in="SourceGraphic" in2="effect1_dropShadow_18_599" result="shape"/>
        </filter>
        <clipPath id="clip0_18_599">
            <rect width="27" height="20" fill="white" transform="translate(4)"/>
        </clipPath>
    </defs>
</svg>