<svg width="491" height="348" viewBox="0 0 491 348" fill="none" xmlns="http://www.w3.org/2000/svg">
    <g clip-path="url(#clip0_71_106)">
        <path d="M233.375 59.0833H240.625V50.625H249.083V43.375H240.625V34.9167H233.375V43.375H224.917V50.625H233.375V59.0833ZM220.083 68.75C218.754 68.75 217.616 68.2771 216.669 67.3314C215.723 66.3841 215.25 65.2458 215.25 63.9167V30.0833C215.25 28.7542 215.723 27.6159 216.669 26.6686C217.616 25.7229 218.754 25.25 220.083 25.25H253.917C255.246 25.25 256.384 25.7229 257.331 26.6686C258.277 27.6159 258.75 28.7542 258.75 30.0833V63.9167C258.75 65.2458 258.277 66.3841 257.331 67.3314C256.384 68.2771 255.246 68.75 253.917 68.75H220.083Z"
              fill="#007160"/>
        <path d="M133.852 339.842H133.82C132.725 339.841 131.674 339.436 130.9 338.717C130.125 337.997 129.689 337.021 129.688 336.004V110.646C129.689 109.629 130.125 108.653 130.9 107.933C131.674 107.214 132.725 106.809 133.82 106.808H337.998C339.094 106.809 340.144 107.214 340.919 107.933C341.694 108.653 342.129 109.629 342.131 110.646V285.874C342.129 286.887 341.698 287.858 340.93 288.577C340.162 289.295 339.12 289.704 338.03 289.713L133.852 339.842Z"
              fill="#F2F2F2"/>
        <path d="M284.766 74.9684H189.969V23.9357C189.971 22.858 190.432 21.8249 191.252 21.0629C192.072 20.301 193.184 19.8723 194.344 19.8711H280.391C281.551 19.8723 282.663 20.301 283.483 21.0629C284.303 21.8249 284.765 22.858 284.766 23.9357V74.9684ZM190.941 74.0652H283.794V23.9357C283.793 23.0975 283.434 22.294 282.796 21.7013C282.158 21.1086 281.293 20.7753 280.391 20.7743H194.344C193.442 20.7753 192.577 21.1086 191.939 21.7013C191.301 22.294 190.942 23.0975 190.941 23.9357V74.0652Z"
              fill="#3F3D56"/>
        <path d="M224.971 20.7744H205.039V2.25809C205.04 1.65942 205.297 1.08546 205.752 0.662135C206.208 0.23881 206.826 0.000684901 207.47 0H222.54C223.185 0.000684901 223.803 0.23881 224.258 0.662135C224.714 1.08546 224.97 1.65942 224.971 2.25809V20.7744ZM206.012 19.8712H223.999V2.25809C223.998 1.89888 223.845 1.55449 223.571 1.3005C223.298 1.0465 222.927 0.903627 222.54 0.903235H207.47C207.084 0.903627 206.713 1.0465 206.439 1.3005C206.166 1.55449 206.012 1.89888 206.012 2.25809V19.8712Z"
              fill="#3F3D56"/>
        <path d="M142.94 78.5814L143.3 79.2407C143.459 79.5252 143.543 79.8413 143.543 80.162V98.0009H160.558V80.162C160.558 79.8413 160.641 79.5252 160.801 79.2407L161.161 78.5814H142.94ZM159.586 80.162V97.0977H144.515V80.162C144.515 79.9338 144.486 79.7063 144.428 79.4846H159.673C159.615 79.7063 159.585 79.9338 159.586 80.162ZM164.33 78.5814L164.69 79.2407C164.849 79.5252 164.933 79.8413 164.933 80.162V98.0009H181.948V80.162C181.948 79.8413 182.031 79.5252 182.191 79.2407L182.551 78.5814H164.33ZM180.976 80.162V97.0977H165.905V80.162C165.906 79.9338 165.876 79.7063 165.818 79.4846H181.063C181.005 79.7063 180.975 79.9338 180.976 80.162ZM185.72 78.5814L186.08 79.2407C186.24 79.5252 186.323 79.8413 186.323 80.162V98.0009H203.338V80.162C203.338 79.8413 203.422 79.5252 203.581 79.2407L203.941 78.5814H185.72ZM202.366 80.162V97.0977H187.295V80.162C187.296 79.9338 187.266 79.7063 187.208 79.4846H202.453C202.395 79.7063 202.365 79.9338 202.366 80.162ZM207.11 78.5814L207.47 79.2407C207.63 79.5252 207.713 79.8413 207.713 80.162V98.0009H224.728V80.162C224.728 79.8413 224.812 79.5252 224.971 79.2407L225.331 78.5814H207.11ZM223.756 80.162V97.0977H208.686V80.162C208.686 79.9338 208.656 79.7063 208.598 79.4846H223.843C223.785 79.7063 223.756 79.9338 223.756 80.162ZM228.5 78.5814L228.86 79.2407C229.02 79.5252 229.103 79.8413 229.103 80.162V98.0009H246.118V80.162C246.118 79.8413 246.202 79.5252 246.361 79.2407L246.721 78.5814H228.5ZM245.146 80.162V97.0977H230.076V80.162C230.076 79.9338 230.046 79.7063 229.988 79.4846H245.234C245.175 79.7063 245.146 79.9338 245.146 80.162ZM249.891 78.5814L250.25 79.2407C250.41 79.5252 250.493 79.8413 250.493 80.162V98.0009H267.508V80.162C267.509 79.8413 267.592 79.5252 267.751 79.2407L268.111 78.5814H249.891ZM266.536 80.162V97.0977H251.466V80.162C251.466 79.9338 251.437 79.7063 251.378 79.4846H266.624C266.565 79.7063 266.536 79.9338 266.536 80.162ZM271.281 78.5814L271.64 79.2407C271.8 79.5252 271.883 79.8413 271.884 80.162V98.0009H288.898V80.162C288.899 79.8413 288.982 79.5252 289.141 79.2407L289.501 78.5814H271.281ZM287.926 80.162V97.0977H272.856V80.162C272.856 79.9338 272.827 79.7063 272.768 79.4846H288.014C287.955 79.7063 287.926 79.9338 287.926 80.162ZM292.671 78.5814L293.031 79.2407C293.19 79.5252 293.273 79.8413 293.274 80.162V98.0009H310.289V80.162C310.289 79.8413 310.372 79.5252 310.532 79.2407L310.891 78.5814H292.671ZM309.316 80.162V97.0977H294.246V80.162C294.246 79.9338 294.217 79.7063 294.158 79.4846H309.404C309.345 79.7063 309.316 79.9338 309.316 80.162ZM314.061 78.5814L314.421 79.2407C314.58 79.5252 314.664 79.8413 314.664 80.162V98.0009H331.679V80.162C331.679 79.8413 331.762 79.5252 331.922 79.2407L332.282 78.5814H314.061ZM330.706 80.162V97.0977H315.636V80.162C315.636 79.9338 315.607 79.7063 315.548 79.4846H330.794C330.735 79.7063 330.706 79.9338 330.706 80.162ZM314.061 78.5814L314.421 79.2407C314.58 79.5252 314.664 79.8413 314.664 80.162V98.0009H331.679V80.162C331.679 79.8413 331.762 79.5252 331.922 79.2407L332.282 78.5814H314.061ZM330.706 80.162V97.0977H315.636V80.162C315.636 79.9338 315.607 79.7063 315.548 79.4846H330.794C330.735 79.7063 330.706 79.9338 330.706 80.162ZM292.671 78.5814L293.031 79.2407C293.19 79.5252 293.273 79.8413 293.274 80.162V98.0009H310.289V80.162C310.289 79.8413 310.372 79.5252 310.532 79.2407L310.891 78.5814H292.671ZM309.316 80.162V97.0977H294.246V80.162C294.246 79.9338 294.217 79.7063 294.158 79.4846H309.404C309.345 79.7063 309.316 79.9338 309.316 80.162ZM271.281 78.5814L271.64 79.2407C271.8 79.5252 271.883 79.8413 271.884 80.162V98.0009H288.898V80.162C288.899 79.8413 288.982 79.5252 289.141 79.2407L289.501 78.5814H271.281ZM287.926 80.162V97.0977H272.856V80.162C272.856 79.9338 272.827 79.7063 272.768 79.4846H288.014C287.955 79.7063 287.926 79.9338 287.926 80.162ZM249.891 78.5814L250.25 79.2407C250.41 79.5252 250.493 79.8413 250.493 80.162V98.0009H267.508V80.162C267.509 79.8413 267.592 79.5252 267.751 79.2407L268.111 78.5814H249.891ZM266.536 80.162V97.0977H251.466V80.162C251.466 79.9338 251.437 79.7063 251.378 79.4846H266.624C266.565 79.7063 266.536 79.9338 266.536 80.162ZM228.5 78.5814L228.86 79.2407C229.02 79.5252 229.103 79.8413 229.103 80.162V98.0009H246.118V80.162C246.118 79.8413 246.202 79.5252 246.361 79.2407L246.721 78.5814H228.5ZM245.146 80.162V97.0977H230.076V80.162C230.076 79.9338 230.046 79.7063 229.988 79.4846H245.234C245.175 79.7063 245.146 79.9338 245.146 80.162ZM207.11 78.5814L207.47 79.2407C207.63 79.5252 207.713 79.8413 207.713 80.162V98.0009H224.728V80.162C224.728 79.8413 224.812 79.5252 224.971 79.2407L225.331 78.5814H207.11ZM223.756 80.162V97.0977H208.686V80.162C208.686 79.9338 208.656 79.7063 208.598 79.4846H223.843C223.785 79.7063 223.756 79.9338 223.756 80.162ZM185.72 78.5814L186.08 79.2407C186.24 79.5252 186.323 79.8413 186.323 80.162V98.0009H203.338V80.162C203.338 79.8413 203.422 79.5252 203.581 79.2407L203.941 78.5814H185.72ZM202.366 80.162V97.0977H187.295V80.162C187.296 79.9338 187.266 79.7063 187.208 79.4846H202.453C202.395 79.7063 202.365 79.9338 202.366 80.162ZM164.33 78.5814L164.69 79.2407C164.849 79.5252 164.933 79.8413 164.933 80.162V98.0009H181.948V80.162C181.948 79.8413 182.031 79.5252 182.191 79.2407L182.551 78.5814H164.33ZM180.976 80.162V97.0977H165.905V80.162C165.906 79.9338 165.876 79.7063 165.818 79.4846H181.063C181.005 79.7063 180.975 79.9338 180.976 80.162ZM142.94 78.5814L143.3 79.2407C143.459 79.5252 143.543 79.8413 143.543 80.162V98.0009H160.558V80.162C160.558 79.8413 160.641 79.5252 160.801 79.2407L161.161 78.5814H142.94ZM159.586 80.162V97.0977H144.515V80.162C144.515 79.9338 144.486 79.7063 144.428 79.4846H159.673C159.615 79.7063 159.585 79.9338 159.586 80.162ZM314.061 78.5814L314.421 79.2407C314.58 79.5252 314.664 79.8413 314.664 80.162V98.0009H331.679V80.162C331.679 79.8413 331.762 79.5252 331.922 79.2407L332.282 78.5814H314.061ZM330.706 80.162V97.0977H315.636V80.162C315.636 79.9338 315.607 79.7063 315.548 79.4846H330.794C330.735 79.7063 330.706 79.9338 330.706 80.162ZM292.671 78.5814L293.031 79.2407C293.19 79.5252 293.273 79.8413 293.274 80.162V98.0009H310.289V80.162C310.289 79.8413 310.372 79.5252 310.532 79.2407L310.891 78.5814H292.671ZM309.316 80.162V97.0977H294.246V80.162C294.246 79.9338 294.217 79.7063 294.158 79.4846H309.404C309.345 79.7063 309.316 79.9338 309.316 80.162ZM271.281 78.5814L271.64 79.2407C271.8 79.5252 271.883 79.8413 271.884 80.162V98.0009H288.898V80.162C288.899 79.8413 288.982 79.5252 289.141 79.2407L289.501 78.5814H271.281ZM287.926 80.162V97.0977H272.856V80.162C272.856 79.9338 272.827 79.7063 272.768 79.4846H288.014C287.955 79.7063 287.926 79.9338 287.926 80.162ZM249.891 78.5814L250.25 79.2407C250.41 79.5252 250.493 79.8413 250.493 80.162V98.0009H267.508V80.162C267.509 79.8413 267.592 79.5252 267.751 79.2407L268.111 78.5814H249.891ZM266.536 80.162V97.0977H251.466V80.162C251.466 79.9338 251.437 79.7063 251.378 79.4846H266.624C266.565 79.7063 266.536 79.9338 266.536 80.162ZM228.5 78.5814L228.86 79.2407C229.02 79.5252 229.103 79.8413 229.103 80.162V98.0009H246.118V80.162C246.118 79.8413 246.202 79.5252 246.361 79.2407L246.721 78.5814H228.5ZM245.146 80.162V97.0977H230.076V80.162C230.076 79.9338 230.046 79.7063 229.988 79.4846H245.234C245.175 79.7063 245.146 79.9338 245.146 80.162ZM207.11 78.5814L207.47 79.2407C207.63 79.5252 207.713 79.8413 207.713 80.162V98.0009H224.728V80.162C224.728 79.8413 224.812 79.5252 224.971 79.2407L225.331 78.5814H207.11ZM223.756 80.162V97.0977H208.686V80.162C208.686 79.9338 208.656 79.7063 208.598 79.4846H223.843C223.785 79.7063 223.756 79.9338 223.756 80.162ZM185.72 78.5814L186.08 79.2407C186.24 79.5252 186.323 79.8413 186.323 80.162V98.0009H203.338V80.162C203.338 79.8413 203.422 79.5252 203.581 79.2407L203.941 78.5814H185.72ZM202.366 80.162V97.0977H187.295V80.162C187.296 79.9338 187.266 79.7063 187.208 79.4846H202.453C202.395 79.7063 202.365 79.9338 202.366 80.162ZM164.33 78.5814L164.69 79.2407C164.849 79.5252 164.933 79.8413 164.933 80.162V98.0009H181.948V80.162C181.948 79.8413 182.031 79.5252 182.191 79.2407L182.551 78.5814H164.33ZM180.976 80.162V97.0977H165.905V80.162C165.906 79.9338 165.876 79.7063 165.818 79.4846H181.063C181.005 79.7063 180.975 79.9338 180.976 80.162ZM142.94 78.5814L143.3 79.2407C143.459 79.5252 143.543 79.8413 143.543 80.162V98.0009H160.558V80.162C160.558 79.8413 160.641 79.5252 160.801 79.2407L161.161 78.5814H142.94ZM159.586 80.162V97.0977H144.515V80.162C144.515 79.9338 144.486 79.7063 144.428 79.4846H159.673C159.615 79.7063 159.585 79.9338 159.586 80.162ZM314.061 78.5814L314.421 79.2407C314.58 79.5252 314.664 79.8413 314.664 80.162V98.0009H331.679V80.162C331.679 79.8413 331.762 79.5252 331.922 79.2407L332.282 78.5814H314.061ZM330.706 80.162V97.0977H315.636V80.162C315.636 79.9338 315.607 79.7063 315.548 79.4846H330.794C330.735 79.7063 330.706 79.9338 330.706 80.162ZM292.671 78.5814L293.031 79.2407C293.19 79.5252 293.273 79.8413 293.274 80.162V98.0009H310.289V80.162C310.289 79.8413 310.372 79.5252 310.532 79.2407L310.891 78.5814H292.671ZM309.316 80.162V97.0977H294.246V80.162C294.246 79.9338 294.217 79.7063 294.158 79.4846H309.404C309.345 79.7063 309.316 79.9338 309.316 80.162ZM271.281 78.5814L271.64 79.2407C271.8 79.5252 271.883 79.8413 271.884 80.162V98.0009H288.898V80.162C288.899 79.8413 288.982 79.5252 289.141 79.2407L289.501 78.5814H271.281ZM287.926 80.162V97.0977H272.856V80.162C272.856 79.9338 272.827 79.7063 272.768 79.4846H288.014C287.955 79.7063 287.926 79.9338 287.926 80.162ZM249.891 78.5814L250.25 79.2407C250.41 79.5252 250.493 79.8413 250.493 80.162V98.0009H267.508V80.162C267.509 79.8413 267.592 79.5252 267.751 79.2407L268.111 78.5814H249.891ZM266.536 80.162V97.0977H251.466V80.162C251.466 79.9338 251.437 79.7063 251.378 79.4846H266.624C266.565 79.7063 266.536 79.9338 266.536 80.162ZM228.5 78.5814L228.86 79.2407C229.02 79.5252 229.103 79.8413 229.103 80.162V98.0009H246.118V80.162C246.118 79.8413 246.202 79.5252 246.361 79.2407L246.721 78.5814H228.5ZM245.146 80.162V97.0977H230.076V80.162C230.076 79.9338 230.046 79.7063 229.988 79.4846H245.234C245.175 79.7063 245.146 79.9338 245.146 80.162ZM207.11 78.5814L207.47 79.2407C207.63 79.5252 207.713 79.8413 207.713 80.162V98.0009H224.728V80.162C224.728 79.8413 224.812 79.5252 224.971 79.2407L225.331 78.5814H207.11ZM223.756 80.162V97.0977H208.686V80.162C208.686 79.9338 208.656 79.7063 208.598 79.4846H223.843C223.785 79.7063 223.756 79.9338 223.756 80.162ZM185.72 78.5814L186.08 79.2407C186.24 79.5252 186.323 79.8413 186.323 80.162V98.0009H203.338V80.162C203.338 79.8413 203.422 79.5252 203.581 79.2407L203.941 78.5814H185.72ZM202.366 80.162V97.0977H187.295V80.162C187.296 79.9338 187.266 79.7063 187.208 79.4846H202.453C202.395 79.7063 202.365 79.9338 202.366 80.162ZM164.33 78.5814L164.69 79.2407C164.849 79.5252 164.933 79.8413 164.933 80.162V98.0009H181.948V80.162C181.948 79.8413 182.031 79.5252 182.191 79.2407L182.551 78.5814H164.33ZM180.976 80.162V97.0977H165.905V80.162C165.906 79.9338 165.876 79.7063 165.818 79.4846H181.063C181.005 79.7063 180.975 79.9338 180.976 80.162ZM142.94 78.5814L143.3 79.2407C143.459 79.5252 143.543 79.8413 143.543 80.162V98.0009H160.558V80.162C160.558 79.8413 160.641 79.5252 160.801 79.2407L161.161 78.5814H142.94ZM159.586 80.162V97.0977H144.515V80.162C144.515 79.9338 144.486 79.7063 144.428 79.4846H159.673C159.615 79.7063 159.585 79.9338 159.586 80.162ZM314.061 78.5814L314.421 79.2407C314.58 79.5252 314.664 79.8413 314.664 80.162V98.0009H331.679V80.162C331.679 79.8413 331.762 79.5252 331.922 79.2407L332.282 78.5814H314.061ZM330.706 80.162V97.0977H315.636V80.162C315.636 79.9338 315.607 79.7063 315.548 79.4846H330.794C330.735 79.7063 330.706 79.9338 330.706 80.162ZM292.671 78.5814L293.031 79.2407C293.19 79.5252 293.273 79.8413 293.274 80.162V98.0009H310.289V80.162C310.289 79.8413 310.372 79.5252 310.532 79.2407L310.891 78.5814H292.671ZM309.316 80.162V97.0977H294.246V80.162C294.246 79.9338 294.217 79.7063 294.158 79.4846H309.404C309.345 79.7063 309.316 79.9338 309.316 80.162ZM271.281 78.5814L271.64 79.2407C271.8 79.5252 271.883 79.8413 271.884 80.162V98.0009H288.898V80.162C288.899 79.8413 288.982 79.5252 289.141 79.2407L289.501 78.5814H271.281ZM287.926 80.162V97.0977H272.856V80.162C272.856 79.9338 272.827 79.7063 272.768 79.4846H288.014C287.955 79.7063 287.926 79.9338 287.926 80.162ZM249.891 78.5814L250.25 79.2407C250.41 79.5252 250.493 79.8413 250.493 80.162V98.0009H267.508V80.162C267.509 79.8413 267.592 79.5252 267.751 79.2407L268.111 78.5814H249.891ZM266.536 80.162V97.0977H251.466V80.162C251.466 79.9338 251.437 79.7063 251.378 79.4846H266.624C266.565 79.7063 266.536 79.9338 266.536 80.162ZM228.5 78.5814L228.86 79.2407C229.02 79.5252 229.103 79.8413 229.103 80.162V98.0009H246.118V80.162C246.118 79.8413 246.202 79.5252 246.361 79.2407L246.721 78.5814H228.5ZM245.146 80.162V97.0977H230.076V80.162C230.076 79.9338 230.046 79.7063 229.988 79.4846H245.234C245.175 79.7063 245.146 79.9338 245.146 80.162ZM207.11 78.5814L207.47 79.2407C207.63 79.5252 207.713 79.8413 207.713 80.162V98.0009H224.728V80.162C224.728 79.8413 224.812 79.5252 224.971 79.2407L225.331 78.5814H207.11ZM223.756 80.162V97.0977H208.686V80.162C208.686 79.9338 208.656 79.7063 208.598 79.4846H223.843C223.785 79.7063 223.756 79.9338 223.756 80.162ZM185.72 78.5814L186.08 79.2407C186.24 79.5252 186.323 79.8413 186.323 80.162V98.0009H203.338V80.162C203.338 79.8413 203.422 79.5252 203.581 79.2407L203.941 78.5814H185.72ZM202.366 80.162V97.0977H187.295V80.162C187.296 79.9338 187.266 79.7063 187.208 79.4846H202.453C202.395 79.7063 202.365 79.9338 202.366 80.162ZM164.33 78.5814L164.69 79.2407C164.849 79.5252 164.933 79.8413 164.933 80.162V98.0009H181.948V80.162C181.948 79.8413 182.031 79.5252 182.191 79.2407L182.551 78.5814H164.33ZM180.976 80.162V97.0977H165.905V80.162C165.906 79.9338 165.876 79.7063 165.818 79.4846H181.063C181.005 79.7063 180.975 79.9338 180.976 80.162ZM142.94 78.5814L143.3 79.2407C143.459 79.5252 143.543 79.8413 143.543 80.162V98.0009H160.558V80.162C160.558 79.8413 160.641 79.5252 160.801 79.2407L161.161 78.5814H142.94ZM159.586 80.162V97.0977H144.515V80.162C144.515 79.9338 144.486 79.7063 144.428 79.4846H159.673C159.615 79.7063 159.585 79.9338 159.586 80.162ZM314.061 78.5814L314.421 79.2407C314.58 79.5252 314.664 79.8413 314.664 80.162V98.0009H331.679V80.162C331.679 79.8413 331.762 79.5252 331.922 79.2407L332.282 78.5814H314.061ZM330.706 80.162V97.0977H315.636V80.162C315.636 79.9338 315.607 79.7063 315.548 79.4846H330.794C330.735 79.7063 330.706 79.9338 330.706 80.162ZM293.031 79.2407C293.19 79.5252 293.273 79.8413 293.274 80.162V98.0009H310.289V80.162C310.289 79.8413 310.372 79.5252 310.532 79.2407L310.891 78.5814H292.671L293.031 79.2407ZM309.404 79.4846C309.345 79.7063 309.316 79.9338 309.316 80.162V97.0977H294.246V80.162C294.246 79.9338 294.217 79.7063 294.158 79.4846H309.404ZM271.64 79.2407C271.8 79.5252 271.883 79.8413 271.884 80.162V98.0009H288.898V80.162C288.899 79.8413 288.982 79.5252 289.141 79.2407L289.501 78.5814H271.281L271.64 79.2407ZM288.014 79.4846C287.955 79.7063 287.926 79.9338 287.926 80.162V97.0977H272.856V80.162C272.856 79.9338 272.827 79.7063 272.768 79.4846H288.014ZM250.25 79.2407C250.41 79.5252 250.493 79.8413 250.493 80.162V98.0009H267.508V80.162C267.509 79.8413 267.592 79.5252 267.751 79.2407L268.111 78.5814H249.891L250.25 79.2407ZM266.624 79.4846C266.565 79.7063 266.536 79.9338 266.536 80.162V97.0977H251.466V80.162C251.466 79.9338 251.437 79.7063 251.378 79.4846H266.624ZM228.86 79.2407C229.02 79.5252 229.103 79.8413 229.103 80.162V98.0009H246.118V80.162C246.118 79.8413 246.202 79.5252 246.361 79.2407L246.721 78.5814H228.5L228.86 79.2407ZM245.234 79.4846C245.175 79.7063 245.146 79.9338 245.146 80.162V97.0977H230.076V80.162C230.076 79.9338 230.046 79.7063 229.988 79.4846H245.234ZM207.47 79.2407C207.63 79.5252 207.713 79.8413 207.713 80.162V98.0009H224.728V80.162C224.728 79.8413 224.812 79.5252 224.971 79.2407L225.331 78.5814H207.11L207.47 79.2407ZM223.843 79.4846C223.785 79.7063 223.756 79.9338 223.756 80.162V97.0977H208.686V80.162C208.686 79.9338 208.656 79.7063 208.598 79.4846H223.843ZM186.08 79.2407C186.24 79.5252 186.323 79.8413 186.323 80.162V98.0009H203.338V80.162C203.338 79.8413 203.422 79.5252 203.581 79.2407L203.941 78.5814H185.72L186.08 79.2407ZM202.453 79.4846C202.395 79.7063 202.365 79.9338 202.366 80.162V97.0977H187.295V80.162C187.296 79.9338 187.266 79.7063 187.208 79.4846H202.453ZM164.69 79.2407C164.849 79.5252 164.933 79.8413 164.933 80.162V98.0009H181.948V80.162C181.948 79.8413 182.031 79.5252 182.191 79.2407L182.551 78.5814H164.33L164.69 79.2407ZM181.063 79.4846C181.005 79.7063 180.975 79.9338 180.976 80.162V97.0977H165.905V80.162C165.906 79.9338 165.876 79.7063 165.818 79.4846H181.063ZM143.3 79.2407C143.459 79.5252 143.543 79.8413 143.543 80.162V98.0009H160.558V80.162C160.558 79.8413 160.641 79.5252 160.801 79.2407L161.161 78.5814H142.94L143.3 79.2407ZM159.673 79.4846C159.615 79.7063 159.585 79.9338 159.586 80.162V97.0977H144.515V80.162C144.515 79.9338 144.486 79.7063 144.428 79.4846H159.673ZM314.421 79.2407C314.58 79.5252 314.664 79.8413 314.664 80.162V98.0009H331.679V80.162C331.679 79.8413 331.762 79.5252 331.922 79.2407L332.282 78.5814H314.061L314.421 79.2407ZM330.794 79.4846C330.735 79.7063 330.706 79.9338 330.706 80.162V97.0977H315.636V80.162C315.636 79.9338 315.607 79.7063 315.548 79.4846H330.794ZM293.031 79.2407C293.19 79.5252 293.273 79.8413 293.274 80.162V98.0009H310.289V80.162C310.289 79.8413 310.372 79.5252 310.532 79.2407L310.891 78.5814H292.671L293.031 79.2407ZM309.404 79.4846C309.345 79.7063 309.316 79.9338 309.316 80.162V97.0977H294.246V80.162C294.246 79.9338 294.217 79.7063 294.158 79.4846H309.404ZM271.64 79.2407C271.8 79.5252 271.883 79.8413 271.884 80.162V98.0009H288.898V80.162C288.899 79.8413 288.982 79.5252 289.141 79.2407L289.501 78.5814H271.281L271.64 79.2407ZM288.014 79.4846C287.955 79.7063 287.926 79.9338 287.926 80.162V97.0977H272.856V80.162C272.856 79.9338 272.827 79.7063 272.768 79.4846H288.014ZM250.25 79.2407C250.41 79.5252 250.493 79.8413 250.493 80.162V98.0009H267.508V80.162C267.509 79.8413 267.592 79.5252 267.751 79.2407L268.111 78.5814H249.891L250.25 79.2407ZM266.624 79.4846C266.565 79.7063 266.536 79.9338 266.536 80.162V97.0977H251.466V80.162C251.466 79.9338 251.437 79.7063 251.378 79.4846H266.624ZM228.86 79.2407C229.02 79.5252 229.103 79.8413 229.103 80.162V98.0009H246.118V80.162C246.118 79.8413 246.202 79.5252 246.361 79.2407L246.721 78.5814H228.5L228.86 79.2407ZM245.234 79.4846C245.175 79.7063 245.146 79.9338 245.146 80.162V97.0977H230.076V80.162C230.076 79.9338 230.046 79.7063 229.988 79.4846H245.234ZM207.47 79.2407C207.63 79.5252 207.713 79.8413 207.713 80.162V98.0009H224.728V80.162C224.728 79.8413 224.812 79.5252 224.971 79.2407L225.331 78.5814H207.11L207.47 79.2407ZM223.843 79.4846C223.785 79.7063 223.756 79.9338 223.756 80.162V97.0977H208.686V80.162C208.686 79.9338 208.656 79.7063 208.598 79.4846H223.843ZM186.08 79.2407C186.24 79.5252 186.323 79.8413 186.323 80.162V98.0009H203.338V80.162C203.338 79.8413 203.422 79.5252 203.581 79.2407L203.941 78.5814H185.72L186.08 79.2407ZM202.453 79.4846C202.395 79.7063 202.365 79.9338 202.366 80.162V97.0977H187.295V80.162C187.296 79.9338 187.266 79.7063 187.208 79.4846H202.453ZM164.69 79.2407C164.849 79.5252 164.933 79.8413 164.933 80.162V98.0009H181.948V80.162C181.948 79.8413 182.031 79.5252 182.191 79.2407L182.551 78.5814H164.33L164.69 79.2407ZM181.063 79.4846C181.005 79.7063 180.975 79.9338 180.976 80.162V97.0977H165.905V80.162C165.906 79.9338 165.876 79.7063 165.818 79.4846H181.063ZM143.3 79.2407C143.459 79.5252 143.543 79.8413 143.543 80.162V98.0009H160.558V80.162C160.558 79.8413 160.641 79.5252 160.801 79.2407L161.161 78.5814H142.94L143.3 79.2407ZM159.673 79.4846C159.615 79.7063 159.585 79.9338 159.586 80.162V97.0977H144.515V80.162C144.515 79.9338 144.486 79.7063 144.428 79.4846H159.673ZM351.124 100.711H345.329C345.01 99.6717 344.335 98.7575 343.408 98.1058C342.48 97.4541 341.349 97.1003 340.186 97.0977H337.026V80.162C337.027 79.7985 336.953 79.4381 336.807 79.1007C337.358 78.7994 337.787 78.338 338.027 77.7878C338.268 77.2376 338.307 76.6292 338.138 76.0564C337.97 75.4836 337.603 74.9782 337.094 74.6184C336.586 74.2585 335.964 74.0641 335.325 74.0652H139.897C139.258 74.0641 138.636 74.2585 138.127 74.6184C137.619 74.9782 137.252 75.4836 137.083 76.0564C136.915 76.6292 136.954 77.2376 137.194 77.7878C137.435 78.338 137.863 78.7994 138.414 79.1007C138.268 79.4381 138.194 79.7985 138.195 80.162V97.0977H135.036C133.872 97.1003 132.742 97.4541 131.814 98.1058C130.886 98.7575 130.212 99.6717 129.892 100.711H123.611C122.451 100.712 121.34 101.141 120.519 101.903C119.699 102.665 119.238 103.698 119.236 104.775V343.229C119.239 344.307 119.7 345.339 120.52 346.101C121.34 346.862 122.452 347.291 123.611 347.294H351.124C352.284 347.292 353.396 346.864 354.216 346.102C355.036 345.34 355.498 344.307 355.499 343.229V104.775C355.498 103.698 355.036 102.665 354.216 101.903C353.396 101.141 352.284 100.712 351.124 100.711ZM354.527 343.229C354.526 343.875 354.313 344.504 353.916 345.034C353.519 345.563 352.957 345.968 352.306 346.192C351.928 346.325 351.528 346.393 351.124 346.391H123.611C123.208 346.393 122.807 346.325 122.43 346.192C121.778 345.968 121.217 345.563 120.819 345.034C120.422 344.504 120.209 343.875 120.208 343.229V104.775C120.209 103.937 120.568 103.133 121.206 102.541C121.844 101.948 122.709 101.615 123.611 101.614H130.67L130.748 101.253C130.952 100.336 131.49 99.5122 132.271 98.9201C133.051 98.328 134.028 98.0034 135.036 98.0009H139.168V80.162C139.168 79.7945 139.275 79.4339 139.479 79.1188L139.78 78.6536L139.231 78.4639C138.802 78.3194 138.441 78.0387 138.212 77.6715C137.984 77.3042 137.902 76.8738 137.982 76.4561C138.062 76.0384 138.297 75.6601 138.648 75.388C138.998 75.1159 139.44 74.9673 139.897 74.9684H335.325C335.781 74.9673 336.224 75.1159 336.574 75.388C336.924 75.6601 337.16 76.0384 337.239 76.4561C337.319 76.8738 337.237 77.3042 337.009 77.6715C336.781 78.0387 336.42 78.3194 335.991 78.4639L335.441 78.6536L335.743 79.1188C335.946 79.4339 336.054 79.7945 336.054 80.162V98.0009H340.186C341.194 98.0034 342.17 98.3279 342.951 98.92C343.732 99.5121 344.269 100.336 344.474 101.253L344.552 101.614H351.124C352.026 101.615 352.891 101.948 353.529 102.541C354.167 103.133 354.526 103.937 354.527 104.775L354.527 343.229ZM142.94 78.5814L143.3 79.2407C143.459 79.5252 143.543 79.8413 143.543 80.162V98.0009H160.558V80.162C160.558 79.8413 160.641 79.5252 160.801 79.2407L161.161 78.5814H142.94ZM159.586 80.162V97.0977H144.515V80.162C144.515 79.9338 144.486 79.7063 144.428 79.4846H159.673C159.615 79.7063 159.585 79.9338 159.586 80.162ZM164.33 78.5814L164.69 79.2407C164.849 79.5252 164.933 79.8413 164.933 80.162V98.0009H181.948V80.162C181.948 79.8413 182.031 79.5252 182.191 79.2407L182.551 78.5814H164.33ZM180.976 80.162V97.0977H165.905V80.162C165.906 79.9338 165.876 79.7063 165.818 79.4846H181.063C181.005 79.7063 180.975 79.9338 180.976 80.162ZM185.72 78.5814L186.08 79.2407C186.24 79.5252 186.323 79.8413 186.323 80.162V98.0009H203.338V80.162C203.338 79.8413 203.422 79.5252 203.581 79.2407L203.941 78.5814H185.72ZM202.366 80.162V97.0977H187.295V80.162C187.296 79.9338 187.266 79.7063 187.208 79.4846H202.453C202.395 79.7063 202.365 79.9338 202.366 80.162ZM207.11 78.5814L207.47 79.2407C207.63 79.5252 207.713 79.8413 207.713 80.162V98.0009H224.728V80.162C224.728 79.8413 224.812 79.5252 224.971 79.2407L225.331 78.5814H207.11ZM223.756 80.162V97.0977H208.686V80.162C208.686 79.9338 208.656 79.7063 208.598 79.4846H223.843C223.785 79.7063 223.756 79.9338 223.756 80.162ZM228.5 78.5814L228.86 79.2407C229.02 79.5252 229.103 79.8413 229.103 80.162V98.0009H246.118V80.162C246.118 79.8413 246.202 79.5252 246.361 79.2407L246.721 78.5814H228.5ZM245.146 80.162V97.0977H230.076V80.162C230.076 79.9338 230.046 79.7063 229.988 79.4846H245.234C245.175 79.7063 245.146 79.9338 245.146 80.162ZM249.891 78.5814L250.25 79.2407C250.41 79.5252 250.493 79.8413 250.493 80.162V98.0009H267.508V80.162C267.509 79.8413 267.592 79.5252 267.751 79.2407L268.111 78.5814H249.891ZM266.536 80.162V97.0977H251.466V80.162C251.466 79.9338 251.437 79.7063 251.378 79.4846H266.624C266.565 79.7063 266.536 79.9338 266.536 80.162ZM271.281 78.5814L271.64 79.2407C271.8 79.5252 271.883 79.8413 271.884 80.162V98.0009H288.898V80.162C288.899 79.8413 288.982 79.5252 289.141 79.2407L289.501 78.5814H271.281ZM287.926 80.162V97.0977H272.856V80.162C272.856 79.9338 272.827 79.7063 272.768 79.4846H288.014C287.955 79.7063 287.926 79.9338 287.926 80.162ZM292.671 78.5814L293.031 79.2407C293.19 79.5252 293.273 79.8413 293.274 80.162V98.0009H310.289V80.162C310.289 79.8413 310.372 79.5252 310.532 79.2407L310.891 78.5814H292.671ZM309.316 80.162V97.0977H294.246V80.162C294.246 79.9338 294.217 79.7063 294.158 79.4846H309.404C309.345 79.7063 309.316 79.9338 309.316 80.162ZM314.061 78.5814L314.421 79.2407C314.58 79.5252 314.664 79.8413 314.664 80.162V98.0009H331.679V80.162C331.679 79.8413 331.762 79.5252 331.922 79.2407L332.282 78.5814H314.061ZM330.706 80.162V97.0977H315.636V80.162C315.636 79.9338 315.607 79.7063 315.548 79.4846H330.794C330.735 79.7063 330.706 79.9338 330.706 80.162ZM142.94 78.5814L143.3 79.2407C143.459 79.5252 143.543 79.8413 143.543 80.162V98.0009H160.558V80.162C160.558 79.8413 160.641 79.5252 160.801 79.2407L161.161 78.5814H142.94ZM159.586 80.162V97.0977H144.515V80.162C144.515 79.9338 144.486 79.7063 144.428 79.4846H159.673C159.615 79.7063 159.585 79.9338 159.586 80.162ZM164.33 78.5814L164.69 79.2407C164.849 79.5252 164.933 79.8413 164.933 80.162V98.0009H181.948V80.162C181.948 79.8413 182.031 79.5252 182.191 79.2407L182.551 78.5814H164.33ZM180.976 80.162V97.0977H165.905V80.162C165.906 79.9338 165.876 79.7063 165.818 79.4846H181.063C181.005 79.7063 180.975 79.9338 180.976 80.162ZM185.72 78.5814L186.08 79.2407C186.24 79.5252 186.323 79.8413 186.323 80.162V98.0009H203.338V80.162C203.338 79.8413 203.422 79.5252 203.581 79.2407L203.941 78.5814H185.72ZM202.366 80.162V97.0977H187.295V80.162C187.296 79.9338 187.266 79.7063 187.208 79.4846H202.453C202.395 79.7063 202.365 79.9338 202.366 80.162ZM207.11 78.5814L207.47 79.2407C207.63 79.5252 207.713 79.8413 207.713 80.162V98.0009H224.728V80.162C224.728 79.8413 224.812 79.5252 224.971 79.2407L225.331 78.5814H207.11ZM223.756 80.162V97.0977H208.686V80.162C208.686 79.9338 208.656 79.7063 208.598 79.4846H223.843C223.785 79.7063 223.756 79.9338 223.756 80.162ZM228.5 78.5814L228.86 79.2407C229.02 79.5252 229.103 79.8413 229.103 80.162V98.0009H246.118V80.162C246.118 79.8413 246.202 79.5252 246.361 79.2407L246.721 78.5814H228.5ZM245.146 80.162V97.0977H230.076V80.162C230.076 79.9338 230.046 79.7063 229.988 79.4846H245.234C245.175 79.7063 245.146 79.9338 245.146 80.162ZM249.891 78.5814L250.25 79.2407C250.41 79.5252 250.493 79.8413 250.493 80.162V98.0009H267.508V80.162C267.509 79.8413 267.592 79.5252 267.751 79.2407L268.111 78.5814H249.891ZM266.536 80.162V97.0977H251.466V80.162C251.466 79.9338 251.437 79.7063 251.378 79.4846H266.624C266.565 79.7063 266.536 79.9338 266.536 80.162ZM271.281 78.5814L271.64 79.2407C271.8 79.5252 271.883 79.8413 271.884 80.162V98.0009H288.898V80.162C288.899 79.8413 288.982 79.5252 289.141 79.2407L289.501 78.5814H271.281ZM287.926 80.162V97.0977H272.856V80.162C272.856 79.9338 272.827 79.7063 272.768 79.4846H288.014C287.955 79.7063 287.926 79.9338 287.926 80.162ZM292.671 78.5814L293.031 79.2407C293.19 79.5252 293.273 79.8413 293.274 80.162V98.0009H310.289V80.162C310.289 79.8413 310.372 79.5252 310.532 79.2407L310.891 78.5814H292.671ZM309.316 80.162V97.0977H294.246V80.162C294.246 79.9338 294.217 79.7063 294.158 79.4846H309.404C309.345 79.7063 309.316 79.9338 309.316 80.162ZM314.061 78.5814L314.421 79.2407C314.58 79.5252 314.664 79.8413 314.664 80.162V98.0009H331.679V80.162C331.679 79.8413 331.762 79.5252 331.922 79.2407L332.282 78.5814H314.061ZM330.706 80.162V97.0977H315.636V80.162C315.636 79.9338 315.607 79.7063 315.548 79.4846H330.794C330.735 79.7063 330.706 79.9338 330.706 80.162ZM142.94 78.5814L143.3 79.2407C143.459 79.5252 143.543 79.8413 143.543 80.162V98.0009H160.558V80.162C160.558 79.8413 160.641 79.5252 160.801 79.2407L161.161 78.5814H142.94ZM159.586 80.162V97.0977H144.515V80.162C144.515 79.9338 144.486 79.7063 144.428 79.4846H159.673C159.615 79.7063 159.585 79.9338 159.586 80.162ZM164.33 78.5814L164.69 79.2407C164.849 79.5252 164.933 79.8413 164.933 80.162V98.0009H181.948V80.162C181.948 79.8413 182.031 79.5252 182.191 79.2407L182.551 78.5814H164.33ZM180.976 80.162V97.0977H165.905V80.162C165.906 79.9338 165.876 79.7063 165.818 79.4846H181.063C181.005 79.7063 180.975 79.9338 180.976 80.162ZM185.72 78.5814L186.08 79.2407C186.24 79.5252 186.323 79.8413 186.323 80.162V98.0009H203.338V80.162C203.338 79.8413 203.422 79.5252 203.581 79.2407L203.941 78.5814H185.72ZM202.366 80.162V97.0977H187.295V80.162C187.296 79.9338 187.266 79.7063 187.208 79.4846H202.453C202.395 79.7063 202.365 79.9338 202.366 80.162ZM207.11 78.5814L207.47 79.2407C207.63 79.5252 207.713 79.8413 207.713 80.162V98.0009H224.728V80.162C224.728 79.8413 224.812 79.5252 224.971 79.2407L225.331 78.5814H207.11ZM223.756 80.162V97.0977H208.686V80.162C208.686 79.9338 208.656 79.7063 208.598 79.4846H223.843C223.785 79.7063 223.756 79.9338 223.756 80.162ZM228.5 78.5814L228.86 79.2407C229.02 79.5252 229.103 79.8413 229.103 80.162V98.0009H246.118V80.162C246.118 79.8413 246.202 79.5252 246.361 79.2407L246.721 78.5814H228.5ZM245.146 80.162V97.0977H230.076V80.162C230.076 79.9338 230.046 79.7063 229.988 79.4846H245.234C245.175 79.7063 245.146 79.9338 245.146 80.162ZM249.891 78.5814L250.25 79.2407C250.41 79.5252 250.493 79.8413 250.493 80.162V98.0009H267.508V80.162C267.509 79.8413 267.592 79.5252 267.751 79.2407L268.111 78.5814H249.891ZM266.536 80.162V97.0977H251.466V80.162C251.466 79.9338 251.437 79.7063 251.378 79.4846H266.624C266.565 79.7063 266.536 79.9338 266.536 80.162ZM271.281 78.5814L271.64 79.2407C271.8 79.5252 271.883 79.8413 271.884 80.162V98.0009H288.898V80.162C288.899 79.8413 288.982 79.5252 289.141 79.2407L289.501 78.5814H271.281ZM287.926 80.162V97.0977H272.856V80.162C272.856 79.9338 272.827 79.7063 272.768 79.4846H288.014C287.955 79.7063 287.926 79.9338 287.926 80.162ZM292.671 78.5814L293.031 79.2407C293.19 79.5252 293.273 79.8413 293.274 80.162V98.0009H310.289V80.162C310.289 79.8413 310.372 79.5252 310.532 79.2407L310.891 78.5814H292.671ZM309.316 80.162V97.0977H294.246V80.162C294.246 79.9338 294.217 79.7063 294.158 79.4846H309.404C309.345 79.7063 309.316 79.9338 309.316 80.162ZM314.061 78.5814L314.421 79.2407C314.58 79.5252 314.664 79.8413 314.664 80.162V98.0009H331.679V80.162C331.679 79.8413 331.762 79.5252 331.922 79.2407L332.282 78.5814H314.061ZM330.706 80.162V97.0977H315.636V80.162C315.636 79.9338 315.607 79.7063 315.548 79.4846H330.794C330.735 79.7063 330.706 79.9338 330.706 80.162ZM142.94 78.5814L143.3 79.2407C143.459 79.5252 143.543 79.8413 143.543 80.162V98.0009H160.558V80.162C160.558 79.8413 160.641 79.5252 160.801 79.2407L161.161 78.5814H142.94ZM159.586 80.162V97.0977H144.515V80.162C144.515 79.9338 144.486 79.7063 144.428 79.4846H159.673C159.615 79.7063 159.585 79.9338 159.586 80.162ZM164.33 78.5814L164.69 79.2407C164.849 79.5252 164.933 79.8413 164.933 80.162V98.0009H181.948V80.162C181.948 79.8413 182.031 79.5252 182.191 79.2407L182.551 78.5814H164.33ZM180.976 80.162V97.0977H165.905V80.162C165.906 79.9338 165.876 79.7063 165.818 79.4846H181.063C181.005 79.7063 180.975 79.9338 180.976 80.162ZM185.72 78.5814L186.08 79.2407C186.24 79.5252 186.323 79.8413 186.323 80.162V98.0009H203.338V80.162C203.338 79.8413 203.422 79.5252 203.581 79.2407L203.941 78.5814H185.72ZM202.366 80.162V97.0977H187.295V80.162C187.296 79.9338 187.266 79.7063 187.208 79.4846H202.453C202.395 79.7063 202.365 79.9338 202.366 80.162ZM207.11 78.5814L207.47 79.2407C207.63 79.5252 207.713 79.8413 207.713 80.162V98.0009H224.728V80.162C224.728 79.8413 224.812 79.5252 224.971 79.2407L225.331 78.5814H207.11ZM223.756 80.162V97.0977H208.686V80.162C208.686 79.9338 208.656 79.7063 208.598 79.4846H223.843C223.785 79.7063 223.756 79.9338 223.756 80.162ZM228.5 78.5814L228.86 79.2407C229.02 79.5252 229.103 79.8413 229.103 80.162V98.0009H246.118V80.162C246.118 79.8413 246.202 79.5252 246.361 79.2407L246.721 78.5814H228.5ZM245.146 80.162V97.0977H230.076V80.162C230.076 79.9338 230.046 79.7063 229.988 79.4846H245.234C245.175 79.7063 245.146 79.9338 245.146 80.162ZM249.891 78.5814L250.25 79.2407C250.41 79.5252 250.493 79.8413 250.493 80.162V98.0009H267.508V80.162C267.509 79.8413 267.592 79.5252 267.751 79.2407L268.111 78.5814H249.891ZM266.536 80.162V97.0977H251.466V80.162C251.466 79.9338 251.437 79.7063 251.378 79.4846H266.624C266.565 79.7063 266.536 79.9338 266.536 80.162ZM271.281 78.5814L271.64 79.2407C271.8 79.5252 271.883 79.8413 271.884 80.162V98.0009H288.898V80.162C288.899 79.8413 288.982 79.5252 289.141 79.2407L289.501 78.5814H271.281ZM287.926 80.162V97.0977H272.856V80.162C272.856 79.9338 272.827 79.7063 272.768 79.4846H288.014C287.955 79.7063 287.926 79.9338 287.926 80.162ZM292.671 78.5814L293.031 79.2407C293.19 79.5252 293.273 79.8413 293.274 80.162V98.0009H310.289V80.162C310.289 79.8413 310.372 79.5252 310.532 79.2407L310.891 78.5814H292.671ZM309.316 80.162V97.0977H294.246V80.162C294.246 79.9338 294.217 79.7063 294.158 79.4846H309.404C309.345 79.7063 309.316 79.9338 309.316 80.162ZM314.061 78.5814L314.421 79.2407C314.58 79.5252 314.664 79.8413 314.664 80.162V98.0009H331.679V80.162C331.679 79.8413 331.762 79.5252 331.922 79.2407L332.282 78.5814H314.061ZM330.706 80.162V97.0977H315.636V80.162C315.636 79.9338 315.607 79.7063 315.548 79.4846H330.794C330.735 79.7063 330.706 79.9338 330.706 80.162Z"
              fill="black"/>
        <path d="M200.738 157.615H164.889C164.134 157.614 163.41 157.335 162.876 156.839C162.342 156.343 162.042 155.67 162.041 154.969V137.228C162.042 136.526 162.342 135.854 162.876 135.358C163.41 134.862 164.134 134.583 164.889 134.582H200.738C201.493 134.583 202.217 134.862 202.751 135.358C203.285 135.854 203.585 136.526 203.586 137.228V154.969C203.585 155.67 203.285 156.343 202.751 156.839C202.217 157.335 201.493 157.614 200.738 157.615Z"
              fill="#05A98B"/>
        <path d="M255.292 157.615H219.443C218.688 157.614 217.964 157.335 217.43 156.839C216.896 156.343 216.596 155.67 216.595 154.969V137.228C216.596 136.526 216.896 135.854 217.43 135.358C217.964 134.862 218.688 134.583 219.443 134.582H255.292C256.047 134.583 256.771 134.862 257.305 135.358C257.839 135.854 258.139 136.526 258.14 137.228V154.969C258.139 155.67 257.839 156.343 257.305 156.839C256.771 157.335 256.047 157.614 255.292 157.615Z"
              fill="#05A98B"/>
        <path d="M309.847 157.615H273.997C273.242 157.614 272.518 157.335 271.984 156.839C271.451 156.343 271.15 155.67 271.149 154.969V137.228C271.15 136.526 271.451 135.854 271.984 135.358C272.518 134.862 273.242 134.583 273.997 134.582H309.847C310.602 134.583 311.326 134.862 311.859 135.358C312.393 135.854 312.694 136.526 312.695 137.228V154.969C312.694 155.67 312.393 156.343 311.859 156.839C311.326 157.335 310.602 157.614 309.847 157.615Z"
              fill="#05A98B"/>
        <path d="M200.738 216.776H164.889C164.134 216.776 163.41 216.497 162.876 216.001C162.342 215.505 162.042 214.832 162.041 214.131V196.39C162.042 195.688 162.342 195.016 162.876 194.52C163.41 194.024 164.134 193.745 164.889 193.744H200.738C201.493 193.745 202.217 194.024 202.751 194.52C203.285 195.016 203.585 195.688 203.586 196.39V214.131C203.585 214.832 203.285 215.505 202.751 216.001C202.217 216.497 201.493 216.776 200.738 216.776Z"
              fill="#05A98B"/>
        <path d="M255.292 216.776H219.443C218.688 216.776 217.964 216.497 217.43 216.001C216.896 215.505 216.596 214.832 216.595 214.131V196.39C216.596 195.688 216.896 195.016 217.43 194.52C217.964 194.024 218.688 193.745 219.443 193.744H255.292C256.047 193.745 256.771 194.024 257.305 194.52C257.839 195.016 258.139 195.688 258.14 196.39V214.131C258.139 214.832 257.839 215.505 257.305 216.001C256.771 216.497 256.047 216.776 255.292 216.776Z"
              fill="#05A98B"/>
        <path d="M309.847 216.776H273.997C273.242 216.776 272.518 216.497 271.984 216.001C271.451 215.505 271.15 214.832 271.149 214.131V196.39C271.15 195.688 271.451 195.016 271.984 194.52C272.518 194.024 273.242 193.745 273.997 193.744H309.847C310.602 193.745 311.326 194.024 311.859 194.52C312.393 195.016 312.694 195.688 312.695 196.39V214.131C312.694 214.832 312.393 215.505 311.859 216.001C311.326 216.497 310.602 216.776 309.847 216.776Z"
              fill="#05A98B"/>
        <path d="M200.738 275.938H164.889C164.134 275.937 163.41 275.658 162.876 275.163C162.342 274.667 162.042 273.994 162.041 273.293V255.551C162.042 254.85 162.342 254.177 162.876 253.682C163.41 253.186 164.134 252.907 164.889 252.906H200.738C201.493 252.907 202.217 253.186 202.751 253.682C203.285 254.177 203.585 254.85 203.586 255.551V273.293C203.585 273.994 203.285 274.667 202.751 275.163C202.217 275.658 201.493 275.937 200.738 275.938Z"
              fill="#05A98B"/>
        <path d="M255.292 275.938H219.443C218.688 275.937 217.964 275.658 217.43 275.163C216.896 274.667 216.596 273.994 216.595 273.293V255.551C216.596 254.85 216.896 254.177 217.43 253.682C217.964 253.186 218.688 252.907 219.443 252.906H255.292C256.047 252.907 256.771 253.186 257.305 253.682C257.839 254.177 258.139 254.85 258.14 255.551V273.293C258.139 273.994 257.839 274.667 257.305 275.163C256.771 275.658 256.047 275.937 255.292 275.938Z"
              fill="#05A98B"/>
        <path d="M309.847 275.938H273.997C273.242 275.937 272.518 275.658 271.984 275.163C271.451 274.667 271.15 273.994 271.149 273.293V255.551C271.15 254.85 271.451 254.177 271.984 253.682C272.518 253.186 273.242 252.907 273.997 252.906H309.847C310.602 252.907 311.326 253.186 311.859 253.682C312.393 254.177 312.694 254.85 312.695 255.551V273.293C312.694 273.994 312.393 274.667 311.859 275.163C311.326 275.658 310.602 275.937 309.847 275.938Z"
              fill="#05A98B"/>
        <path d="M194.934 159.891H153.405C152.401 159.89 151.439 159.519 150.73 158.86C150.02 158.2 149.621 157.307 149.62 156.374V135.822C149.621 134.89 150.02 133.996 150.73 133.337C151.439 132.678 152.401 132.307 153.405 132.306H194.934C195.938 132.307 196.9 132.678 197.61 133.337C198.319 133.996 198.719 134.89 198.72 135.822V156.374C198.719 157.307 198.319 158.201 197.61 158.86C196.9 159.519 195.938 159.89 194.934 159.891ZM153.405 133.209C152.659 133.21 151.944 133.485 151.417 133.975C150.889 134.465 150.593 135.129 150.592 135.822V156.374C150.593 157.067 150.889 157.731 151.417 158.221C151.944 158.711 152.659 158.987 153.405 158.988H194.934C195.68 158.987 196.395 158.711 196.923 158.221C197.45 157.731 197.747 157.067 197.747 156.374V135.822C197.747 135.129 197.45 134.465 196.923 133.975C196.395 133.485 195.68 133.21 194.934 133.209H153.405Z"
              fill="#3F3D56"/>
        <path d="M258.132 159.891H216.603C215.599 159.89 214.637 159.519 213.928 158.86C213.218 158.201 212.819 157.307 212.818 156.374V135.822C212.819 134.89 213.218 133.996 213.928 133.337C214.637 132.678 215.599 132.307 216.603 132.306H258.132C259.136 132.307 260.098 132.678 260.808 133.337C261.517 133.996 261.917 134.89 261.918 135.822V156.374C261.917 157.307 261.517 158.201 260.808 158.86C260.098 159.519 259.136 159.89 258.132 159.891ZM216.603 133.209C215.857 133.21 215.142 133.485 214.615 133.975C214.087 134.465 213.791 135.129 213.79 135.822V156.374C213.791 157.067 214.087 157.731 214.615 158.221C215.142 158.711 215.857 158.987 216.603 158.988H258.132C258.878 158.987 259.593 158.711 260.121 158.221C260.648 157.731 260.945 157.067 260.945 156.374V135.822C260.945 135.129 260.648 134.465 260.121 133.975C259.593 133.485 258.878 133.21 258.132 133.209H216.603Z"
              fill="#3F3D56"/>
        <path d="M321.33 159.891H279.801C278.797 159.89 277.835 159.519 277.126 158.86C276.416 158.201 276.017 157.307 276.016 156.374V135.822C276.017 134.89 276.416 133.996 277.126 133.337C277.835 132.678 278.797 132.307 279.801 132.306H321.33C322.334 132.307 323.296 132.678 324.006 133.337C324.715 133.996 325.115 134.89 325.116 135.822V156.374C325.115 157.307 324.715 158.201 324.006 158.86C323.296 159.519 322.334 159.89 321.33 159.891ZM279.801 133.209C279.055 133.21 278.34 133.485 277.813 133.975C277.285 134.465 276.989 135.129 276.988 135.822V156.374C276.989 157.067 277.285 157.731 277.813 158.221C278.34 158.711 279.055 158.987 279.801 158.988H321.33C322.076 158.987 322.791 158.711 323.319 158.221C323.846 157.731 324.143 157.067 324.143 156.374V135.822C324.143 135.129 323.846 134.465 323.319 133.975C322.791 133.485 322.076 133.21 321.33 133.209H279.801Z"
              fill="#3F3D56"/>
        <path d="M194.934 219.053H153.405C152.401 219.052 151.439 218.681 150.73 218.022C150.02 217.362 149.621 216.469 149.62 215.536V194.984C149.621 194.052 150.02 193.158 150.73 192.499C151.439 191.839 152.401 191.469 153.405 191.468H194.934C195.938 191.469 196.9 191.839 197.61 192.499C198.319 193.158 198.719 194.052 198.72 194.984V215.536C198.719 216.469 198.319 217.362 197.61 218.022C196.9 218.681 195.938 219.052 194.934 219.053ZM153.405 192.371C152.659 192.372 151.944 192.647 151.417 193.137C150.889 193.627 150.593 194.291 150.592 194.984V215.536C150.593 216.229 150.889 216.893 151.417 217.383C151.944 217.873 152.659 218.149 153.405 218.15H194.934C195.68 218.149 196.395 217.873 196.923 217.383C197.45 216.893 197.747 216.229 197.747 215.536V194.984C197.747 194.291 197.45 193.627 196.923 193.137C196.395 192.647 195.68 192.372 194.934 192.371H153.405Z"
              fill="#3F3D56"/>
        <path d="M258.132 219.053H216.603C215.599 219.052 214.637 218.681 213.928 218.022C213.218 217.362 212.819 216.469 212.818 215.536V194.984C212.819 194.052 213.218 193.158 213.928 192.499C214.637 191.839 215.599 191.469 216.603 191.468H258.132C259.136 191.469 260.098 191.839 260.808 192.499C261.517 193.158 261.917 194.052 261.918 194.984V215.536C261.917 216.469 261.517 217.362 260.808 218.022C260.098 218.681 259.136 219.052 258.132 219.053ZM216.603 192.371C215.857 192.372 215.142 192.647 214.615 193.137C214.087 193.627 213.791 194.291 213.79 194.984V215.536C213.791 216.229 214.087 216.893 214.615 217.383C215.142 217.873 215.857 218.149 216.603 218.15H258.132C258.878 218.149 259.593 217.873 260.121 217.383C260.648 216.893 260.945 216.229 260.945 215.536V194.984C260.945 194.291 260.648 193.627 260.121 193.137C259.593 192.647 258.878 192.372 258.132 192.371H216.603Z"
              fill="#3F3D56"/>
        <path d="M321.33 219.053H279.801C278.797 219.052 277.835 218.681 277.126 218.022C276.416 217.362 276.017 216.469 276.016 215.536V194.984C276.017 194.052 276.416 193.158 277.126 192.499C277.835 191.839 278.797 191.469 279.801 191.468H321.33C322.334 191.469 323.296 191.839 324.006 192.499C324.715 193.158 325.115 194.052 325.116 194.984V215.536C325.115 216.469 324.715 217.362 324.006 218.022C323.296 218.681 322.334 219.052 321.33 219.053ZM279.801 192.371C279.055 192.372 278.34 192.647 277.813 193.137C277.285 193.627 276.989 194.291 276.988 194.984V215.536C276.989 216.229 277.285 216.893 277.813 217.383C278.34 217.873 279.055 218.149 279.801 218.15H321.33C322.076 218.149 322.791 217.873 323.319 217.383C323.846 216.893 324.143 216.229 324.143 215.536V194.984C324.143 194.291 323.846 193.627 323.319 193.137C322.791 192.647 322.076 192.372 321.33 192.371H279.801Z"
              fill="#3F3D56"/>
        <path d="M194.934 278.215H153.405C152.401 278.214 151.439 277.843 150.73 277.183C150.02 276.524 149.621 275.63 149.62 274.698V254.146C149.621 253.214 150.02 252.32 150.73 251.661C151.439 251.001 152.401 250.63 153.405 250.629H194.934C195.938 250.63 196.9 251.001 197.61 251.661C198.319 252.32 198.719 253.214 198.72 254.146V274.698C198.719 275.63 198.319 276.524 197.61 277.184C196.9 277.843 195.938 278.214 194.934 278.215ZM153.405 251.533C152.659 251.533 151.944 251.809 151.417 252.299C150.889 252.789 150.593 253.453 150.592 254.146V274.698C150.593 275.391 150.889 276.055 151.417 276.545C151.944 277.035 152.659 277.311 153.405 277.311H194.934C195.68 277.311 196.395 277.035 196.923 276.545C197.45 276.055 197.747 275.391 197.747 274.698V254.146C197.747 253.453 197.45 252.789 196.923 252.299C196.395 251.809 195.68 251.533 194.934 251.533H153.405Z"
              fill="#3F3D56"/>
        <path d="M258.132 278.215H216.603C215.599 278.214 214.637 277.843 213.928 277.184C213.218 276.524 212.819 275.63 212.818 274.698V254.146C212.819 253.214 213.218 252.32 213.928 251.661C214.637 251.001 215.599 250.63 216.603 250.629H258.132C259.136 250.63 260.098 251.001 260.808 251.661C261.517 252.32 261.917 253.214 261.918 254.146V274.698C261.917 275.63 261.517 276.524 260.808 277.183C260.098 277.843 259.136 278.214 258.132 278.215ZM216.603 251.533C215.857 251.533 215.142 251.809 214.615 252.299C214.087 252.789 213.791 253.453 213.79 254.146V274.698C213.791 275.391 214.087 276.055 214.615 276.545C215.142 277.035 215.857 277.311 216.603 277.311H258.132C258.878 277.311 259.593 277.035 260.121 276.545C260.648 276.055 260.945 275.391 260.945 274.698V254.146C260.945 253.453 260.648 252.789 260.121 252.299C259.593 251.809 258.878 251.533 258.132 251.533H216.603Z"
              fill="#3F3D56"/>
        <path d="M321.33 278.215H279.801C278.797 278.214 277.835 277.843 277.126 277.184C276.416 276.524 276.017 275.63 276.016 274.698V254.146C276.017 253.214 276.416 252.32 277.126 251.661C277.835 251.001 278.797 250.63 279.801 250.629H321.33C322.334 250.63 323.296 251.001 324.006 251.661C324.715 252.32 325.115 253.214 325.116 254.146V274.698C325.115 275.63 324.715 276.524 324.006 277.183C323.296 277.843 322.334 278.214 321.33 278.215ZM279.801 251.533C279.055 251.533 278.34 251.809 277.813 252.299C277.285 252.789 276.989 253.453 276.988 254.146V274.698C276.989 275.391 277.285 276.055 277.813 276.545C278.34 277.035 279.055 277.311 279.801 277.311H321.33C322.076 277.311 322.791 277.035 323.319 276.545C323.846 276.055 324.143 275.391 324.143 274.698V254.146C324.143 253.453 323.846 252.789 323.319 252.299C322.791 251.809 322.076 251.533 321.33 251.533H279.801Z"
              fill="#3F3D56"/>
        <path d="M490.514 347.971H0.486139C0.357207 347.971 0.233555 347.924 0.142386 347.839C0.0512177 347.754 0 347.64 0 347.52C0 347.4 0.0512177 347.285 0.142386 347.2C0.233555 347.116 0.357207 347.068 0.486139 347.068H490.514C490.643 347.068 490.766 347.116 490.858 347.2C490.949 347.285 491 347.4 491 347.52C491 347.64 490.949 347.754 490.858 347.839C490.766 347.924 490.643 347.971 490.514 347.971Z"
              fill="#3F3D56"/>
        <path d="M261.918 304.259C261.931 303.229 261.503 302.235 260.728 301.498C259.954 300.76 258.895 300.338 257.786 300.326H237.368V347.068H261.918V304.259Z"
              fill="#3F3D56"/>
        <path d="M237.854 346.616H212.332V304.39C212.333 303.253 212.82 302.162 213.686 301.358C214.552 300.554 215.725 300.101 216.95 300.1H237.854V346.616ZM213.304 345.713H236.882V301.003H216.95C215.983 301.004 215.056 301.361 214.373 301.996C213.689 302.631 213.305 303.492 213.304 304.39V345.713Z"
              fill="#3F3D56"/>
        <path d="M215.491 326.52C216.297 326.52 216.95 325.913 216.95 325.165C216.95 324.416 216.297 323.81 215.491 323.81C214.686 323.81 214.033 324.416 214.033 325.165C214.033 325.913 214.686 326.52 215.491 326.52Z"
              fill="#3F3D56"/>
        <path d="M53.7869 289.816V287.888H56.3058V286.669C56.3058 284.501 58.1999 282.747 60.5443 282.747C62.884 282.747 64.7782 284.501 64.7782 286.669V287.888H67.242V289.816H53.7869ZM84.9907 338.551C84.9907 340.936 84.0433 343.223 82.3569 344.909C80.6705 346.596 78.3833 347.543 75.9984 347.543C73.6135 347.543 71.3263 346.596 69.6399 344.909C67.9536 343.223 67.0062 340.936 67.0062 338.551C67.0062 336.166 67.9536 333.879 69.6399 332.192C71.3263 330.506 73.6135 329.558 75.9984 329.558C78.3833 329.558 80.6705 330.506 82.3569 332.192C84.0433 333.879 84.9907 336.166 84.9907 338.551ZM80.3005 338.551C80.3005 337.41 79.8474 336.316 79.0409 335.51C78.2344 334.703 77.1405 334.25 76 334.25C74.8594 334.25 73.7655 334.703 72.959 335.51C72.1525 336.316 71.6994 337.41 71.6994 338.551C71.6887 339.122 71.7919 339.69 72.0032 340.221C72.2145 340.753 72.5295 341.236 72.9299 341.644C73.3303 342.052 73.8081 342.377 74.3352 342.598C74.8623 342.819 75.4283 342.933 76 342.933C76.5716 342.933 77.1376 342.819 77.6647 342.598C78.1918 342.377 78.6696 342.052 79.07 341.644C79.4704 341.236 79.7854 340.753 79.9967 340.221C80.208 339.69 80.3113 339.122 80.3005 338.551ZM33.4963 338.465C33.4963 339.646 33.2636 340.816 32.8114 341.907C32.3593 342.998 31.6966 343.99 30.8612 344.825C30.0258 345.66 29.0341 346.323 27.9426 346.774C26.8512 347.226 25.6814 347.458 24.5002 347.458C22.1434 347.414 19.8979 346.448 18.2466 344.766C16.5952 343.084 15.6701 340.821 15.6701 338.463C15.6701 336.106 16.5952 333.843 18.2466 332.161C19.8979 330.479 22.1434 329.512 24.5002 329.469C26.8859 329.47 29.1736 330.418 30.8605 332.105C32.5474 333.792 33.4955 336.079 33.4963 338.465ZM28.8214 338.473C28.8214 337.908 28.7101 337.348 28.4938 336.826C28.2775 336.305 27.9605 335.83 27.5609 335.431C27.1613 335.032 26.687 334.715 26.1649 334.499C25.6429 334.283 25.0835 334.172 24.5186 334.173C23.6674 334.173 22.8354 334.425 22.1277 334.898C21.4201 335.371 20.8686 336.043 20.543 336.83C20.2174 337.616 20.1324 338.481 20.2987 339.316C20.4649 340.151 20.875 340.918 21.4771 341.519C22.0792 342.121 22.8461 342.53 23.681 342.696C24.5159 342.862 25.3811 342.776 26.1673 342.45C26.9535 342.124 27.6253 341.572 28.0977 340.864C28.5701 340.156 28.822 339.324 28.8214 338.473Z"
              fill="#007160"/>
        <path d="M91.1004 312.971C93.7877 313.495 95.3955 314.654 96.6083 321.286L98.5269 333.252C99.2175 337.146 97.0171 338.567 94.2731 338.567H87.6826C87.6826 332.115 82.4549 326.866 76.0022 326.866C69.5496 326.866 64.3157 332.115 64.3157 338.567H36.1515C36.1515 332.115 30.9207 326.866 24.468 326.866C18.0123 326.866 12.7831 332.115 12.7831 338.567H7.32262C5.39937 338.567 3.90181 337.111 3.90181 335.232V295.882C3.90181 293.739 5.59384 292.016 7.66868 292.016H78.3787C81.0661 292.016 83.0307 293.35 84.0015 295.688L91.1004 312.973V312.971ZM67.5298 296.026V312.372H86.4301L79.7997 296.026H67.5298ZM50.6218 310.274V300.245H40.5921V310.274H30.5609V320.306H40.5921V330.334H50.6218V320.306H60.6515V310.274H50.6218Z"
              fill="#007160"/>
    </g>
    <defs>
        <clipPath id="clip0_71_106">
            <rect width="491" height="348" fill="white"/>
        </clipPath>
    </defs>
</svg>
