<svg width="491" height="348" viewBox="0 0 491 348" fill="none" xmlns="http://www.w3.org/2000/svg">
    <path d="M150.282 161.385H87.0793V235.454H150.282V161.385Z" fill="#CCCCCC"/>
    <path d="M155.673 81.1109L94.842 80.5206C94.995 71.2345 97.0565 62.1159 101.563 53.956C104.522 48.5969 104.458 42.7646 103.745 37.851C102.644 30.2683 105.204 22.5101 110.891 17.6831C115.237 13.9879 120.722 12.0858 126.314 12.3349L127.495 12.3865C131.342 12.5541 135.088 13.732 138.388 15.8122C141.688 17.8924 144.437 20.8081 146.381 24.2916C148.358 28.0104 149.155 32.2916 148.657 36.5163C148.272 40.4915 149.194 44.5072 151.352 48.5611C155.076 57.4629 155.882 68.854 155.673 81.1109Z"
          fill="#2F2E41"/>
    <path d="M196.372 326.49L184.434 329.754L126.297 197.011L129.931 326.49H117.992C105.234 265.573 82.2016 195.27 92.5569 173.074L154.327 169.266L196.372 326.49Z"
          fill="#05A98B"/>
    <path d="M125.778 58.8281C134.665 58.8281 141.869 51.2774 141.869 41.9632C141.869 32.649 134.665 25.0984 125.778 25.0984C116.891 25.0984 109.687 32.649 109.687 41.9632C109.687 51.2774 116.891 58.8281 125.778 58.8281Z"
          fill="#A0616A"/>
    <path d="M139.793 72.9727L113.32 71.3406C115.914 65.0997 116.951 59.09 115.915 53.3877H135.64C135.596 57.7659 137.675 65.3395 139.793 72.9727Z"
          fill="#A0616A"/>
    <path d="M156.403 174.162L98.2671 178.514L104.236 70.5247L114.358 67.5325L125.778 70.2526L137.197 64.2681L144.465 66.9887L156.403 174.162Z"
          fill="#05A98B"/>
    <path d="M108.129 251.958L68.4197 242.437C80.2274 201.4 101.5 107.517 94.6332 74.0608L115.396 64.2683L108.129 251.958Z"
          fill="#E6E6E6"/>
    <path d="M88.9234 133.36L73.8701 123.567L86.7079 84.1608C88.1397 80.0946 90.8822 76.6805 94.4612 74.5088L98.7859 71.8848L96.1905 111.599L88.9234 133.36Z"
          fill="#E6E6E6"/>
    <path d="M190.922 242.981C178.389 250.581 147.06 254.817 133.305 249.51C132.292 212.431 130.307 107.551 136.679 63.1802L159.518 72.9727L157.442 102.35C146.523 127.481 178.229 215.012 190.922 242.981Z"
          fill="#E6E6E6"/>
    <path d="M189.105 128.464L175.09 123.567L156.403 101.262L159.518 72.9727L190.662 118.671L189.105 128.464Z"
          fill="#E6E6E6"/>
    <path d="M145.182 149.639C145.412 150.694 146.031 151.61 146.904 152.187C147.777 152.764 148.832 152.955 149.839 152.717L161.736 149.894L160.017 141.935L148.12 144.758C147.113 144.997 146.237 145.646 145.687 146.561C145.136 147.476 144.954 148.583 145.182 149.639Z"
          fill="#A0616A"/>
    <path d="M139.793 37.611C130.855 33.7592 122.028 33.4804 113.32 37.067L109.687 23.4663H142.908L139.793 37.611Z"
          fill="#2F2E41"/>
    <path d="M155.885 140.432L162.633 153.489C173.983 150.171 183.819 139.712 193.258 127.376L190.663 118.671L174.571 123.023L155.885 140.432Z"
          fill="#E6E6E6"/>
    <path d="M150.953 113.503H148.877C148.877 82.7249 142.83 61.2762 136.938 61.2762L136.419 59.1001C141.703 59.1001 145.072 68.0269 146.968 75.5157C149.538 85.6682 150.953 99.1589 150.953 113.503Z"
          fill="#3F3D56"/>
    <path d="M103.198 105.886H101.122C101.122 77.6986 107.21 60.188 116.175 60.188L115.656 62.3641C109.455 62.3641 103.198 75.8216 103.198 105.886Z"
          fill="#3F3D56"/>
    <path d="M149.915 119.487C152.782 119.487 155.106 117.051 155.106 114.047C155.106 111.042 152.782 108.606 149.915 108.606C147.048 108.606 144.724 111.042 144.724 114.047C144.724 117.051 147.048 119.487 149.915 119.487Z"
          fill="#3F3D56"/>
    <path d="M94.8927 118.943H92.8164C92.8164 111.144 97.0078 104.798 102.16 104.798V106.974C98.1527 106.974 94.8927 112.344 94.8927 118.943Z"
          fill="#3F3D56"/>
    <path d="M111.503 118.943H109.427C109.427 112.344 106.167 106.974 102.16 106.974V104.798C107.312 104.798 111.503 111.144 111.503 118.943Z"
          fill="#3F3D56"/>
    <path d="M110.465 121.663C111.612 121.663 112.541 120.689 112.541 119.487C112.541 118.285 111.612 117.311 110.465 117.311C109.318 117.311 108.389 118.285 108.389 119.487C108.389 120.689 109.318 121.663 110.465 121.663Z"
          fill="#3F3D56"/>
    <path d="M93.8546 121.663C95.0013 121.663 95.9309 120.689 95.9309 119.487C95.9309 118.285 95.0013 117.311 93.8546 117.311C92.7079 117.311 91.7783 118.285 91.7783 119.487C91.7783 120.689 92.7079 121.663 93.8546 121.663Z"
          fill="#3F3D56"/>
    <path d="M67.9006 99.4766L80.8554 101.901L110.465 146.027L94.7346 142.147L67.9006 99.4766Z" fill="#05A98B"/>
    <path d="M65.6028 98.9363C65.4054 98.9394 65.2124 98.998 65.0441 99.1061C64.8757 99.2141 64.7381 99.3676 64.6457 99.5505C64.5533 99.7333 64.5095 99.9388 64.5188 100.146C64.5281 100.352 64.5903 100.552 64.6988 100.725L92.3764 144.738C92.5309 144.984 92.7694 145.158 93.043 145.226L105.921 148.401C106.138 148.455 106.365 148.438 106.573 148.353C106.781 148.268 106.959 148.118 107.084 147.925C107.209 147.731 107.275 147.502 107.273 147.268C107.27 147.035 107.201 146.807 107.072 146.616L76.6839 101.33C76.6015 101.207 76.4967 101.102 76.3755 101.021C76.2543 100.94 76.1191 100.885 75.9776 100.859L65.8104 98.9559C65.7419 98.9431 65.6724 98.9365 65.6028 98.9363Z"
          fill="#3F3D56"/>
    <path d="M82.8684 130.405L83.6376 138.525L95.7762 137.262C96.8036 137.155 97.7485 136.625 98.4029 135.788C99.0574 134.951 99.3677 133.876 99.2657 132.799C99.1638 131.722 98.6578 130.732 97.8592 130.046C97.0606 129.36 96.0347 129.035 95.0072 129.142L82.8684 130.405Z"
          fill="#A0616A"/>
    <path d="M72.3132 129.464C72.3309 132.233 73.3919 134.882 75.2653 136.835C77.1386 138.787 79.6723 139.885 82.3144 139.888H84.3103L85.7634 127.197L73.7321 122.657L72.3132 129.464Z"
          fill="#E6E6E6"/>
    <path d="M491 0H254.278V130.674H491V0Z" fill="#E6E6E6"/>
    <path d="M261.173 123.448H484.105V7.22632H261.173V123.448Z" fill="white"/>
    <path d="M357.7 24.0874H278.41V107.189H357.7V24.0874Z" fill="#3F3D56"/>
    <path d="M338.74 62.025C340.009 62.025 341.038 60.9466 341.038 59.6163C341.038 58.2859 340.009 57.2075 338.74 57.2075C337.47 57.2075 336.441 58.2859 336.441 59.6163C336.441 60.9466 337.47 62.025 338.74 62.025Z"
          fill="#05A98B"/>
    <path d="M330.121 53.5943C331.391 53.5943 332.42 52.5159 332.42 51.1856C332.42 49.8553 331.391 48.7769 330.121 48.7769C328.852 48.7769 327.823 49.8553 327.823 51.1856C327.823 52.5159 328.852 53.5943 330.121 53.5943Z"
          fill="#05A98B"/>
    <path d="M328.972 59.6161C328.127 59.6162 327.297 59.8624 326.577 60.3272C325.943 59.3277 325.198 58.4108 324.357 57.5958C324.367 57.4673 324.376 57.3385 324.376 57.2074C324.376 56.2621 324.111 55.3376 323.614 54.5491C323.117 53.7606 322.409 53.143 321.579 52.7734C320.749 52.4037 319.833 52.2983 318.947 52.4703C318.06 52.6423 317.241 53.0841 316.592 53.7406C315.361 53.5576 314.113 53.5462 312.879 53.7067C312.88 53.6689 312.884 53.6322 312.884 53.5943C312.885 52.7879 312.693 51.9942 312.325 51.2859C311.958 50.5776 311.426 49.9773 310.78 49.5402C310.133 49.103 309.392 48.8429 308.625 48.7837C307.858 48.7246 307.089 48.8682 306.388 49.2014C305.687 49.5347 305.078 50.047 304.615 50.6912C304.153 51.3355 303.852 52.0912 303.74 52.889C303.628 53.6868 303.709 54.5012 303.976 55.2576C304.243 56.014 304.686 56.6882 305.266 57.2183C304.496 57.9091 303.798 58.6829 303.183 59.5268C302.616 59.032 301.943 58.6876 301.222 58.5229C300.501 58.3582 299.753 58.3779 299.04 58.5805C298.328 58.783 297.672 59.1623 297.13 59.6864C296.587 60.2105 296.172 60.864 295.921 61.5914C295.67 62.3189 295.59 63.0991 295.688 63.8659C295.785 64.6327 296.057 65.3636 296.481 65.9968C296.905 66.63 297.469 67.1469 298.124 67.5037C298.778 67.8605 299.506 68.0467 300.244 68.0467L300.258 68.0459C300.251 68.2462 300.244 68.4466 300.244 68.6488C300.244 69.8609 300.384 71.0686 300.66 72.2457C299.294 72.7844 298.08 73.6781 297.134 74.8428C296.188 76.0076 295.54 77.4052 295.25 78.9045C294.96 80.4038 295.039 81.9557 295.478 83.4145C295.918 84.8732 296.704 86.1911 297.762 87.2443C298.821 88.2976 300.117 89.0517 301.53 89.4359C302.943 89.8201 304.426 89.8217 305.839 89.4408C307.253 89.0598 308.551 88.3087 309.611 87.2578C310.672 86.207 311.461 84.8909 311.903 83.4331C315.101 84.0772 318.412 83.5624 321.293 81.9733C321.587 82.6992 322.047 83.3384 322.632 83.8346C323.217 84.3308 323.909 84.669 324.648 84.8194C325.386 84.9698 326.149 84.9278 326.869 84.6972C327.588 84.4666 328.243 84.0543 328.775 83.4966C329.307 82.939 329.7 82.2529 329.92 81.4987C330.14 80.7445 330.18 79.9452 330.037 79.171C329.893 78.3968 329.571 77.6713 329.097 77.0583C328.624 76.4453 328.014 75.9635 327.321 75.6552C328.317 73.6753 328.876 71.4866 328.958 69.2503L328.972 69.251C330.191 69.251 331.36 68.7435 332.222 67.84C333.084 66.9366 333.569 65.7112 333.569 64.4336C333.569 63.1559 333.084 61.9306 332.222 61.0271C331.36 60.1237 330.191 59.6161 328.972 59.6161Z"
          fill="#05A98B"/>
    <path d="M327.823 22.2808H304.84V25.8939H327.823V22.2808Z" fill="#E6E6E6"/>
    <path d="M458.824 24.0874H379.534V107.189H458.824V24.0874Z" fill="#3F3D56"/>
    <path d="M434.233 80.4516C434.804 80.4516 435.267 79.9663 435.267 79.3676C435.267 78.769 434.804 78.2837 434.233 78.2837C433.662 78.2837 433.198 78.769 433.198 79.3676C433.198 79.9663 433.662 80.4516 434.233 80.4516Z"
          fill="#05A98B"/>
    <path d="M430.355 76.6579C430.926 76.6579 431.389 76.1726 431.389 75.5739C431.389 74.9753 430.926 74.49 430.355 74.49C429.783 74.49 429.32 74.9753 429.32 75.5739C429.32 76.1726 429.783 76.6579 430.355 76.6579Z"
          fill="#05A98B"/>
    <path d="M429.837 79.3677C429.457 79.3677 429.084 79.4786 428.76 79.6877C428.474 79.2379 428.139 78.8253 427.76 78.4586C427.765 78.4008 427.769 78.3428 427.769 78.2838C427.769 77.8584 427.65 77.4424 427.426 77.0875C427.202 76.7327 426.884 76.4548 426.51 76.2885C426.137 76.1221 425.725 76.0747 425.326 76.1521C424.927 76.2295 424.558 76.4283 424.266 76.7237C423.712 76.6414 423.151 76.6362 422.595 76.7085C422.596 76.6915 422.598 76.6749 422.598 76.6579C422.598 76.295 422.512 75.9378 422.346 75.6191C422.181 75.3004 421.942 75.0303 421.651 74.8335C421.36 74.6368 421.026 74.5198 420.681 74.4932C420.336 74.4665 419.99 74.5311 419.674 74.6811C419.359 74.8311 419.085 75.0616 418.877 75.3515C418.668 75.6414 418.533 75.9815 418.483 76.3405C418.433 76.6995 418.469 77.066 418.589 77.4064C418.709 77.7468 418.909 78.0501 419.169 78.2887C418.823 78.5996 418.509 78.9478 418.232 79.3275C417.977 79.1049 417.674 78.9499 417.35 78.8758C417.025 78.8017 416.688 78.8105 416.368 78.9017C416.047 78.9928 415.752 79.1635 415.508 79.3994C415.264 79.6352 415.077 79.9292 414.964 80.2566C414.851 80.584 414.815 80.935 414.859 81.2801C414.903 81.6252 415.026 81.9541 415.216 82.239C415.407 82.5239 415.661 82.7565 415.955 82.9171C416.25 83.0777 416.577 83.1615 416.91 83.1614L416.916 83.1611C416.913 83.2512 416.91 83.3414 416.91 83.4324C416.91 83.9779 416.972 84.5213 417.097 85.051C416.482 85.2934 415.936 85.6956 415.51 86.2197C415.084 86.7438 414.793 87.3728 414.662 88.0475C414.532 88.7222 414.567 89.4205 414.765 90.077C414.963 90.7334 415.316 91.3264 415.793 91.8004C416.269 92.2743 416.853 92.6137 417.488 92.7866C418.124 92.9595 418.791 92.9602 419.427 92.7888C420.064 92.6173 420.648 92.2793 421.125 91.8065C421.602 91.3336 421.957 90.7414 422.156 90.0854C423.595 90.3752 425.085 90.1435 426.382 89.4284C426.514 89.7551 426.721 90.0427 426.984 90.266C427.247 90.4893 427.559 90.6415 427.891 90.7092C428.224 90.7769 428.567 90.758 428.891 90.6542C429.215 90.5504 429.509 90.3649 429.749 90.1139C429.988 89.863 430.165 89.5543 430.264 89.2149C430.363 88.8755 430.381 88.5158 430.316 88.1674C430.252 87.819 430.107 87.4925 429.894 87.2167C429.681 86.9408 429.406 86.724 429.094 86.5853C429.542 85.6943 429.794 84.7094 429.831 83.7031L429.837 83.7034C430.386 83.7034 430.912 83.475 431.3 83.0685C431.688 82.6619 431.906 82.1105 431.906 81.5356C431.906 80.9606 431.688 80.4092 431.3 80.0026C430.912 79.5961 430.386 79.3677 429.837 79.3677Z"
          fill="#05A98B"/>
    <path d="M442.347 59.8822C442.918 59.8822 443.381 59.3969 443.381 58.7983C443.381 58.1996 442.918 57.7144 442.347 57.7144C441.776 57.7144 441.312 58.1996 441.312 58.7983C441.312 59.3969 441.776 59.8822 442.347 59.8822Z"
          fill="#05A98B"/>
    <path d="M444.78 54.9413C445.351 54.9413 445.814 54.456 445.814 53.8574C445.814 53.2587 445.351 52.7734 444.78 52.7734C444.208 52.7734 443.745 53.2587 443.745 53.8574C443.745 54.456 444.208 54.9413 444.78 54.9413Z"
          fill="#05A98B"/>
    <path d="M441.155 54.3639C441.052 53.98 440.849 53.6337 440.569 53.3635C440.905 52.9537 441.193 52.5034 441.427 52.0222C441.481 52.011 441.536 51.9994 441.59 51.9833C441.981 51.8683 442.33 51.6353 442.596 51.3134C442.861 50.9914 443.03 50.5948 443.081 50.1728C443.133 49.7509 443.065 49.3225 442.885 48.9409C442.706 48.5593 442.424 48.2414 442.073 48.027C441.999 47.4459 441.851 46.8776 441.634 46.3371C441.65 46.3329 441.666 46.3305 441.681 46.3259C442.015 46.228 442.319 46.0439 442.567 45.7906C442.815 45.5373 442.998 45.2228 443.1 44.876C443.202 44.5291 443.219 44.1611 443.15 43.8055C443.081 43.45 442.928 43.1183 442.704 42.8409C442.481 42.5635 442.195 42.3493 441.873 42.2178C441.55 42.0864 441.201 42.0419 440.857 42.0886C440.514 42.1352 440.187 42.2714 439.907 42.4847C439.627 42.698 439.403 42.9816 439.254 43.3094C438.875 43.0444 438.47 42.8219 438.046 42.6456C438.182 42.3277 438.242 41.9803 438.222 41.6328C438.202 41.2853 438.103 40.948 437.932 40.6493C437.761 40.3506 437.525 40.0994 437.242 39.9169C436.959 39.7343 436.638 39.6259 436.307 39.6007C435.976 39.5755 435.644 39.6342 435.339 39.772C435.034 39.9098 434.765 40.1226 434.555 40.3923C434.345 40.6621 434.2 40.9808 434.132 41.3217C434.065 41.6625 434.076 42.0154 434.166 42.3504L434.169 42.357C434.085 42.378 434.001 42.3992 433.918 42.4239C433.417 42.5718 432.935 42.7825 432.482 43.0514C432.093 42.4969 431.575 42.0552 430.978 41.7678C430.382 41.4803 429.725 41.3564 429.07 41.4078C428.415 41.4592 427.783 41.6842 427.234 42.0616C426.685 42.439 426.236 42.9566 425.93 43.5656C425.623 44.1746 425.47 44.8552 425.483 45.5434C425.497 46.2316 425.677 46.905 426.007 47.5002C426.337 48.0955 426.806 48.5932 427.369 48.9465C427.933 49.2998 428.573 49.4973 429.23 49.5203C429.354 51.0504 429.97 52.4908 430.978 53.6049C430.714 53.827 430.506 54.1137 430.373 54.4398C430.239 54.7658 430.183 55.1213 430.211 55.475C430.239 55.8287 430.35 56.1698 430.533 56.4683C430.716 56.7669 430.966 57.0138 431.262 57.1873C431.557 57.3608 431.888 57.4557 432.227 57.4636C432.566 57.4715 432.901 57.3922 433.203 57.2326C433.506 57.073 433.766 56.838 433.962 56.5483C434.157 56.2586 434.282 55.923 434.325 55.5709C435.265 55.7813 436.237 55.7682 437.172 55.5325L437.173 55.5391C437.247 55.8134 437.371 56.0697 437.539 56.2936C437.707 56.5174 437.916 56.7043 438.153 56.8437C438.39 56.9831 438.65 57.0721 438.92 57.1057C439.19 57.1394 439.464 57.1169 439.725 57.0397C439.987 56.9625 440.231 56.8321 440.445 56.6558C440.658 56.4795 440.836 56.2608 440.969 56.0123C441.102 55.7638 441.187 55.4903 441.219 55.2075C441.251 54.9246 441.229 54.638 441.155 54.3639Z"
          fill="#05A98B"/>
    <path d="M402.29 45.1525C402.861 45.1525 403.324 44.6672 403.324 44.0685C403.324 43.4699 402.861 42.9846 402.29 42.9846C401.719 42.9846 401.256 43.4699 401.256 44.0685C401.256 44.6672 401.719 45.1525 402.29 45.1525Z"
          fill="#05A98B"/>
    <path d="M397.002 45.5966C397.573 45.5966 398.036 45.1113 398.036 44.5126C398.036 43.914 397.573 43.4287 397.002 43.4287C396.431 43.4287 395.968 43.914 395.968 44.5126C395.968 45.1113 396.431 45.5966 397.002 45.5966Z"
          fill="#05A98B"/>
    <path d="M399.326 47.4707C399.07 47.7653 398.896 48.1287 398.825 48.5206C398.316 48.4382 397.799 48.4196 397.285 48.4653C397.248 48.4229 397.21 48.3807 397.168 48.3409C396.868 48.0539 396.495 47.8656 396.094 47.7996C395.693 47.7336 395.282 47.7928 394.913 47.9697C394.544 48.1467 394.233 48.4336 394.019 48.7946C393.804 49.1557 393.696 49.575 393.707 50.0002C393.276 50.3733 392.893 50.8048 392.57 51.2832C392.558 51.2715 392.548 51.2587 392.536 51.2472C392.28 51.0022 391.97 50.8283 391.634 50.7415C391.298 50.6547 390.946 50.6577 390.612 50.7502C390.277 50.8427 389.97 51.0219 389.718 51.2712C389.467 51.5205 389.279 51.832 389.172 52.1771C389.065 52.5222 389.042 52.89 389.106 53.2466C389.17 53.6032 389.319 53.9373 389.538 54.2183C389.757 54.4992 390.04 54.718 390.36 54.8547C390.681 54.9913 391.029 55.0414 391.373 55.0003C391.359 55.4779 391.393 55.9558 391.474 56.426C391.145 56.4735 390.831 56.6034 390.56 56.8046C390.289 57.0058 390.068 57.2725 389.917 57.582C389.765 57.8916 389.686 58.235 389.688 58.5831C389.689 58.9312 389.77 59.2738 389.925 59.5819C390.079 59.8901 390.303 60.1547 390.575 60.3534C390.848 60.5521 391.162 60.679 391.492 60.7234C391.821 60.7679 392.156 60.7285 392.468 60.6086C392.78 60.4888 393.059 60.292 393.283 60.0349L393.288 60.0296C393.349 60.093 393.41 60.1562 393.474 60.2176C393.859 60.5853 394.284 60.9031 394.741 61.1641C394.497 61.8033 394.413 62.497 394.495 63.18C394.577 63.8629 394.824 64.5128 395.211 65.0686C395.599 65.6244 396.115 66.0678 396.711 66.3574C397.306 66.6469 397.963 66.7731 398.618 66.7239C399.273 66.6748 399.905 66.452 400.456 66.0765C401.006 65.7009 401.457 65.185 401.765 64.577C402.073 63.9691 402.229 63.289 402.217 62.6008C402.206 61.9125 402.028 61.2385 401.7 60.6421C402.874 59.7239 403.716 58.4143 404.086 56.9286C404.405 57.0464 404.747 57.0802 405.082 57.0271C405.417 56.9739 405.734 56.8354 406.006 56.6237C406.278 56.4121 406.496 56.1337 406.641 55.8131C406.786 55.4925 406.854 55.1394 406.839 54.7849C406.823 54.4303 406.725 54.0851 406.553 53.7797C406.38 53.4742 406.139 53.2178 405.85 53.0328C405.561 52.8479 405.233 52.7402 404.895 52.7191C404.557 52.6981 404.219 52.7643 403.911 52.912C403.586 51.9646 403.061 51.1058 402.377 50.3988L402.382 50.394C402.565 50.1838 402.707 49.9378 402.8 49.6699C402.893 49.4021 402.934 49.1177 402.922 48.833C402.91 48.5484 402.845 48.269 402.729 48.011C402.614 47.7529 402.451 47.5212 402.251 47.3291C402.05 47.1369 401.815 46.9882 401.559 46.8913C401.303 46.7945 401.032 46.7514 400.76 46.7645C400.489 46.7777 400.222 46.8468 399.976 46.968C399.73 47.0892 399.509 47.26 399.326 47.4707Z"
          fill="#05A98B"/>
    <path d="M428.947 22.2808H405.964V25.8939H428.947V22.2808Z" fill="#E6E6E6"/>
    <path d="M298.52 326.778H0V328.128H298.52V326.778Z" fill="#3F3D56"/>
</svg>
