<svg width="410" height="365" viewBox="0 0 410 365" fill="none" xmlns="http://www.w3.org/2000/svg">
    <g clip-path="url(#clip0_18_370)">
        <path d="M182.166 247.988C178.745 247.988 175.4 246.975 172.555 245.076C169.71 243.177 167.492 240.478 166.183 237.32C164.873 234.163 164.531 230.688 165.198 227.336C165.866 223.984 167.513 220.904 169.933 218.488C172.353 216.071 175.435 214.425 178.791 213.758C182.147 213.091 185.626 213.433 188.787 214.741C191.948 216.049 194.65 218.264 196.551 221.106C198.453 223.948 199.467 227.289 199.467 230.707C199.462 235.289 197.638 239.681 194.394 242.921C191.151 246.161 186.753 247.983 182.166 247.988ZM182.166 214.765C179.01 214.765 175.924 215.7 173.3 217.452C170.675 219.204 168.63 221.694 167.422 224.607C166.214 227.519 165.898 230.725 166.513 233.817C167.129 236.91 168.649 239.75 170.881 241.98C173.113 244.209 175.957 245.727 179.053 246.342C182.149 246.957 185.358 246.642 188.274 245.435C191.19 244.229 193.683 242.185 195.436 239.564C197.19 236.942 198.126 233.86 198.126 230.707C198.121 226.481 196.438 222.429 193.446 219.44C190.454 216.451 186.398 214.77 182.166 214.765Z"
              fill="#05A98B"/>
        <path d="M180.519 237.044C180.144 237.044 179.78 236.923 179.481 236.699L179.462 236.685L175.554 233.699C175.373 233.56 175.221 233.388 175.107 233.19C174.993 232.993 174.919 232.775 174.889 232.549C174.859 232.324 174.874 232.094 174.933 231.874C174.992 231.654 175.094 231.448 175.232 231.267C175.371 231.086 175.544 230.934 175.742 230.82C175.939 230.706 176.157 230.632 176.383 230.602C176.61 230.572 176.839 230.587 177.06 230.646C177.28 230.705 177.487 230.807 177.668 230.945L180.199 232.884L186.181 225.089C186.32 224.908 186.493 224.757 186.69 224.643C186.888 224.529 187.106 224.455 187.332 224.425C187.558 224.395 187.787 224.41 188.008 224.469C188.228 224.528 188.434 224.629 188.615 224.768L188.579 224.82L188.617 224.768C188.982 225.049 189.221 225.462 189.281 225.918C189.341 226.374 189.218 226.835 188.938 227.2L181.902 236.365C181.739 236.576 181.53 236.747 181.29 236.864C181.05 236.982 180.787 237.042 180.52 237.042L180.519 237.044Z"
              fill="#05A98B"/>
        <path d="M120.934 144.094C130.029 144.094 137.402 136.73 137.402 127.645C137.402 118.561 130.029 111.196 120.934 111.196C111.839 111.196 104.466 118.561 104.466 127.645C104.466 136.73 111.839 144.094 120.934 144.094Z"
              fill="#A0616A"/>
        <path d="M114.988 224.978C114.781 224.978 114.572 224.968 114.363 224.95C113.327 224.864 112.321 224.56 111.412 224.058C110.502 223.557 109.708 222.868 109.083 222.039C108.458 221.21 108.015 220.258 107.784 219.246C107.553 218.234 107.539 217.184 107.742 216.166C107.79 215.929 107.85 215.696 107.923 215.465L83.6178 186.752C82.8259 185.809 82.3594 184.637 82.2876 183.408C82.2158 182.179 82.5425 180.96 83.2192 179.931L83.2632 179.878L105.141 158.33C105.736 157.744 106.441 157.282 107.216 156.97C107.99 156.658 108.819 156.502 109.654 156.512C110.49 156.522 111.315 156.697 112.082 157.027C112.849 157.357 113.543 157.835 114.124 158.435C114.705 159.034 115.162 159.743 115.467 160.519C115.772 161.296 115.921 162.125 115.903 162.96C115.886 163.794 115.703 164.616 115.366 165.38C115.029 166.143 114.543 166.832 113.938 167.407L98.0928 182.453L115.439 210.263C115.768 210.28 116.095 210.32 116.418 210.383C118.212 210.741 119.809 211.752 120.899 213.22C121.989 214.688 122.494 216.508 122.316 218.327C122.138 220.146 121.289 221.833 119.935 223.063C118.581 224.292 116.818 224.974 114.988 224.978Z"
              fill="#A0616A"/>
        <path d="M148.056 356.576L156.276 356.575L160.187 324.906L148.055 324.906L148.056 356.576Z" fill="#A0616A"/>
        <path d="M145.959 353.895L162.148 353.895H162.148C163.503 353.895 164.845 354.161 166.096 354.679C167.348 355.197 168.485 355.956 169.443 356.913C170.401 357.87 171.161 359.006 171.679 360.256C172.198 361.506 172.465 362.846 172.465 364.199V364.534L145.96 364.535L145.959 353.895Z"
              fill="#2F2E41"/>
        <path d="M66.3534 345.224L73.4163 349.424L92.9979 324.211L82.5738 318.012L66.3534 345.224Z" fill="#A0616A"/>
        <path d="M65.9251 341.849L79.8344 350.121C80.9985 350.813 82.0152 351.728 82.8254 352.813C83.6356 353.897 84.224 355.131 84.557 356.442C84.89 357.754 84.961 359.119 84.7661 360.458C84.5712 361.797 84.1142 363.085 83.421 364.247L83.2495 364.535L60.4758 350.991L65.9251 341.849Z"
              fill="#2F2E41"/>
        <path d="M158.216 345.39H149.011C148.266 345.391 147.547 345.116 146.992 344.619C146.438 344.121 146.089 343.435 146.011 342.695L136.731 255.566C136.708 255.347 136.613 255.141 136.461 254.981C136.309 254.821 136.109 254.715 135.891 254.68C135.673 254.645 135.449 254.683 135.255 254.788C135.06 254.892 134.906 255.057 134.815 255.258L118.074 292.285L88.4357 340.559C88.0521 341.178 87.4582 341.638 86.7627 341.855C86.0672 342.072 85.3167 342.032 84.6485 341.741L72.8083 336.538C72.4168 336.366 72.0664 336.112 71.7804 335.795C71.4943 335.477 71.2792 335.102 71.1491 334.695C71.0191 334.288 70.9772 333.858 71.0262 333.434C71.0752 333.009 71.2139 332.6 71.4333 332.233L98.679 286.664L107.035 248.27C104.407 231.62 115.673 206.866 115.788 206.617L115.844 206.496L149.72 192.96L149.876 193.151C170.006 217.695 166.73 277.862 161.223 342.629C161.155 343.38 160.81 344.079 160.254 344.59C159.698 345.1 158.971 345.386 158.216 345.39Z"
              fill="#2F2E41"/>
        <path d="M114.593 210.553L114.449 210.25C114.38 210.104 107.479 195.567 102.159 180.029C101.137 177.024 100.751 173.84 101.024 170.679C101.298 167.517 102.227 164.446 103.75 161.662C105.294 158.848 107.406 156.386 109.952 154.43C112.498 152.474 115.423 151.068 118.542 150.301C123.956 149.005 129.656 149.694 134.603 152.244C139.551 154.794 143.417 159.034 145.497 164.193C149.716 174.733 151.214 184.563 149.948 193.41L149.923 193.587L149.762 193.664L114.593 210.553Z"
              fill="#05A98B"/>
        <path d="M172.538 234.138C171.839 235.012 170.954 235.721 169.948 236.213C168.943 236.705 167.84 236.969 166.72 236.985C165.699 236.999 164.685 236.807 163.74 236.419C162.794 236.032 161.937 235.458 161.219 234.732C160.502 234.006 159.939 233.142 159.564 232.193C159.189 231.243 159.01 230.228 159.037 229.208C159.049 228.835 159.089 228.463 159.158 228.096L126.731 167.771C126.307 167.093 126.021 166.338 125.89 165.55C125.758 164.762 125.785 163.956 125.967 163.177C126.149 162.399 126.483 161.665 126.95 161.016C127.417 160.367 128.008 159.817 128.689 159.398C129.369 158.978 130.126 158.697 130.916 158.57C131.706 158.444 132.513 158.475 133.291 158.661C134.069 158.847 134.803 159.185 135.449 159.655C136.096 160.126 136.643 160.719 137.06 161.401L168.738 222.15C169.933 222.497 171.024 223.133 171.915 224.002C172.805 224.871 173.468 225.945 173.844 227.131C174.219 228.316 174.297 229.575 174.069 230.798C173.841 232.02 173.315 233.167 172.538 234.138Z"
              fill="#A0616A"/>
        <path d="M140.9 118.353H114.751V106.968C120.491 104.691 126.107 102.754 129.502 106.968C132.525 106.968 135.424 108.168 137.562 110.303C139.699 112.438 140.9 115.334 140.9 118.353Z"
              fill="#2F2E41"/>
        <path d="M113.304 104.959C97.6713 104.959 93.2958 124.531 93.2958 135.573C93.2958 141.731 96.0838 143.933 100.465 144.678L102.012 136.436L105.636 145.033C106.867 145.039 108.159 145.015 109.5 144.991L110.728 142.463L113.468 144.945C124.442 144.961 133.311 146.559 133.311 135.573C133.311 124.531 129.474 104.959 113.304 104.959Z"
              fill="#2F2E41"/>
        <path d="M255.118 106.486C258.08 106.486 260.481 104.087 260.481 101.128C260.481 98.1694 258.08 95.7706 255.118 95.7706C252.155 95.7706 249.754 98.1694 249.754 101.128C249.754 104.087 252.155 106.486 255.118 106.486Z"
              fill="#05A98B"/>
        <path d="M392.699 166.282C389.278 166.282 385.933 165.268 383.088 163.369C380.242 161.47 378.025 158.772 376.715 155.614C375.406 152.456 375.063 148.981 375.731 145.629C376.399 142.277 378.046 139.198 380.466 136.781C382.885 134.364 385.968 132.718 389.324 132.052C392.68 131.385 396.159 131.727 399.32 133.035C402.481 134.343 405.183 136.558 407.084 139.4C408.985 142.242 410 145.583 410 149.001C409.995 153.582 408.17 157.975 404.927 161.215C401.684 164.454 397.286 166.277 392.699 166.282ZM392.699 133.059C389.543 133.059 386.457 133.994 383.833 135.746C381.208 137.497 379.162 139.987 377.954 142.9C376.746 145.813 376.43 149.018 377.046 152.111C377.662 155.203 379.182 158.044 381.414 160.273C383.646 162.503 386.49 164.021 389.586 164.636C392.682 165.251 395.891 164.935 398.807 163.729C401.723 162.522 404.216 160.479 405.969 157.857C407.723 155.236 408.659 152.154 408.659 149.001C408.654 144.774 406.971 140.722 403.979 137.734C400.987 134.745 396.931 133.064 392.699 133.059Z"
              fill="#05A98B"/>
        <path d="M391.051 155.337C390.677 155.338 390.313 155.217 390.014 154.993L389.995 154.979L386.087 151.993C385.721 151.713 385.482 151.299 385.422 150.843C385.361 150.387 385.485 149.925 385.765 149.56C386.045 149.195 386.459 148.956 386.916 148.896C387.373 148.836 387.835 148.959 388.2 149.239L390.732 151.178L396.714 143.383C396.853 143.202 397.026 143.05 397.223 142.936C397.42 142.822 397.638 142.748 397.864 142.719C398.09 142.689 398.32 142.704 398.54 142.763C398.761 142.821 398.967 142.923 399.148 143.062L399.111 143.113L399.149 143.062C399.514 143.342 399.753 143.756 399.813 144.211C399.874 144.667 399.75 145.129 399.471 145.494L392.434 154.659C392.272 154.87 392.062 155.041 391.823 155.158C391.583 155.275 391.32 155.336 391.053 155.335L391.051 155.337Z"
              fill="#05A98B"/>
        <path d="M390.556 101.798H272.55C272.372 101.798 272.202 101.728 272.076 101.602C271.95 101.476 271.88 101.306 271.88 101.128C271.88 100.951 271.95 100.781 272.076 100.655C272.202 100.529 272.372 100.459 272.55 100.459H390.556C390.734 100.459 390.904 100.529 391.03 100.655C391.156 100.781 391.226 100.951 391.226 101.128C391.226 101.306 391.156 101.476 391.03 101.602C390.904 101.728 390.734 101.798 390.556 101.798Z"
              fill="#3F3D56"/>
        <path d="M390.556 114.523H272.55C272.372 114.523 272.202 114.452 272.076 114.327C271.95 114.201 271.88 114.031 271.88 113.853C271.88 113.676 271.95 113.505 272.076 113.38C272.202 113.254 272.372 113.183 272.55 113.183H390.556C390.734 113.183 390.904 113.254 391.03 113.38C391.156 113.505 391.226 113.676 391.226 113.853C391.226 114.031 391.156 114.201 391.03 114.327C390.904 114.452 390.734 114.523 390.556 114.523Z"
              fill="#3F3D56"/>
        <path d="M390.556 127.248H272.55C272.372 127.248 272.202 127.177 272.076 127.051C271.95 126.926 271.88 126.756 271.88 126.578C271.88 126.4 271.95 126.23 272.076 126.104C272.202 125.979 272.372 125.908 272.55 125.908H390.556C390.734 125.908 390.904 125.979 391.03 126.104C391.156 126.23 391.226 126.4 391.226 126.578C391.226 126.756 391.156 126.926 391.03 127.051C390.904 127.177 390.734 127.248 390.556 127.248Z"
              fill="#3F3D56"/>
        <path d="M363.736 139.973H272.55C272.372 139.973 272.202 139.902 272.076 139.776C271.95 139.651 271.88 139.48 271.88 139.303C271.88 139.125 271.95 138.955 272.076 138.829C272.202 138.704 272.372 138.633 272.55 138.633H363.736C363.914 138.633 364.085 138.704 364.211 138.829C364.336 138.955 364.407 139.125 364.407 139.303C364.407 139.48 364.336 139.651 364.211 139.776C364.085 139.902 363.914 139.973 363.736 139.973Z"
              fill="#3F3D56"/>
        <path d="M363.066 152.697H272.55C272.372 152.697 272.202 152.627 272.076 152.501C271.95 152.375 271.88 152.205 271.88 152.028C271.88 151.85 271.95 151.68 272.076 151.554C272.202 151.428 272.372 151.358 272.55 151.358H363.066C363.244 151.358 363.414 151.428 363.54 151.554C363.666 151.68 363.736 151.85 363.736 152.028C363.736 152.205 363.666 152.375 363.54 152.501C363.414 152.627 363.244 152.697 363.066 152.697Z"
              fill="#3F3D56"/>
        <path d="M255.118 10.7156C258.08 10.7156 260.481 8.31683 260.481 5.3578C260.481 2.39877 258.08 0 255.118 0C252.155 0 249.754 2.39877 249.754 5.3578C249.754 8.31683 252.155 10.7156 255.118 10.7156Z"
              fill="#05A98B"/>
        <path d="M392.699 70.5111C389.278 70.5111 385.933 69.4976 383.088 67.5987C380.242 65.6998 378.025 63.0009 376.715 59.8432C375.406 56.6855 375.063 53.2109 375.731 49.8587C376.399 46.5065 378.046 43.4273 380.466 41.0105C382.885 38.5937 385.968 36.9478 389.324 36.281C392.68 35.6142 396.159 35.9565 399.32 37.2644C402.481 38.5724 405.183 40.7873 407.084 43.6292C408.985 46.4711 410 49.8122 410 53.23C409.995 57.8117 408.17 62.2042 404.927 65.4439C401.684 68.6836 397.286 70.5059 392.699 70.5111ZM392.699 37.2884C389.543 37.2884 386.457 38.2234 383.833 39.9751C381.208 41.7268 379.162 44.2165 377.954 47.1294C376.746 50.0424 376.43 53.2477 377.046 56.3401C377.662 59.4325 379.182 62.273 381.414 64.5025C383.646 66.7319 386.49 68.2502 389.586 68.8653C392.682 69.4804 395.891 69.1647 398.807 67.9582C401.723 66.7516 404.216 64.7083 405.969 62.0867C407.723 59.4651 408.659 56.383 408.659 53.23C408.654 49.0035 406.971 44.9515 403.979 41.9629C400.987 38.9743 396.931 37.2932 392.699 37.2884Z"
              fill="#05A98B"/>
        <path d="M391.051 59.5666C390.677 59.5673 390.313 59.4464 390.014 59.2222L389.995 59.2083L386.087 56.222C385.721 55.942 385.482 55.5285 385.422 55.0724C385.361 54.6162 385.485 54.1548 385.765 53.7896C386.045 53.4245 386.459 53.1855 386.916 53.1253C387.373 53.065 387.835 53.1884 388.2 53.4684L390.732 55.4074L396.714 47.612C396.853 47.4313 397.026 47.2796 397.223 47.1657C397.42 47.0517 397.638 46.9777 397.864 46.9479C398.09 46.9181 398.32 46.933 398.54 46.9919C398.761 47.0507 398.967 47.1523 399.148 47.2909L399.111 47.3428L399.149 47.2913C399.514 47.5715 399.753 47.9849 399.813 48.4408C399.874 48.8967 399.75 49.3579 399.471 49.7231L392.434 58.888C392.272 59.0992 392.062 59.2701 391.823 59.3874C391.583 59.5047 391.32 59.5653 391.053 59.5646L391.051 59.5666Z"
              fill="#05A98B"/>
        <path d="M390.556 6.02756H272.55C272.372 6.02756 272.202 5.957 272.076 5.8314C271.95 5.7058 271.88 5.53546 271.88 5.35784C271.88 5.18021 271.95 5.00987 272.076 4.88427C272.202 4.75867 272.372 4.68811 272.55 4.68811H390.556C390.734 4.68811 390.904 4.75867 391.03 4.88427C391.156 5.00987 391.226 5.18021 391.226 5.35784C391.226 5.53546 391.156 5.7058 391.03 5.8314C390.904 5.957 390.734 6.02756 390.556 6.02756Z"
              fill="#3F3D56"/>
        <path d="M390.556 18.7523H272.55C272.372 18.7523 272.202 18.6817 272.076 18.5561C271.95 18.4305 271.88 18.2602 271.88 18.0826C271.88 17.9049 271.95 17.7346 272.076 17.609C272.202 17.4834 272.372 17.4128 272.55 17.4128H390.556C390.734 17.4128 390.904 17.4834 391.03 17.609C391.156 17.7346 391.226 17.9049 391.226 18.0826C391.226 18.2602 391.156 18.4305 391.03 18.5561C390.904 18.6817 390.734 18.7523 390.556 18.7523Z"
              fill="#3F3D56"/>
        <path d="M390.556 31.477H272.55C272.372 31.477 272.202 31.4065 272.076 31.2809C271.95 31.1553 271.88 30.9849 271.88 30.8073C271.88 30.6297 271.95 30.4593 272.076 30.3337C272.202 30.2081 272.372 30.1376 272.55 30.1376H390.556C390.734 30.1376 390.904 30.2081 391.03 30.3337C391.156 30.4593 391.226 30.6297 391.226 30.8073C391.226 30.9849 391.156 31.1553 391.03 31.2809C390.904 31.4065 390.734 31.477 390.556 31.477Z"
              fill="#3F3D56"/>
        <path d="M363.736 44.2019H272.55C272.372 44.2019 272.202 44.1313 272.076 44.0057C271.95 43.8801 271.88 43.7098 271.88 43.5322C271.88 43.3545 271.95 43.1842 272.076 43.0586C272.202 42.933 272.372 42.8624 272.55 42.8624H363.736C363.914 42.8624 364.085 42.933 364.211 43.0586C364.336 43.1842 364.407 43.3545 364.407 43.5322C364.407 43.7098 364.336 43.8801 364.211 44.0057C364.085 44.1313 363.914 44.2019 363.736 44.2019Z"
              fill="#3F3D56"/>
        <path d="M363.066 56.9266H272.55C272.372 56.9266 272.202 56.856 272.076 56.7304C271.95 56.6048 271.88 56.4345 271.88 56.2569C271.88 56.0793 271.95 55.9089 272.076 55.7833C272.202 55.6577 272.372 55.5872 272.55 55.5872H363.066C363.244 55.5872 363.414 55.6577 363.54 55.7833C363.666 55.9089 363.736 56.0793 363.736 56.2569C363.736 56.4345 363.666 56.6048 363.54 56.7304C363.414 56.856 363.244 56.9266 363.066 56.9266Z"
              fill="#3F3D56"/>
        <path d="M255.118 201.587C258.08 201.587 260.481 199.188 260.481 196.229C260.481 193.27 258.08 190.872 255.118 190.872C252.155 190.872 249.754 193.27 249.754 196.229C249.754 199.188 252.155 201.587 255.118 201.587Z"
              fill="#05A98B"/>
        <path d="M392.699 261.383C389.278 261.383 385.933 260.369 383.088 258.47C380.242 256.571 378.025 253.872 376.715 250.715C375.406 247.557 375.063 244.082 375.731 240.73C376.399 237.378 378.046 234.299 380.466 231.882C382.885 229.465 385.968 227.819 389.324 227.153C392.68 226.486 396.159 226.828 399.32 228.136C402.481 229.444 405.183 231.659 407.084 234.501C408.985 237.343 410 240.684 410 244.102C409.995 248.683 408.17 253.076 404.927 256.315C401.684 259.555 397.286 261.378 392.699 261.383ZM392.699 228.16C389.543 228.16 386.457 229.095 383.833 230.847C381.208 232.598 379.162 235.088 377.954 238.001C376.746 240.914 376.43 244.119 377.046 247.212C377.662 250.304 379.182 253.145 381.414 255.374C383.646 257.604 386.49 259.122 389.586 259.737C392.682 260.352 395.891 260.036 398.807 258.83C401.723 257.623 404.216 255.58 405.969 252.958C407.723 250.337 408.659 247.255 408.659 244.102C408.654 239.875 406.971 235.823 403.979 232.834C400.987 229.846 396.931 228.165 392.699 228.16Z"
              fill="#3F3D56"/>
        <path d="M391.051 250.438C390.677 250.439 390.313 250.318 390.014 250.094L389.995 250.08L386.087 247.094C385.906 246.955 385.754 246.782 385.64 246.585C385.526 246.388 385.452 246.17 385.422 245.944C385.392 245.718 385.407 245.489 385.466 245.268C385.525 245.048 385.626 244.842 385.765 244.661C385.904 244.48 386.077 244.329 386.274 244.215C386.472 244.101 386.69 244.027 386.916 243.997C387.142 243.967 387.372 243.982 387.592 244.041C387.813 244.1 388.019 244.201 388.2 244.34L390.732 246.279L396.714 238.484C396.853 238.303 397.026 238.151 397.223 238.037C397.42 237.923 397.638 237.849 397.864 237.819C398.09 237.79 398.32 237.805 398.54 237.863C398.761 237.922 398.967 238.024 399.148 238.162L399.111 238.214L399.149 238.163C399.514 238.443 399.753 238.857 399.813 239.312C399.874 239.768 399.75 240.229 399.471 240.595L392.434 249.76C392.272 249.971 392.062 250.142 391.823 250.259C391.583 250.376 391.32 250.437 391.053 250.436L391.051 250.438Z"
              fill="#3F3D56"/>
        <path d="M390.556 196.899H272.55C272.372 196.899 272.202 196.828 272.076 196.703C271.95 196.577 271.88 196.407 271.88 196.229C271.88 196.052 271.95 195.881 272.076 195.756C272.202 195.63 272.372 195.56 272.55 195.56H390.556C390.734 195.56 390.904 195.63 391.03 195.756C391.156 195.881 391.226 196.052 391.226 196.229C391.226 196.407 391.156 196.577 391.03 196.703C390.904 196.828 390.734 196.899 390.556 196.899Z"
              fill="#3F3D56"/>
        <path d="M390.556 209.624H272.55C272.372 209.624 272.202 209.553 272.076 209.428C271.95 209.302 271.88 209.132 271.88 208.954C271.88 208.777 271.95 208.606 272.076 208.481C272.202 208.355 272.372 208.284 272.55 208.284H390.556C390.734 208.284 390.904 208.355 391.03 208.481C391.156 208.606 391.226 208.777 391.226 208.954C391.226 209.132 391.156 209.302 391.03 209.428C390.904 209.553 390.734 209.624 390.556 209.624Z"
              fill="#3F3D56"/>
        <path d="M390.556 222.349H272.55C272.372 222.349 272.202 222.278 272.076 222.152C271.95 222.027 271.88 221.857 271.88 221.679C271.88 221.501 271.95 221.331 272.076 221.205C272.202 221.08 272.372 221.009 272.55 221.009H390.556C390.734 221.009 390.904 221.08 391.03 221.205C391.156 221.331 391.226 221.501 391.226 221.679C391.226 221.857 391.156 222.027 391.03 222.152C390.904 222.278 390.734 222.349 390.556 222.349Z"
              fill="#3F3D56"/>
        <path d="M363.736 235.073H272.55C272.372 235.073 272.202 235.003 272.076 234.877C271.95 234.752 271.88 234.581 271.88 234.404C271.88 234.226 271.95 234.056 272.076 233.93C272.202 233.804 272.372 233.734 272.55 233.734H363.736C363.914 233.734 364.085 233.804 364.211 233.93C364.336 234.056 364.407 234.226 364.407 234.404C364.407 234.581 364.336 234.752 364.211 234.877C364.085 235.003 363.914 235.073 363.736 235.073Z"
              fill="#3F3D56"/>
        <path d="M363.066 247.798H272.55C272.372 247.798 272.202 247.728 272.076 247.602C271.95 247.476 271.88 247.306 271.88 247.128C271.88 246.951 271.95 246.781 272.076 246.655C272.202 246.529 272.372 246.459 272.55 246.459H363.066C363.244 246.459 363.414 246.529 363.54 246.655C363.666 246.781 363.736 246.951 363.736 247.128C363.736 247.306 363.666 247.476 363.54 247.602C363.414 247.728 363.244 247.798 363.066 247.798Z"
              fill="#3F3D56"/>
        <path d="M258.985 365H3.52937C3.35155 365 3.18102 364.929 3.05528 364.804C2.92954 364.678 2.85889 364.508 2.85889 364.33C2.85889 364.153 2.92954 363.982 3.05528 363.857C3.18102 363.731 3.35155 363.661 3.52937 363.661H258.985C259.163 363.661 259.333 363.731 259.459 363.857C259.585 363.982 259.655 364.153 259.655 364.33C259.655 364.508 259.585 364.678 259.459 364.804C259.333 364.929 259.163 365 258.985 365Z"
              fill="#3F3D56"/>
    </g>
    <defs>
        <clipPath id="clip0_18_370">
            <rect width="410" height="365" fill="white"/>
        </clipPath>
    </defs>
</svg>
