<svg width="49" height="81" viewBox="0 0 49 81" fill="none" xmlns="http://www.w3.org/2000/svg">
    <path d="M46.8591 16.495C45.7069 13.1196 43.8464 10.0412 41.4074 7.47432C38.9685 4.90747 36.0098 2.91399 32.7376 1.6329C29.4654 0.351806 25.9586 -0.186062 22.4617 0.0568041C18.9647 0.299671 15.5618 1.31742 12.4902 3.03909C9.41862 4.76076 6.75232 7.1449 4.67723 10.0253C2.60214 12.9056 1.1682 16.2128 0.475422 19.7163C-0.217358 23.2198 -0.152313 26.8353 0.666026 30.3105C1.48437 33.7857 3.0363 37.0371 5.21361 39.8379C5.4299 40.1158 5.65486 40.3937 5.88404 40.6628C5.90136 40.6804 5.91424 40.6981 5.93156 40.7157C6.49557 41.3782 7.09496 42.0084 7.72698 42.6036C7.89132 42.758 8.06431 42.9168 8.2373 43.0668C8.56618 43.3667 8.90351 43.6534 9.25394 43.9269C9.93813 44.4768 10.6515 44.9878 11.3909 45.4575L11.4169 45.4708C11.897 45.7751 12.3858 46.0574 12.8834 46.3265L13.0866 46.4324C13.5539 46.6794 14.0298 46.9131 14.5185 47.1293C14.618 47.1734 14.7262 47.2175 14.8257 47.2616C14.8343 47.266 14.8388 47.266 14.8474 47.2704C15.8351 47.6892 16.8497 48.0385 17.8842 48.3158C19.912 48.8669 22.0018 49.1457 24.1004 49.1451C24.8661 49.1451 25.6231 49.1098 26.3715 49.0348C28.0815 48.8739 29.7696 48.5264 31.4069 47.9982C31.4113 47.9982 31.4155 47.9938 31.4198 47.9938C32.4541 47.6579 33.4644 47.2496 34.4437 46.772C34.4479 46.7676 34.4568 46.7676 34.461 46.7632C34.6815 46.6573 34.8936 46.5426 35.1099 46.4324C35.1445 46.4147 35.1792 46.397 35.2138 46.3794C35.3868 46.2868 35.5598 46.1941 35.7328 46.0971C36.1654 45.8545 36.5893 45.5987 37.009 45.3252C37.1258 45.2546 37.2382 45.1796 37.355 45.1002C37.7357 44.8444 38.112 44.5709 38.4754 44.293C38.5404 44.2445 38.6095 44.196 38.6746 44.1431C42.7272 41.0062 45.7019 36.6417 47.1722 31.6749C48.6425 26.7082 48.5329 21.3943 46.8591 16.495H46.8591Z"
          fill="white"/>
    <path d="M32.132 34.0236C34.2198 34.0236 35.9123 32.5427 35.9123 30.7158C35.9123 28.8889 34.2198 27.408 32.132 27.408C30.0441 27.408 28.3516 28.8889 28.3516 30.7158C28.3516 32.5427 30.0441 34.0236 32.132 34.0236Z"
          fill="#2F2E41"/>
    <path d="M33.3823 27.0704C34.0785 27.0704 34.7627 27.2534 35.3681 27.6016C35.9736 27.9497 36.4794 28.451 36.8363 29.0564C37.1931 29.6619 37.3887 30.3508 37.404 31.0557C37.4192 31.7607 37.2536 32.4576 36.9233 33.0783C37.2719 32.6364 37.5258 32.1257 37.6688 31.5789C37.8119 31.0321 37.8409 30.4611 37.754 29.9023C37.6672 29.3435 37.4664 28.8091 37.1644 28.3333C36.8624 27.8574 36.4658 27.4505 36 27.1384C35.5342 26.8264 35.0093 26.616 34.4588 26.5208C33.9083 26.4256 33.3442 26.4475 32.8025 26.5852C32.2608 26.723 31.7534 26.9735 31.3126 27.3209C30.8718 27.6682 30.5072 28.1047 30.2422 28.6026C30.6182 28.1245 31.0959 27.7383 31.6396 27.473C32.1834 27.2078 32.7792 27.0701 33.3828 27.0704H33.3823Z"
          fill="#2F2E41"/>
    <path d="M25.5172 31.1882C31.2588 31.1882 35.9132 26.3221 35.9132 20.3196C35.9132 14.317 31.2588 9.45093 25.5172 9.45093C19.7756 9.45093 15.1211 14.317 15.1211 20.3196C15.1211 26.3221 19.7756 31.1882 25.5172 31.1882Z"
          fill="#2F2E41"/>
    <path d="M17.4203 13.5352C19.2495 11.4674 21.8064 10.1948 24.5514 9.98599C27.2964 9.7772 30.0147 10.6486 32.1326 12.4162C32.0461 12.3331 31.9595 12.2495 31.8699 12.1691C29.7725 10.2829 27.0158 9.31108 24.2058 9.46721C21.3958 9.62333 18.7625 10.8946 16.8847 13.0016C15.0068 15.1087 14.0382 17.879 14.1916 20.7036C14.345 23.5282 15.608 26.1761 17.7029 28.0651C17.723 28.0832 17.7432 28.1013 17.7635 28.1193C17.8536 28.1997 17.9462 28.2759 18.0384 28.3529C16.0439 26.4457 14.8647 23.8342 14.7494 21.0696C14.6342 18.3049 15.592 15.6034 17.4207 13.5352L17.4203 13.5352Z"
          fill="#2F2E41"/>
    <path d="M25.518 30.2431C29.1718 30.2431 32.1337 27.2811 32.1337 23.6274C32.1337 19.9737 29.1718 17.0117 25.518 17.0117C21.8643 17.0117 18.9023 19.9737 18.9023 23.6274C18.9023 27.2811 21.8643 30.2431 25.518 30.2431Z"
          fill="#A0616A"/>
    <path d="M37.8054 41.9787V44.3406C37.3842 44.6169 36.9588 44.8754 36.5247 45.1205C36.351 45.2186 36.1774 45.3122 36.0038 45.4057C35.9691 45.4236 35.9343 45.4414 35.8995 45.4592C35.6825 45.5706 35.4696 45.6865 35.2483 45.7935C35.2441 45.7979 35.2352 45.7979 35.2309 45.8024C34.2482 46.2849 33.2342 46.6974 32.1963 47.0368C32.192 47.0368 32.1878 47.0413 32.1833 47.0413C30.5402 47.5749 28.846 47.926 27.13 48.0886C26.3789 48.1644 25.6192 48.2 24.8508 48.2C22.7447 48.2006 20.6475 47.919 18.6124 47.3622C17.5743 47.082 16.556 46.7291 15.5648 46.306C15.5561 46.3015 15.5517 46.3015 15.543 46.2971C15.4431 46.2525 15.3346 46.2079 15.2348 46.1633C14.7442 45.945 14.2667 45.7088 13.7978 45.4592L13.5939 45.3523C13.0944 45.0804 12.6039 44.7952 12.1221 44.4877L12.096 44.4743C11.354 43.9997 10.638 43.4834 9.95141 42.9279C9.59973 42.6516 9.2612 42.3619 8.93114 42.0589C8.75753 41.9073 8.58392 41.7469 8.41901 41.5909C7.78473 40.9896 7.18321 40.3528 6.61719 39.6835C6.69225 39.2193 6.80261 38.7618 6.94724 38.3153L6.95147 38.3109C6.97745 38.2348 7.00789 38.1603 7.04262 38.088C7.06657 38.0241 7.0941 37.9616 7.12508 37.9009C7.90219 36.4079 9.30889 36.038 11.0541 35.9578C12.0396 35.9132 13.1292 35.9623 14.2798 35.9489C14.8875 35.9444 15.5169 35.9221 16.1465 35.8642C20.1188 35.4943 19.3982 33.0878 19.5761 31.7909C19.7541 30.5342 20.8569 31.6216 20.9306 31.6929L20.9349 31.6973C23.1828 32.7772 25.6698 33.2248 28.1415 32.9942C28.5669 32.9407 28.9924 32.9095 29.4178 32.8961C30.5379 32.8828 30.2948 33.2125 29.9086 33.4844C29.721 33.6111 29.5252 33.7243 29.3224 33.8231C29.3224 33.8231 29.1444 34.9373 28.9621 36.604C28.7885 38.1994 34.2628 38.7521 35.3352 39.0997H35.3394C35.9515 39.3307 36.4977 39.7151 36.9284 40.2179C37.359 40.7207 37.6605 41.3259 37.8054 41.9787Z"
          fill="#3F3D56"/>
    <path d="M19.8477 15.1216V21.7373H21.3596L23.2838 19.6487L23.0262 21.7373H29.7099L29.2966 19.6487L30.1233 21.7373H31.1888V15.1216H19.8477Z"
          fill="#2F2E41"/>
    <path d="M18.4296 23.6275C18.6906 23.6275 18.9021 23.2044 18.9021 22.6824C18.9021 22.1604 18.6906 21.7373 18.4296 21.7373C18.1686 21.7373 17.957 22.1604 17.957 22.6824C17.957 23.2044 18.1686 23.6275 18.4296 23.6275Z"
          fill="#A0616A"/>
    <path d="M32.6054 23.6275C32.8663 23.6275 33.0779 23.2044 33.0779 22.6824C33.0779 22.1604 32.8663 21.7373 32.6054 21.7373C32.3444 21.7373 32.1328 22.1604 32.1328 22.6824C32.1328 23.2044 32.3444 23.6275 32.6054 23.6275Z"
          fill="#A0616A"/>
    <path d="M46.8591 16.495C45.7069 13.1196 43.8464 10.0412 41.4074 7.47432C38.9685 4.90747 36.0098 2.91399 32.7376 1.6329C29.4654 0.351806 25.9586 -0.186062 22.4617 0.0568041C18.9647 0.299671 15.5618 1.31742 12.4902 3.03909C9.41862 4.76076 6.75232 7.1449 4.67723 10.0253C2.60214 12.9056 1.1682 16.2128 0.475422 19.7163C-0.217358 23.2198 -0.152313 26.8353 0.666026 30.3105C1.48437 33.7857 3.0363 37.0371 5.21361 39.8379C5.4299 40.1158 5.65486 40.3937 5.88404 40.6628C5.90136 40.6804 5.91424 40.6981 5.93156 40.7157C6.49557 41.3782 7.09496 42.0084 7.72698 42.6036C7.89132 42.758 8.06431 42.9168 8.2373 43.0668C8.56618 43.3667 8.90351 43.6534 9.25394 43.9269C9.93813 44.4768 10.6515 44.9878 11.3909 45.4575L11.4169 45.4708C11.897 45.7751 12.3858 46.0574 12.8834 46.3265L13.0866 46.4324C13.5539 46.6794 14.0298 46.9131 14.5185 47.1293C14.618 47.1734 14.7262 47.2175 14.8257 47.2616C14.8343 47.266 14.8388 47.266 14.8474 47.2704C15.8351 47.6892 16.8497 48.0385 17.8842 48.3158C19.912 48.8669 22.0018 49.1457 24.1004 49.1451C24.8661 49.1451 25.6231 49.1098 26.3715 49.0348C28.0815 48.8739 29.7696 48.5264 31.4069 47.9982C31.4113 47.9982 31.4155 47.9938 31.4198 47.9938C32.4541 47.6579 33.4644 47.2496 34.4437 46.772C34.4479 46.7676 34.4568 46.7676 34.461 46.7632C34.6815 46.6573 34.8936 46.5426 35.1099 46.4324C35.1445 46.4147 35.1792 46.397 35.2138 46.3794C35.3868 46.2868 35.5598 46.1941 35.7328 46.0971C36.1654 45.8545 36.5893 45.5987 37.009 45.3252C37.1258 45.2546 37.2382 45.1796 37.355 45.1002C37.7357 44.8444 38.112 44.5709 38.4754 44.293C38.5404 44.2445 38.6095 44.196 38.6746 44.1431C42.7272 41.0062 45.7019 36.6417 47.1722 31.6749C48.6425 26.7082 48.5329 21.3943 46.8591 16.495H46.8591ZM37.8784 43.0712C37.7356 43.1859 37.5886 43.2961 37.4416 43.3976C37.2988 43.5079 37.156 43.6137 37.009 43.7108C36.8836 43.8034 36.7581 43.8916 36.6282 43.9754C36.52 44.0504 36.4119 44.121 36.3037 44.1916C35.9448 44.4209 35.5816 44.6415 35.2138 44.8532C35.1747 44.8753 35.1358 44.8973 35.0968 44.9194C34.9324 45.012 34.7681 45.1002 34.6038 45.1885C34.582 45.2017 34.556 45.2105 34.5345 45.2237L34.5085 45.237C34.3009 45.3472 34.089 45.4531 33.8769 45.5546C33.059 45.9562 32.2166 46.304 31.3549 46.5956C31.2425 46.6352 31.13 46.6749 31.0176 46.7103C29.4678 47.2128 27.8696 47.5441 26.2504 47.6983C25.5409 47.7645 24.8228 47.7998 24.1004 47.7998C22.1153 47.8039 20.1385 47.5399 18.2215 47.0146C17.2377 46.7528 16.2735 46.4196 15.3362 46.0177C15.2367 45.978 15.1372 45.9339 15.0419 45.8942C14.9902 45.8722 14.9424 45.8501 14.8905 45.8237C14.4839 45.6428 14.0817 45.4443 13.688 45.237L13.4977 45.1355C13.0175 44.8797 12.5459 44.6062 12.0873 44.3151C11.9187 44.2092 11.75 44.0989 11.5856 43.9843C11.0664 43.6358 10.5603 43.2609 10.0671 42.8683C9.73403 42.6124 9.41403 42.3389 9.10248 42.0566C8.93814 41.9155 8.77802 41.7611 8.62235 41.6155C8.00902 41.038 7.42841 40.4254 6.88333 39.7806C6.70168 39.5689 6.52425 39.3571 6.35548 39.1366C6.31711 39.0929 6.28101 39.0473 6.24733 38.9998C3.43667 35.3833 1.74608 30.9951 1.39118 26.3949C1.03628 21.7947 2.03314 17.191 4.25464 13.1709C6.47615 9.15069 9.8216 5.89632 13.8644 3.82276C17.9071 1.7492 22.464 0.950437 26.9537 1.52833C31.4435 2.10623 35.6627 4.0346 39.0733 7.06751C42.4839 10.1004 44.9313 14.1004 46.1034 18.5574C47.2754 23.0143 47.119 27.7263 45.6542 32.0922C44.1893 36.4582 41.4823 40.2803 37.8784 43.0712Z"
          fill="#3F3D56"/>
    <path d="M41.3379 68.0471H7.80216C6.73544 68.0462 5.71271 67.5977 4.95874 66.8002C4.20477 66.0028 3.78125 64.9215 3.78125 63.7942C3.78125 62.6669 4.20477 61.5857 4.95874 60.7882C5.71271 59.9907 6.73544 59.5422 7.80216 59.5413H41.3379C41.8667 59.5408 42.3903 59.6505 42.879 59.864C43.3676 60.0775 43.8116 60.3907 44.1857 60.7857C44.5597 61.1806 44.8564 61.6496 45.0589 62.1658C45.2613 62.6821 45.3656 63.2354 45.3656 63.7942C45.3656 64.353 45.2613 64.9063 45.0589 65.4226C44.8564 65.9388 44.5597 66.4078 44.1857 66.8028C43.8116 67.1977 43.3676 67.5109 42.879 67.7244C42.3903 67.938 41.8667 68.0476 41.3379 68.0471Z"
          fill="#A5E0D5"/>
    <path d="M41.3379 80.3333H7.80216C6.73544 80.3323 5.71271 79.8838 4.95874 79.0864C4.20477 78.2889 3.78125 77.2077 3.78125 76.0803C3.78125 74.953 4.20477 73.8718 4.95874 73.0743C5.71271 72.2768 6.73544 71.8283 7.80216 71.8274H41.3379C41.8667 71.8269 42.3903 71.9366 42.879 72.1501C43.3676 72.3636 43.8116 72.6768 44.1857 73.0718C44.5597 73.4668 44.8564 73.9358 45.0589 74.452C45.2613 74.9682 45.3656 75.5215 45.3656 76.0803C45.3656 76.6391 45.2613 77.1925 45.0589 77.7087C44.8564 78.2249 44.5597 78.6939 44.1857 79.0889C43.8116 79.4839 43.3676 79.7971 42.879 80.0106C42.3903 80.2241 41.8667 80.3337 41.3379 80.3333Z"
          fill="#A5E0D5"/>
</svg>
