<svg width="161" height="159" viewBox="0 0 161 159" fill="none" xmlns="http://www.w3.org/2000/svg">
    <path d="M80.5001 145.75C43.45 145.75 13.4167 116.09 13.4167 79.5C13.4167 42.9101 43.45 13.25 80.5001 13.25C117.55 13.25 147.583 42.9101 147.583 79.5C147.583 116.09 117.55 145.75 80.5001 145.75ZM80.5001 132.5C94.7334 132.5 108.384 126.916 118.448 116.977C128.513 107.037 134.167 93.5565 134.167 79.5C134.167 65.4435 128.513 51.9628 118.448 42.0233C108.384 32.0839 94.7334 26.5 80.5001 26.5C66.2668 26.5 52.6165 32.0839 42.552 42.0233C32.4876 51.9628 26.8334 65.4435 26.8334 79.5C26.8334 93.5565 32.4876 107.037 42.552 116.977C52.6165 126.916 66.2668 132.5 80.5001 132.5ZM73.8119 106L45.3484 77.8901L54.834 68.5224L73.8119 87.2645L111.754 49.7869L121.246 59.1546L73.8119 106Z"
          fill="#05A98B"/>
</svg>
