<svg width="54" height="54" viewBox="0 0 54 54" fill="none" xmlns="http://www.w3.org/2000/svg">
    <rect width="54" height="54" rx="8" fill="#00BFA6"/>
    <path d="M33.2702 16.5305H30.7842V18.0683H32.5013V21.5025C32.5013 24.0887 30.3972 26.1926 27.8112 26.1926H27.4524C24.8662 26.1926 22.7623 24.0885 22.7623 21.5025V18.0683H24.4795V16.5305H21.9935C21.5688 16.5305 21.2246 16.8747 21.2246 17.2994V21.5025C21.2246 24.9365 24.0184 27.7304 27.4524 27.7304H27.8112C31.2452 27.7304 34.0391 24.9365 34.0391 21.5025V17.2994C34.0391 16.8747 33.6949 16.5305 33.2702 16.5305Z"
          fill="white"/>
    <path d="M30.7064 15.4285C30.2817 15.4285 29.9375 15.7727 29.9375 16.1973V18.3502C29.9375 18.7748 30.2817 19.119 30.7064 19.119C31.131 19.119 31.4752 18.7748 31.4752 18.3502V16.1973C31.4752 15.7727 31.131 15.4285 30.7064 15.4285Z"
          fill="white"/>
    <path d="M24.6321 15.4285C24.2075 15.4285 23.8633 15.7727 23.8633 16.1973V18.3502C23.8633 18.7748 24.2075 19.119 24.6321 19.119C25.0568 19.119 25.401 18.7748 25.401 18.3502V16.1973C25.401 15.7727 25.0568 15.4285 24.6321 15.4285Z"
          fill="white"/>
    <path d="M28.4521 31.2932V26.9363H26.9144V31.2932H24.4284C22.4216 31.2932 20.7891 32.9258 20.7891 34.9322C20.7891 36.939 22.4332 38.5715 24.454 38.5715H24.8128C26.8195 38.5715 28.4521 36.939 28.4521 34.9322V32.8309H31.0663V31.2932H28.4521ZM26.9144 34.932C26.9144 36.0906 25.9715 37.0335 24.8128 37.0335H24.454C23.2612 37.0335 22.3268 36.1106 22.3268 34.932C22.3268 33.7733 23.2697 32.8307 24.4284 32.8307H26.9144V34.932Z"
          fill="white"/>
    <path d="M32.7311 29.6531C31.403 29.6531 30.3223 30.7336 30.3223 32.0622C30.3223 33.3903 31.4028 34.471 32.7311 34.471C34.0595 34.471 35.1402 33.3903 35.1402 32.0622C35.1402 30.7338 34.0597 29.6531 32.7311 29.6531ZM32.7311 32.9331C32.2508 32.9331 31.86 32.5422 31.86 32.062C31.86 31.5814 32.2509 31.1906 32.7311 31.1906C33.2116 31.1906 33.6025 31.5814 33.6025 32.062C33.6025 32.5422 33.2116 32.9331 32.7311 32.9331Z"
          fill="white"/>
    <path d="M33.2702 16.5305H30.7842V18.0683H32.5013V21.5025C32.5013 24.0887 30.3972 26.1926 27.8112 26.1926H27.4524C24.8662 26.1926 22.7623 24.0885 22.7623 21.5025V18.0683H24.4795V16.5305H21.9935C21.5688 16.5305 21.2246 16.8747 21.2246 17.2994V21.5025C21.2246 24.9365 24.0184 27.7304 27.4524 27.7304H27.8112C31.2452 27.7304 34.0391 24.9365 34.0391 21.5025V17.2994C34.0391 16.8747 33.6949 16.5305 33.2702 16.5305Z"
          fill="white"/>
    <path d="M30.7064 15.4285C30.2817 15.4285 29.9375 15.7727 29.9375 16.1973V18.3502C29.9375 18.7748 30.2817 19.119 30.7064 19.119C31.131 19.119 31.4752 18.7748 31.4752 18.3502V16.1973C31.4752 15.7727 31.131 15.4285 30.7064 15.4285Z"
          fill="white"/>
    <path d="M24.6321 15.4285C24.2075 15.4285 23.8633 15.7727 23.8633 16.1973V18.3502C23.8633 18.7748 24.2075 19.119 24.6321 19.119C25.0568 19.119 25.401 18.7748 25.401 18.3502V16.1973C25.401 15.7727 25.0568 15.4285 24.6321 15.4285Z"
          fill="white"/>
    <path d="M28.4521 31.2932V26.9363H26.9144V31.2932H24.4284C22.4216 31.2932 20.7891 32.9258 20.7891 34.9322C20.7891 36.939 22.4332 38.5715 24.454 38.5715H24.8128C26.8195 38.5715 28.4521 36.939 28.4521 34.9322V32.8309H31.0663V31.2932H28.4521ZM26.9144 34.932C26.9144 36.0906 25.9715 37.0335 24.8128 37.0335H24.454C23.2612 37.0335 22.3268 36.1106 22.3268 34.932C22.3268 33.7733 23.2697 32.8307 24.4284 32.8307H26.9144V34.932Z"
          fill="white"/>
    <path d="M32.7311 29.6531C31.403 29.6531 30.3223 30.7336 30.3223 32.0622C30.3223 33.3903 31.4028 34.471 32.7311 34.471C34.0595 34.471 35.1402 33.3903 35.1402 32.0622C35.1402 30.7338 34.0597 29.6531 32.7311 29.6531ZM32.7311 32.9331C32.2508 32.9331 31.86 32.5422 31.86 32.062C31.86 31.5814 32.2509 31.1906 32.7311 31.1906C33.2116 31.1906 33.6025 31.5814 33.6025 32.062C33.6025 32.5422 33.2116 32.9331 32.7311 32.9331Z"
          fill="white"/>
    <mask id="mask0" style="mask-type: alpha;" x="0" y="0" width="54" height="54">
        <rect width="54" height="54" rx="8" fill="#4485FD"/>
    </mask>
    <g mask="url(#mask0)">
        <circle cx="-0.000837326" cy="-0.000104904" r="18.3214" fill="#6DD0BE"/>
    </g>
    <mask id="mask1" style="mask-type: alpha;" x="0" y="0" width="54" height="54">
        <rect width="54" height="54" rx="8" fill="#4485FD"/>
    </mask>
    <g mask="url(#mask1)">
        <circle cx="-0.000837326" cy="-0.000104904" r="18.3214" fill="#6DD0BE"/>
    </g>
    <mask id="mask2" style="mask-type: alpha;" x="0" y="0" width="54" height="54">
        <rect width="54" height="54" rx="8" fill="#4485FD"/>
    </mask>
    <g mask="url(#mask2)">
        <circle cx="-0.000837326" cy="-0.000104904" r="18.3214" fill="#6DD0BE"/>
    </g>
</svg>
